%TF.GenerationSoftware,KiCad,Pcbnew,7.0.11*%
%TF.CreationDate,2025-08-12T01:13:28-03:00*%
%TF.ProjectId,SCMATU,53434d41-5455-42e6-9b69-6361645f7063,rev?*%
%TF.SameCoordinates,Original*%
%TF.FileFunction,Soldermask,Top*%
%TF.FilePolarity,Negative*%
%FSLAX46Y46*%
G04 Gerber Fmt 4.6, Leading zero omitted, Abs format (unit mm)*
G04 Created by KiCad (PCBNEW 7.0.11) date 2025-08-12 01:13:28*
%MOMM*%
%LPD*%
G01*
G04 APERTURE LIST*
%ADD10C,3.000000*%
%ADD11R,3.000000X3.000000*%
%ADD12C,2.300000*%
%ADD13O,1.700000X3.000000*%
%ADD14O,1.600000X3.300000*%
%ADD15O,1.100000X2.700000*%
%ADD16O,1.700000X3.200000*%
%ADD17O,1.700000X2.500000*%
%ADD18O,1.600000X2.700000*%
%ADD19O,2.700000X1.600000*%
%ADD20O,1.600000X3.000000*%
%ADD21O,2.000000X3.200000*%
%ADD22O,3.000000X1.700000*%
%ADD23C,4.000000*%
%ADD24C,2.250000*%
%ADD25O,2.500000X1.700000*%
%ADD26R,10.000000X10.000000*%
%ADD27O,3.200000X1.600000*%
G04 APERTURE END LIST*
D10*
%TO.C,REF\u002A\u002A*%
X130352800Y-59639200D03*
%TD*%
%TO.C,REF\u002A\u002A*%
X128320800Y-116789200D03*
%TD*%
%TO.C,REF\u002A\u002A*%
X185089800Y-119329200D03*
%TD*%
%TO.C,REF\u002A\u002A*%
X186232800Y-66116200D03*
%TD*%
D11*
%TO.C,J13*%
X185166000Y-58877200D03*
%TD*%
D12*
%TO.C,R2*%
X140995400Y-49174400D03*
X140995400Y-59334400D03*
%TD*%
%TO.C,D7*%
X177139600Y-69240400D03*
X177139600Y-76860400D03*
%TD*%
D10*
%TO.C,D3*%
X155092400Y-58953400D03*
X144932400Y-58953400D03*
%TD*%
D11*
%TO.C,J12*%
X185140600Y-96240600D03*
%TD*%
D12*
%TO.C,R3*%
X177927000Y-96418400D03*
X177927000Y-86258400D03*
%TD*%
%TO.C,D8*%
X158140400Y-90627200D03*
X158140400Y-98247200D03*
%TD*%
%TO.C,D11*%
X172262800Y-94742000D03*
X172262800Y-87122000D03*
%TD*%
D13*
%TO.C,J22*%
X146075400Y-51898400D03*
X148615400Y-51898400D03*
X151155400Y-51898400D03*
X153695400Y-51898400D03*
X156235400Y-51898400D03*
X158775400Y-51898400D03*
%TD*%
D12*
%TO.C,D6*%
X176022000Y-80213200D03*
X168402000Y-80213200D03*
%TD*%
D14*
%TO.C,U1*%
X163271200Y-134239000D03*
X160731200Y-134239000D03*
X158191200Y-134239000D03*
%TD*%
D15*
%TO.C,C2*%
X157600400Y-124079000D03*
X155600400Y-124079000D03*
%TD*%
%TO.C,C1*%
X166001200Y-124079000D03*
X164001200Y-124079000D03*
%TD*%
D11*
%TO.C,J15*%
X185166000Y-81940400D03*
%TD*%
D16*
%TO.C,J5*%
X132130800Y-107797600D03*
X134670800Y-107797600D03*
X137210800Y-107797600D03*
X139750800Y-107797600D03*
X142290800Y-107797600D03*
X144830800Y-107797600D03*
X147370800Y-107797600D03*
X149910800Y-107797600D03*
X152450800Y-107797600D03*
%TD*%
D10*
%TO.C,D1*%
X137566400Y-118465600D03*
X147726400Y-118465600D03*
%TD*%
D12*
%TO.C,R6*%
X172440600Y-98628200D03*
X162280600Y-98628200D03*
%TD*%
D17*
%TO.C,J2*%
X162306000Y-107746800D03*
X164846000Y-107746800D03*
X167386000Y-107746800D03*
X169926000Y-107746800D03*
X172466000Y-107746800D03*
X175006000Y-107746800D03*
%TD*%
D12*
%TO.C,R4*%
X172618400Y-75996800D03*
X172618400Y-65836800D03*
%TD*%
D11*
%TO.C,J6*%
X185115200Y-106324400D03*
%TD*%
D18*
%TO.C,U4*%
X145958400Y-93741400D03*
X148498400Y-93741400D03*
X151038400Y-93741400D03*
X153578400Y-93741400D03*
X153578400Y-86121400D03*
X151038400Y-86121400D03*
X148498400Y-86121400D03*
X145958400Y-86121400D03*
%TD*%
D19*
%TO.C,U3*%
X160365600Y-80000000D03*
X160365600Y-77460000D03*
X160365600Y-74920000D03*
X160365600Y-72380000D03*
X152745600Y-72380000D03*
X152745600Y-74920000D03*
X152745600Y-77460000D03*
X152745600Y-80000000D03*
%TD*%
D20*
%TO.C,C3*%
X157968000Y-67360800D03*
X155468000Y-67360800D03*
%TD*%
D11*
%TO.C,J14*%
X185115200Y-113385600D03*
%TD*%
D20*
%TO.C,C4*%
X157378400Y-86004400D03*
X159878400Y-86004400D03*
%TD*%
D21*
%TO.C,SW1*%
X132547800Y-55777200D03*
X132547800Y-49277200D03*
X137047800Y-55777200D03*
X137047800Y-49277200D03*
%TD*%
D12*
%TO.C,R5*%
X143459200Y-101295200D03*
X153619200Y-101295200D03*
%TD*%
%TO.C,D10*%
X168300400Y-87020400D03*
X168300400Y-94640400D03*
%TD*%
D13*
%TO.C,J21*%
X129057400Y-44983400D03*
X131597400Y-44983400D03*
X134137400Y-44983400D03*
X136677400Y-44983400D03*
X139217400Y-44983400D03*
%TD*%
D11*
%TO.C,J10*%
X165150800Y-42976800D03*
%TD*%
%TO.C,J9*%
X185166000Y-89077800D03*
%TD*%
D22*
%TO.C,J20*%
X129082800Y-65786000D03*
X129082800Y-68326000D03*
X129082800Y-70866000D03*
%TD*%
D23*
%TO.C,J18*%
X176479200Y-128143000D03*
X181559200Y-128143000D03*
%TD*%
D12*
%TO.C,D4*%
X161544000Y-67360800D03*
X169164000Y-67360800D03*
%TD*%
D23*
%TO.C,J17*%
X140157200Y-128143000D03*
X145237200Y-128143000D03*
%TD*%
D24*
%TO.C,J8*%
X137160000Y-81483200D03*
%TD*%
D25*
%TO.C,J1*%
X129032000Y-77673200D03*
X129032000Y-80213200D03*
X129032000Y-82753200D03*
X129032000Y-85293200D03*
X129032000Y-87833200D03*
X129032000Y-90373200D03*
%TD*%
D11*
%TO.C,J11*%
X171246800Y-42976800D03*
%TD*%
D26*
%TO.C,J16*%
X181254400Y-47802800D03*
%TD*%
D13*
%TO.C,J23*%
X160553400Y-58826400D03*
X163093400Y-58826400D03*
X165633400Y-58826400D03*
X168173400Y-58826400D03*
X170713400Y-58826400D03*
X173253400Y-58826400D03*
X175793400Y-58826400D03*
%TD*%
D27*
%TO.C,D2*%
X129794000Y-132034200D03*
X129794000Y-129494200D03*
%TD*%
D12*
%TO.C,D9*%
X164693600Y-87020400D03*
X164693600Y-94640400D03*
%TD*%
%TO.C,D5*%
X165201600Y-79298800D03*
X165201600Y-71678800D03*
%TD*%
%TO.C,R1*%
X132130800Y-115062000D03*
X132130800Y-125222000D03*
%TD*%
D24*
%TO.C,J7*%
X137160000Y-88138000D03*
%TD*%
M02*
