M48
; DRILL file {KiCad 7.0.11} date Tue Aug 12 01:13:33 2025
; FORMAT={-:-/ absolute / inch / decimal}
; #@! TF.CreationDate,2025-08-12T01:13:33-03:00
; #@! TF.GenerationSoftware,Kicad,Pcbnew,7.0.11
; #@! TF.FileFunction,Plated,1,2,PTH
FMAT,2
INCH
; #@! TA.AperFunction,Plated,PTH,ViaDrill
T1C0.0295
; #@! TA.AperFunction,Plated,PTH,ComponentDrill
T2C0.0295
; #@! TA.AperFunction,Plated,PTH,ComponentDrill
T3C0.0394
; #@! TA.AperFunction,Plated,PTH,ComponentDrill
T4C0.0433
; #@! TA.AperFunction,Plated,PTH,ComponentDrill
T5C0.0492
; #@! TA.AperFunction,Plated,PTH,ComponentDrill
T6C0.0827
; #@! TA.AperFunction,Plated,PTH,ViaDrill
T7C0.1575
%
G90
G05
T1
X5.061Y-4.771
X5.419Y-4.825
X5.618Y-2.46
X5.702Y-4.452
X5.888Y-3.15
X5.946Y-3.826
X6.126Y-4.356
X6.216Y-2.192
X6.324Y-4.705
X6.326Y-3.506
X6.49Y-4.105
X6.625Y-2.852
X6.802Y-1.954
X6.89Y-4.452
X7.14Y-3.505
X7.288Y-4.324
X7.294Y-3.076
X7.296Y-2.916
T2
X5.11Y-5.0982
X5.11Y-5.1982
X5.202Y-4.53
X5.202Y-4.93
X5.551Y-1.936
X5.551Y-2.336
X5.648Y-3.988
X5.7464Y-3.3906
X5.7464Y-3.6906
X5.8464Y-3.3906
X5.8464Y-3.6906
X5.9464Y-3.3906
X5.9464Y-3.6906
X6.0136Y-2.8496
X6.0136Y-2.9496
X6.0136Y-3.0496
X6.0136Y-3.1496
X6.0464Y-3.3906
X6.0464Y-3.6906
X6.048Y-3.988
X6.1208Y-2.652
X6.126Y-4.885
X6.196Y-3.386
X6.2047Y-4.885
X6.2192Y-2.652
X6.226Y-3.568
X6.226Y-3.868
X6.2944Y-3.386
X6.3136Y-2.8496
X6.3136Y-2.9496
X6.3136Y-3.0496
X6.3136Y-3.1496
X6.36Y-2.652
X6.389Y-3.883
X6.4567Y-4.885
X6.484Y-3.426
X6.484Y-3.726
X6.504Y-2.822
X6.504Y-3.122
X6.5355Y-4.885
X6.626Y-3.426
X6.626Y-3.726
X6.63Y-3.158
X6.66Y-2.652
X6.782Y-3.43
X6.782Y-3.73
X6.789Y-3.883
X6.796Y-2.592
X6.796Y-2.992
X6.93Y-3.158
X6.974Y-2.726
X6.974Y-3.026
X7.005Y-3.396
X7.005Y-3.796
T3
X5.08Y-3.058
X5.08Y-3.158
X5.08Y-3.258
X5.08Y-3.358
X5.08Y-3.458
X5.08Y-3.558
X5.081Y-1.771
X5.082Y-2.59
X5.082Y-2.69
X5.082Y-2.79
X5.181Y-1.771
X5.202Y-4.244
X5.281Y-1.771
X5.302Y-4.244
X5.381Y-1.771
X5.4Y-3.208
X5.4Y-3.47
X5.402Y-4.244
X5.481Y-1.771
X5.502Y-4.244
X5.602Y-4.244
X5.702Y-4.244
X5.751Y-2.0432
X5.802Y-4.244
X5.851Y-2.0432
X5.902Y-4.244
X5.951Y-2.0432
X6.002Y-4.244
X6.051Y-2.0432
X6.151Y-2.0432
X6.251Y-2.0432
X6.321Y-2.316
X6.39Y-4.242
X6.421Y-2.316
X6.49Y-4.242
X6.502Y-1.692
X6.521Y-2.316
X6.59Y-4.242
X6.621Y-2.316
X6.69Y-4.242
X6.721Y-2.316
X6.742Y-1.692
X6.79Y-4.242
X6.821Y-2.316
X6.89Y-4.242
X6.921Y-2.316
X7.288Y-4.186
X7.288Y-4.464
X7.289Y-3.789
X7.29Y-2.318
X7.29Y-3.226
X7.29Y-3.507
T4
X5.2184Y-1.94
X5.2184Y-2.196
X5.3956Y-1.94
X5.3956Y-2.196
X5.416Y-4.664
X5.706Y-2.321
X5.816Y-4.664
X6.106Y-2.321
X6.228Y-5.285
X6.328Y-5.285
X6.428Y-5.285
T5
X5.518Y-5.045
X5.718Y-5.045
X6.948Y-5.045
X7.148Y-5.045
T6
X5.052Y-4.598
X5.132Y-2.348
X7.287Y-4.698
X7.332Y-2.603
T7
X4.56Y-1.79
X4.56Y-5.34
M30
