M48
; DRILL file {KiCad 7.0.11} date Wed Feb 25 18:30:39 2026
; FORMAT={-:-/ absolute / inch / decimal}
; #@! TF.CreationDate,2026-02-25T18:30:39-03:00
; #@! TF.GenerationSoftware,Kicad,Pcbnew,7.0.11
; #@! TF.FileFunction,Plated,1,2,PTH
FMAT,2
INCH
; #@! TA.AperFunction,Plated,PTH,ViaDrill
T1C0.0295
; #@! TA.AperFunction,Plated,PTH,ComponentDrill
T2C0.0295
; #@! TA.AperFunction,Plated,PTH,ComponentDrill
T3C0.0315
; #@! TA.AperFunction,Plated,PTH,ComponentDrill
T4C0.0394
%
G90
G05
T1
X0.238Y4.4797
X0.29Y3.4241
X0.306Y4.2701
X0.31Y2.3591
X0.668Y2.3351
X1.097Y4.2867
T2
X0.234Y2.2411
X0.234Y1.8411
X0.3122Y6.6565
X0.3122Y6.2565
X0.3169Y4.9947
X0.3169Y4.0947
X0.368Y4.7947
X0.368Y4.4947
X0.368Y3.8897
X0.368Y3.5897
X0.378Y2.2411
X0.378Y1.8411
X0.3956Y4.9947
X0.3956Y4.0947
X0.4284Y2.7527
X0.4284Y2.6527
X0.4284Y2.5527
X0.4284Y2.4527
X0.4882Y7.2285
X0.4882Y6.9285
X0.524Y1.4681
X0.524Y1.0681
X0.526Y0.9131
X0.526Y0.5131
X0.543Y3.3997
X0.5476Y4.7901
X0.5476Y4.6901
X0.5476Y4.5901
X0.5476Y4.4901
X0.5476Y3.8901
X0.5476Y3.7901
X0.5476Y3.6901
X0.5476Y3.5901
X0.548Y5.0047
X0.548Y4.2997
X0.548Y4.1097
X0.5782Y6.6665
X0.5782Y6.2665
X0.5882Y7.2285
X0.5882Y6.9285
X0.6882Y7.2285
X0.6882Y6.9285
X0.72Y2.2071
X0.72Y1.8071
X0.7284Y2.7527
X0.7284Y2.6527
X0.7284Y2.5527
X0.7284Y2.4527
X0.764Y0.9091
X0.764Y0.5091
X0.7742Y6.6645
X0.7742Y6.2645
X0.7882Y7.2285
X0.7882Y6.9285
X0.843Y3.3997
X0.8476Y4.7901
X0.8476Y4.6901
X0.8476Y4.5901
X0.8476Y4.4901
X0.8476Y3.8901
X0.8476Y3.7901
X0.8476Y3.6901
X0.8476Y3.5901
X0.848Y5.0047
X0.848Y4.2997
X0.848Y4.1097
X0.868Y2.2031
X0.868Y1.8031
X0.998Y4.7697
X0.998Y4.4697
X0.998Y3.8697
X0.998Y3.5697
X1.0382Y6.6655
X1.0382Y6.2655
T3
X0.6748Y1.2631
X0.7733Y1.2631
T4
X0.2282Y5.5025
X0.248Y0.2391
X0.314Y1.3581
X0.314Y1.2581
X0.314Y1.1581
X0.32Y0.8071
X0.32Y0.7071
X0.32Y0.6071
X0.3282Y5.5025
X0.348Y0.2391
X0.372Y5.7953
X0.403Y3.1397
X0.4282Y5.5025
X0.448Y0.2391
X0.472Y5.7953
X0.48Y1.6291
X0.503Y3.1397
X0.5282Y5.5025
X0.548Y0.2391
X0.572Y5.7953
X0.58Y1.6291
X0.603Y3.1397
X0.6282Y5.5025
X0.648Y0.2391
X0.672Y5.7953
X0.68Y1.6291
X0.703Y3.1397
X0.7282Y5.5025
X0.748Y0.2391
X0.772Y5.7953
X0.803Y3.1397
X0.8282Y5.5025
X0.872Y5.7953
X0.903Y3.1397
X0.9282Y5.5025
X0.972Y5.7953
X1.003Y3.1397
X1.0282Y5.5025
M30
