%TF.GenerationSoftware,KiCad,Pcbnew,7.0.11*%
%TF.CreationDate,2026-02-25T18:30:34-03:00*%
%TF.ProjectId,Placas,506c6163-6173-42e6-9b69-6361645f7063,rev?*%
%TF.SameCoordinates,PX59faab0PYbc28f20*%
%TF.FileFunction,Copper,L2,Bot*%
%TF.FilePolarity,Positive*%
%FSLAX46Y46*%
G04 Gerber Fmt 4.6, Leading zero omitted, Abs format (unit mm)*
G04 Created by KiCad (PCBNEW 7.0.11) date 2026-02-25 18:30:34*
%MOMM*%
%LPD*%
G01*
G04 APERTURE LIST*
%TA.AperFunction,ComponentPad*%
%ADD10R,1.700000X2.500000*%
%TD*%
%TA.AperFunction,ComponentPad*%
%ADD11O,1.700000X2.500000*%
%TD*%
%TA.AperFunction,ComponentPad*%
%ADD12C,2.500000*%
%TD*%
%TA.AperFunction,ComponentPad*%
%ADD13O,2.250000X2.250000*%
%TD*%
%TA.AperFunction,ComponentPad*%
%ADD14O,2.500000X2.500000*%
%TD*%
%TA.AperFunction,ComponentPad*%
%ADD15O,2.600000X1.600000*%
%TD*%
%TA.AperFunction,ComponentPad*%
%ADD16R,2.500000X1.600000*%
%TD*%
%TA.AperFunction,ComponentPad*%
%ADD17O,2.500000X1.600000*%
%TD*%
%TA.AperFunction,ComponentPad*%
%ADD18O,1.200000X2.500000*%
%TD*%
%TA.AperFunction,ComponentPad*%
%ADD19O,1.600000X3.000000*%
%TD*%
%TA.AperFunction,ComponentPad*%
%ADD20O,1.600000X2.600000*%
%TD*%
%TA.AperFunction,ComponentPad*%
%ADD21O,1.700000X3.000000*%
%TD*%
%TA.AperFunction,ComponentPad*%
%ADD22O,3.000000X1.700000*%
%TD*%
%TA.AperFunction,ViaPad*%
%ADD23C,2.250000*%
%TD*%
%TA.AperFunction,ViaPad*%
%ADD24C,1.750000*%
%TD*%
%TA.AperFunction,Conductor*%
%ADD25C,0.600000*%
%TD*%
%TA.AperFunction,Conductor*%
%ADD26C,0.750000*%
%TD*%
%TA.AperFunction,Conductor*%
%ADD27C,0.400000*%
%TD*%
G04 APERTURE END LIST*
D10*
%TO.P,J1,1,Pin_1*%
%TO.N,+12V*%
X10237113Y79748800D03*
D11*
%TO.P,J1,2,Pin_2*%
%TO.N,N/C*%
X12777113Y79748800D03*
%TO.P,J1,3,Pin_3*%
X15317113Y79748800D03*
%TO.P,J1,4,Pin_4*%
%TO.N,GND*%
X17857113Y79748800D03*
%TO.P,J1,5,Pin_5*%
%TO.N,N/C*%
X20397113Y79748800D03*
%TO.P,J1,6,Pin_6*%
X22937113Y79748800D03*
%TO.P,J1,7,Pin_7*%
%TO.N,-12V*%
X25477113Y79748800D03*
%TD*%
D12*
%TO.P,R1,1*%
%TO.N,N/C*%
X7931000Y158915600D03*
%TO.P,R1,2*%
X7931000Y169075600D03*
%TD*%
%TO.P,L1,1,1*%
%TO.N,Net-(JP1-B)*%
X13310600Y27130000D03*
%TO.P,L1,2,2*%
%TO.N,Net-(JP2-B)*%
X13310600Y37290000D03*
%TD*%
D13*
%TO.P,D2,1,K*%
%TO.N,N/C*%
X13793113Y86352800D03*
%TO.P,D2,2,A*%
X21413113Y86352800D03*
%TD*%
D12*
%TO.P,R4,1*%
%TO.N,Net-(U1A--)*%
X9602200Y56924200D03*
%TO.P,R4,2*%
%TO.N,VRLCr_A*%
X9602200Y46764200D03*
%TD*%
D11*
%TO.P,J1,1,Pin_1*%
%TO.N,N/C*%
X5797400Y139764000D03*
%TO.P,J1,2,Pin_2*%
X8337400Y139764000D03*
%TO.P,J1,3,Pin_3*%
X10877400Y139764000D03*
%TO.P,J1,4,Pin_4*%
X13417400Y139764000D03*
%TO.P,J1,5,Pin_5*%
%TO.N,GND*%
X15957400Y139764000D03*
%TO.P,J1,6,Pin_6*%
%TO.N,+12V*%
X18497400Y139764000D03*
%TO.P,J1,7,Pin_7*%
%TO.N,-12V*%
X21037400Y139764000D03*
%TO.P,J1,8,Pin_8*%
%TO.N,N/C*%
X23577400Y139764000D03*
%TO.P,J1,9,Pin_9*%
%TO.N,-VRLCr*%
X26117400Y139764000D03*
%TD*%
D14*
%TO.P,R4,1*%
%TO.N,N/C*%
X13920113Y127119800D03*
%TO.P,R4,2*%
X21540113Y127119800D03*
%TD*%
D15*
%TO.P,U1,1*%
%TO.N,VRLCr_A*%
X10882200Y69919000D03*
%TO.P,U1,2,-*%
%TO.N,Net-(U1A--)*%
X10882200Y67379000D03*
%TO.P,U1,3,+*%
%TO.N,GND*%
X10882200Y64839000D03*
%TO.P,U1,4,V-*%
%TO.N,-12V*%
X10882200Y62299000D03*
%TO.P,U1,5,+*%
%TO.N,GND*%
X18502200Y62299000D03*
%TO.P,U1,6,-*%
%TO.N,Net-(U1B--)*%
X18502200Y64839000D03*
%TO.P,U1,7*%
%TO.N,Vr_A*%
X18502200Y67379000D03*
%TO.P,U1,8,V+*%
%TO.N,+12V*%
X18502200Y69919000D03*
%TD*%
D12*
%TO.P,R4,1*%
%TO.N,Net-(U1A--)*%
X26371400Y159144200D03*
%TO.P,R4,2*%
%TO.N,-VRLCr*%
X26371400Y169304200D03*
%TD*%
D16*
%TO.P,U2,1*%
%TO.N,N/C*%
X21530113Y114048800D03*
D17*
%TO.P,U2,2,-*%
X21530113Y116588800D03*
%TO.P,U2,3,+*%
X21530113Y119128800D03*
%TO.P,U2,4,V-*%
%TO.N,-12V*%
X21530113Y121668800D03*
%TO.P,U2,5,+*%
%TO.N,N/C*%
X13910113Y121668800D03*
%TO.P,U2,6,-*%
X13910113Y119128800D03*
%TO.P,U2,7*%
X13910113Y116588800D03*
%TO.P,U2,8,V+*%
%TO.N,+12V*%
X13910113Y114048800D03*
%TD*%
D18*
%TO.P,C1,1*%
%TO.N,N/C*%
X10049226Y104005800D03*
%TO.P,C1,2*%
%TO.N,GND*%
X8049226Y104005800D03*
%TD*%
D13*
%TO.P,D4,1,K*%
%TO.N,N/C*%
X13920113Y109212800D03*
%TO.P,D4,2,A*%
X21540113Y109212800D03*
%TD*%
D19*
%TO.P,C1,1*%
%TO.N,Net-(JP2-B)*%
X17140600Y32083000D03*
%TO.P,C1,2*%
%TO.N,-Vr*%
X19640600Y32083000D03*
%TD*%
D20*
%TO.P,U1,1*%
%TO.N,-VRLCr*%
X12401400Y175984400D03*
%TO.P,U1,2,-*%
%TO.N,Net-(U1A--)*%
X14941400Y175984400D03*
%TO.P,U1,3,+*%
%TO.N,GND*%
X17481400Y175984400D03*
%TO.P,U1,4,V-*%
%TO.N,-12V*%
X20021400Y175984400D03*
%TO.P,U1,5,+*%
%TO.N,N/C*%
X20021400Y183604400D03*
%TO.P,U1,6,-*%
X17481400Y183604400D03*
%TO.P,U1,7*%
X14941400Y183604400D03*
%TO.P,U1,8,V+*%
%TO.N,+12V*%
X12401400Y183604400D03*
%TD*%
D12*
%TO.P,R3,1*%
%TO.N,-VRLCr*%
X5944600Y46764200D03*
%TO.P,R3,2*%
%TO.N,Net-(U1A--)*%
X5944600Y56924200D03*
%TD*%
D21*
%TO.P,JP3,1,A*%
%TO.N,unconnected-(JP3-A-Pad1)*%
X12193000Y41379400D03*
%TO.P,JP3,2,C*%
%TO.N,Net-(JP2-B)*%
X14733000Y41379400D03*
%TO.P,JP3,3,B*%
%TO.N,-Vr*%
X17273000Y41379400D03*
%TD*%
D14*
%TO.P,R3,1*%
%TO.N,N/C*%
X9348113Y121785800D03*
%TO.P,R3,2*%
%TO.N,GND*%
X9348113Y114165800D03*
%TD*%
%TO.P,R2,1*%
%TO.N,N/C*%
X9348113Y98798800D03*
%TO.P,R2,2*%
%TO.N,GND*%
X9348113Y91178800D03*
%TD*%
D13*
%TO.P,D3,1,K*%
%TO.N,N/C*%
X25350113Y113530800D03*
%TO.P,D3,2,A*%
X25350113Y121150800D03*
%TD*%
D12*
%TO.P,R5,1*%
%TO.N,-Vr*%
X18289000Y45900600D03*
%TO.P,R5,2*%
%TO.N,Net-(U1B--)*%
X18289000Y56060600D03*
%TD*%
%TO.P,R6,1*%
%TO.N,Net-(U1B--)*%
X22048200Y55959000D03*
%TO.P,R6,2*%
%TO.N,Vr_A*%
X22048200Y45799000D03*
%TD*%
%TO.P,R2,1*%
%TO.N,N/C*%
X14687400Y159169600D03*
%TO.P,R2,2*%
%TO.N,Net-(U1A--)*%
X14687400Y169329600D03*
%TD*%
D18*
%TO.P,C2,1*%
%TO.N,N/C*%
X10049226Y126865800D03*
%TO.P,C2,2*%
%TO.N,GND*%
X8049226Y126865800D03*
%TD*%
D13*
%TO.P,D1,1,K*%
%TO.N,N/C*%
X25350113Y90670800D03*
%TO.P,D1,2,A*%
X25350113Y98290800D03*
%TD*%
D12*
%TO.P,R1,1*%
%TO.N,-VRLCr*%
X13361400Y13033000D03*
%TO.P,R1,2*%
%TO.N,Net-(JP1-B)*%
X13361400Y23193000D03*
%TD*%
D11*
%TO.P,J2,1,Pin_1*%
%TO.N,N/C*%
X9450000Y147200000D03*
%TO.P,J2,2,Pin_2*%
X11990000Y147200000D03*
%TO.P,J2,3,Pin_3*%
%TO.N,GND*%
X14530000Y147200000D03*
%TO.P,J2,4,Pin_4*%
%TO.N,N/C*%
X17070000Y147200000D03*
%TO.P,J2,5,Pin_5*%
X19610000Y147200000D03*
%TO.P,J2,6,Pin_6*%
X22150000Y147200000D03*
%TO.P,J2,7,Pin_7*%
X24690000Y147200000D03*
%TD*%
D16*
%TO.P,U1,1*%
%TO.N,N/C*%
X21530113Y91188800D03*
D17*
%TO.P,U1,2,-*%
X21530113Y93728800D03*
%TO.P,U1,3,+*%
X21530113Y96268800D03*
%TO.P,U1,4,V-*%
%TO.N,-12V*%
X21530113Y98808800D03*
%TO.P,U1,5,+*%
%TO.N,N/C*%
X13910113Y98808800D03*
%TO.P,U1,6,-*%
X13910113Y96268800D03*
%TO.P,U1,7*%
X13910113Y93728800D03*
%TO.P,U1,8,V+*%
%TO.N,+12V*%
X13910113Y91188800D03*
%TD*%
D21*
%TO.P,J1,1,Pin_1*%
%TO.N,-VRLCr*%
X6300200Y6073400D03*
%TO.P,J1,2,Pin_2*%
%TO.N,Vr_A*%
X8840200Y6073400D03*
%TO.P,J1,3,Pin_3*%
%TO.N,GND*%
X11380200Y6073400D03*
%TO.P,J1,4,Pin_4*%
%TO.N,-12V*%
X13920200Y6073400D03*
%TO.P,J1,5,Pin_5*%
%TO.N,VRLCr_A*%
X16460200Y6073400D03*
%TO.P,J1,6,Pin_6*%
%TO.N,+12V*%
X19000200Y6073400D03*
%TD*%
D12*
%TO.P,R2,1*%
%TO.N,GND*%
X19406600Y12931400D03*
%TO.P,R2,2*%
%TO.N,-Vr*%
X19406600Y23091400D03*
%TD*%
%TO.P,R3,1*%
%TO.N,N/C*%
X19665800Y159118800D03*
%TO.P,R3,2*%
%TO.N,Net-(U1A--)*%
X19665800Y169278800D03*
%TD*%
D22*
%TO.P,JP2,1,A*%
%TO.N,unconnected-(JP2-A-Pad1)*%
X7976600Y29416000D03*
%TO.P,JP2,2,C*%
%TO.N,Net-(JP1-B)*%
X7976600Y31956000D03*
%TO.P,JP2,3,B*%
%TO.N,Net-(JP2-B)*%
X7976600Y34496000D03*
%TD*%
D14*
%TO.P,R1,1*%
%TO.N,N/C*%
X13920113Y104386800D03*
%TO.P,R1,2*%
X21540113Y104386800D03*
%TD*%
D22*
%TO.P,JP1,1,A*%
%TO.N,unconnected-(JP1-A-Pad1)*%
X8129000Y15420600D03*
%TO.P,JP1,2,C*%
%TO.N,-VRLCr*%
X8129000Y17960600D03*
%TO.P,JP1,3,B*%
%TO.N,Net-(JP1-B)*%
X8129000Y20500600D03*
%TD*%
D23*
%TO.N,GND*%
X7366913Y86972400D03*
D24*
X7875000Y59921400D03*
D23*
X27864713Y108882600D03*
X7773313Y108460800D03*
D24*
X16968200Y59311800D03*
D23*
X6046113Y113784800D03*
%TD*%
D25*
%TO.N,*%
X13920113Y104386800D02*
X13920113Y102862800D01*
D26*
X19610000Y148836800D02*
X16922600Y151524200D01*
D25*
X22937113Y84762600D02*
X27331313Y89156800D01*
D26*
X8337400Y141745200D02*
X8337400Y139764000D01*
D25*
X18619113Y94861800D02*
X18619113Y83304800D01*
X20026113Y96268800D02*
X18619113Y94861800D01*
X13920113Y102862800D02*
X16587113Y100195800D01*
D26*
X3836313Y82111000D02*
X3836313Y129151800D01*
X7219800Y145758400D02*
X8185000Y144793200D01*
X7931000Y164554400D02*
X8997800Y163487600D01*
D25*
X26615113Y103375800D02*
X22937113Y107053800D01*
D26*
X25350113Y94861800D02*
X25350113Y98290800D01*
X19665800Y159118800D02*
X21901000Y159118800D01*
X25350113Y123309800D02*
X21540113Y127119800D01*
X25350113Y121150800D02*
X25350113Y123309800D01*
X4679800Y151829000D02*
X6000600Y153149800D01*
X22150000Y148989200D02*
X22150000Y147200000D01*
X11634113Y111498800D02*
X11634113Y117975800D01*
X21530113Y114048800D02*
X21530113Y109222800D01*
X13910113Y121668800D02*
X9465113Y121668800D01*
D25*
X16587113Y97401800D02*
X15454113Y96268800D01*
X17349113Y83685800D02*
X16079113Y82415800D01*
D26*
X21530113Y114048800D02*
X24832113Y114048800D01*
X25350113Y118991800D02*
X25350113Y121150800D01*
X9348113Y124071800D02*
X10049226Y124772913D01*
X19610000Y147200000D02*
X19610000Y148836800D01*
X4679800Y142253200D02*
X4679800Y151829000D01*
X22947113Y116588800D02*
X25350113Y118991800D01*
X7219800Y149187400D02*
X7219800Y145758400D01*
X24690000Y147200000D02*
X24690000Y149040000D01*
D25*
X27331313Y89156800D02*
X27331313Y102659600D01*
D26*
X15317113Y79748800D02*
X15317113Y78148600D01*
X16922600Y151524200D02*
X7169000Y151524200D01*
D25*
X13910113Y93728800D02*
X15688113Y93728800D01*
D26*
X27692200Y143269200D02*
X26981000Y142558000D01*
X9348113Y120261800D02*
X11634113Y117975800D01*
X16206113Y120261800D02*
X16206113Y124198800D01*
X9348113Y98798800D02*
X9348113Y97274800D01*
D25*
X14301113Y82415800D02*
X12777113Y80891800D01*
X17349113Y92067800D02*
X17349113Y83685800D01*
D26*
X10414913Y130625000D02*
X13920113Y127119800D01*
X13910113Y116588800D02*
X13910113Y119128800D01*
D25*
X19444613Y118801300D02*
X19772113Y119128800D01*
D26*
X13793113Y121785800D02*
X13910113Y121668800D01*
X7169000Y151524200D02*
X5899000Y150254200D01*
X13910113Y119128800D02*
X15073113Y119128800D01*
X27692200Y152159200D02*
X27692200Y143269200D01*
X24217113Y93728800D02*
X25350113Y94861800D01*
D25*
X19381113Y108196800D02*
X19381113Y118737800D01*
D26*
X21530113Y109222800D02*
X21540113Y109212800D01*
X7880200Y149847800D02*
X7219800Y149187400D01*
X11990000Y145200000D02*
X11990000Y147200000D01*
X8997800Y163487600D02*
X10369400Y163487600D01*
D25*
X22937113Y79748800D02*
X22937113Y84762600D01*
D26*
X7931000Y156426400D02*
X7931000Y158915600D01*
D25*
X27331313Y102659600D02*
X26615113Y103375800D01*
X20397113Y81526800D02*
X20397113Y79748800D01*
D26*
X21413113Y86352800D02*
X21413113Y91071800D01*
X13417400Y139764000D02*
X13417400Y143772600D01*
X5797400Y141135600D02*
X4679800Y142253200D01*
X9912200Y144793200D02*
X10877400Y143828000D01*
X18548200Y155181800D02*
X9175600Y155181800D01*
X10049226Y124772913D02*
X10049226Y126865800D01*
X17070000Y148684400D02*
X15906600Y149847800D01*
X17070000Y147200000D02*
X17070000Y148684400D01*
D25*
X18619113Y83304800D02*
X20397113Y81526800D01*
D26*
X21413113Y91071800D02*
X21530113Y91188800D01*
X25350113Y98290800D02*
X25350113Y100576800D01*
X11634113Y94988800D02*
X11634113Y88511800D01*
X5899000Y150254200D02*
X5899000Y144183600D01*
D25*
X20524113Y107053800D02*
X19381113Y108196800D01*
D26*
X21530113Y91188800D02*
X24832113Y91188800D01*
X21530113Y93728800D02*
X24217113Y93728800D01*
X9175600Y155181800D02*
X7931000Y156426400D01*
X9465113Y121668800D02*
X9348113Y121785800D01*
X8185000Y144793200D02*
X9912200Y144793200D01*
X25350113Y100576800D02*
X21540113Y104386800D01*
X21530113Y116588800D02*
X22947113Y116588800D01*
X24832113Y91188800D02*
X25350113Y90670800D01*
D25*
X15688113Y93728800D02*
X17349113Y92067800D01*
D26*
X24796600Y142558000D02*
X23577400Y141338800D01*
X9348113Y121785800D02*
X9348113Y120261800D01*
X5899000Y144183600D02*
X8337400Y141745200D01*
X13417400Y143772600D02*
X11990000Y145200000D01*
X26981000Y142558000D02*
X24796600Y142558000D01*
D25*
X22937113Y107053800D02*
X20524113Y107053800D01*
D26*
X15073113Y119128800D02*
X16206113Y120261800D01*
X27692200Y153327600D02*
X27692200Y152159200D01*
D25*
X21530113Y96268800D02*
X20026113Y96268800D01*
D26*
X9348113Y100830800D02*
X9348113Y98798800D01*
X8713113Y77234200D02*
X3836313Y82111000D01*
X16206113Y124833800D02*
X13920113Y127119800D01*
X5797400Y139764000D02*
X5797400Y141135600D01*
X9348113Y98798800D02*
X13900113Y98798800D01*
X5309513Y130625000D02*
X10414913Y130625000D01*
D25*
X16587113Y100195800D02*
X16587113Y97401800D01*
X19772113Y119128800D02*
X21530113Y119128800D01*
D26*
X24690000Y149040000D02*
X18548200Y155181800D01*
X9348113Y97274800D02*
X11634113Y94988800D01*
D25*
X16079113Y82415800D02*
X14301113Y82415800D01*
D26*
X16206113Y124198800D02*
X16206113Y124833800D01*
X15317113Y78148600D02*
X14402713Y77234200D01*
X9348113Y121785800D02*
X9348113Y124071800D01*
X10049226Y101531913D02*
X9348113Y100830800D01*
D25*
X15454113Y96268800D02*
X13910113Y96268800D01*
D26*
X13900113Y98798800D02*
X13910113Y98808800D01*
X21901000Y159118800D02*
X27692200Y153327600D01*
X10877400Y143828000D02*
X10877400Y139764000D01*
X7931000Y169075600D02*
X7931000Y164554400D01*
X24832113Y114048800D02*
X25350113Y113530800D01*
X10369400Y163487600D02*
X14687400Y159169600D01*
X23577400Y141338800D02*
X23577400Y139764000D01*
D25*
X13910113Y96268800D02*
X13910113Y93728800D01*
D26*
X11634113Y88511800D02*
X13793113Y86352800D01*
X10049226Y104005800D02*
X10049226Y101531913D01*
D25*
X19381113Y118737800D02*
X19444613Y118801300D01*
D26*
X14402713Y77234200D02*
X8713113Y77234200D01*
X13920113Y109212800D02*
X11634113Y111498800D01*
X3836313Y129151800D02*
X5309513Y130625000D01*
D25*
X12777113Y80891800D02*
X12777113Y79748800D01*
D26*
X15906600Y149847800D02*
X7880200Y149847800D01*
X17989400Y153149800D02*
X22150000Y148989200D01*
X6000600Y153149800D02*
X17989400Y153149800D01*
%TO.N,Net-(JP2-B)*%
X10516600Y34496000D02*
X13310600Y37290000D01*
X17140600Y33460000D02*
X13310600Y37290000D01*
X7976600Y34496000D02*
X10516600Y34496000D01*
X14733000Y41379400D02*
X14733000Y38712400D01*
X14733000Y38712400D02*
X13310600Y37290000D01*
X17140600Y32083000D02*
X17140600Y33460000D01*
%TO.N,-Vr*%
X19640600Y23325400D02*
X19406600Y23091400D01*
X17273000Y44884600D02*
X18289000Y45900600D01*
X17273000Y41379400D02*
X17273000Y44884600D01*
X19640600Y36624200D02*
X17273000Y38991800D01*
X19640600Y32083000D02*
X19640600Y36624200D01*
X19640600Y32083000D02*
X19640600Y23325400D01*
X17273000Y41379400D02*
X17425400Y41379400D01*
X17273000Y38991800D02*
X17273000Y41379400D01*
X19203400Y23294600D02*
X19406600Y23091400D01*
%TO.N,-VRLCr*%
X13361400Y13033000D02*
X11380200Y13033000D01*
X26371400Y169304200D02*
X29216200Y166459400D01*
X21443800Y172428400D02*
X13366600Y172428400D01*
X12401400Y173393600D02*
X12401400Y175984400D01*
X5284200Y46103800D02*
X5944600Y46764200D01*
X8129000Y17960600D02*
X5792200Y17960600D01*
X5284200Y18468600D02*
X5284200Y46103800D01*
X5792200Y17960600D02*
X5284200Y18468600D01*
X26371400Y169304200D02*
X24568000Y169304200D01*
X27743000Y139764000D02*
X26117400Y139764000D01*
X29216200Y166459400D02*
X29216200Y141237200D01*
X24568000Y169304200D02*
X21443800Y172428400D01*
X13366600Y172428400D02*
X12401400Y173393600D01*
X12142200Y17960600D02*
X8129000Y17960600D01*
X13361400Y13033000D02*
X13361400Y16741400D01*
X6300200Y7953000D02*
X6300200Y6073400D01*
X29216200Y141237200D02*
X27743000Y139764000D01*
X11380200Y13033000D02*
X6300200Y7953000D01*
X13361400Y16741400D02*
X12142200Y17960600D01*
%TO.N,Vr_A*%
X22048200Y18925800D02*
X21235400Y18113000D01*
D25*
X14885400Y50980600D02*
X15647400Y50218600D01*
D26*
X16358600Y16741400D02*
X16358600Y11305800D01*
X15368000Y10315200D02*
X15647400Y10594600D01*
D25*
X20219400Y50218600D02*
X22048200Y48389800D01*
D26*
X16358600Y11305800D02*
X15647400Y10594600D01*
D25*
X18502200Y67379000D02*
X16247000Y67379000D01*
D26*
X21235400Y18113000D02*
X17730200Y18113000D01*
X8840200Y6073400D02*
X8840200Y8105400D01*
D25*
X16247000Y67379000D02*
X14885400Y66017400D01*
D26*
X15037800Y9985000D02*
X15368000Y10315200D01*
X10719800Y9985000D02*
X15037800Y9985000D01*
X8840200Y8105400D02*
X10719800Y9985000D01*
X22048200Y45799000D02*
X22048200Y18925800D01*
X15088600Y10035800D02*
X15647400Y10594600D01*
D25*
X15647400Y50218600D02*
X20219400Y50218600D01*
X22048200Y48389800D02*
X22048200Y45799000D01*
D26*
X17730200Y18113000D02*
X16358600Y16741400D01*
D25*
X14885400Y50980600D02*
X14885400Y66017400D01*
D27*
%TO.N,GND*%
X17176600Y140983200D02*
X17176600Y141034000D01*
X14530000Y147175800D02*
X13315800Y145961600D01*
X15957400Y139764000D02*
X14687400Y141034000D01*
D26*
X8627000Y64839000D02*
X10882200Y64839000D01*
X7875000Y59921400D02*
X7875000Y64087000D01*
X8967113Y113784800D02*
X9348113Y114165800D01*
D27*
X14530000Y147185800D02*
X15754200Y145961600D01*
D26*
X7875000Y64087000D02*
X8627000Y64839000D01*
X17857113Y81663800D02*
X17831713Y81689200D01*
D27*
X14687400Y141034000D02*
X14687400Y141084800D01*
X11380200Y6327400D02*
X12599400Y7546600D01*
D26*
X18502200Y60845800D02*
X16968200Y59311800D01*
X17857113Y79748800D02*
X17857113Y77599800D01*
X8049226Y108184887D02*
X7773313Y108460800D01*
D27*
X15957400Y139764000D02*
X17176600Y140983200D01*
D26*
X18502200Y62299000D02*
X18502200Y60845800D01*
X6046113Y113784800D02*
X8967113Y113784800D01*
X8049226Y104005800D02*
X8049226Y108184887D01*
D27*
X11380200Y6327400D02*
X10110200Y7597400D01*
D26*
X28982313Y110000200D02*
X28982313Y110203400D01*
X27864713Y108882600D02*
X28982313Y110000200D01*
D27*
X17481400Y175984400D02*
X16262200Y174765200D01*
D26*
X17857113Y79748800D02*
X17857113Y81663800D01*
X9348113Y91178800D02*
X9348113Y88953600D01*
X9348113Y88953600D02*
X7366913Y86972400D01*
D27*
X11380200Y6073400D02*
X11380200Y6327400D01*
X17481400Y175984400D02*
X16262200Y177203600D01*
D26*
X17943400Y62319000D02*
X18238200Y62319000D01*
%TO.N,-12V*%
X25477113Y79748800D02*
X25477113Y84066800D01*
X24588113Y107851200D02*
X24588113Y110746800D01*
X19508113Y125468800D02*
X21530113Y123446800D01*
X26284913Y111300600D02*
X27509113Y112524800D01*
X20143113Y129532800D02*
X19508113Y128897800D01*
X20153113Y121668800D02*
X17984113Y119499800D01*
X30537000Y139764000D02*
X30537000Y173800000D01*
X28352600Y175984400D02*
X20021400Y175984400D01*
X19508113Y128897800D02*
X19508113Y125468800D01*
X10882200Y60622600D02*
X10882200Y62299000D01*
X28779113Y87368800D02*
X28779113Y103660200D01*
X17984113Y119499800D02*
X17984113Y101211800D01*
X23953113Y129532800D02*
X20143113Y129532800D01*
X21037400Y139764000D02*
X21037400Y137986000D01*
X21530113Y123446800D02*
X21530113Y121668800D01*
X3353800Y51539400D02*
X5385800Y53571400D01*
X21037400Y137986000D02*
X21647000Y137376400D01*
X30537000Y173800000D02*
X28352600Y175984400D01*
X5589000Y2974600D02*
X3353800Y5209800D01*
X25477113Y84066800D02*
X28779113Y87368800D01*
X27509113Y125976800D02*
X23953113Y129532800D01*
X28149400Y137376400D02*
X30537000Y139764000D01*
X5385800Y53571400D02*
X10821400Y53571400D01*
X24588113Y110746800D02*
X25141913Y111300600D01*
X21647000Y137376400D02*
X28149400Y137376400D01*
X17984113Y101211800D02*
X20387113Y98808800D01*
X13920200Y3736600D02*
X13158200Y2974600D01*
X13158200Y2974600D02*
X5589000Y2974600D01*
X20387113Y98808800D02*
X21530113Y98808800D01*
X25141913Y111300600D02*
X26284913Y111300600D01*
X13920200Y6073400D02*
X13920200Y3736600D01*
X12193000Y59311800D02*
X10882200Y60622600D01*
X12193000Y54943000D02*
X12193000Y59311800D01*
X21530113Y121668800D02*
X20153113Y121668800D01*
X28779113Y103660200D02*
X24588113Y107851200D01*
X27509113Y112524800D02*
X27509113Y125976800D01*
X10821400Y53571400D02*
X12193000Y54943000D01*
X3353800Y5209800D02*
X3353800Y51539400D01*
%TO.N,VRLCr_A*%
X22759400Y2923800D02*
X26823400Y6987800D01*
X26823400Y69573400D02*
X24029400Y72367400D01*
X10882200Y69919000D02*
X12812600Y69919000D01*
X16460200Y4143000D02*
X17679400Y2923800D01*
X17679400Y2923800D02*
X22759400Y2923800D01*
X24029400Y72367400D02*
X11583400Y72367400D01*
X16460200Y6073400D02*
X16460200Y4143000D01*
X13513800Y50675800D02*
X9602200Y46764200D01*
X26823400Y6987800D02*
X26823400Y69573400D01*
X11583400Y72367400D02*
X10882200Y71666200D01*
X12812600Y69919000D02*
X13513800Y69217800D01*
X13513800Y69217800D02*
X13513800Y50675800D01*
X10882200Y71666200D02*
X10882200Y69919000D01*
%TO.N,+12V*%
X21651800Y69919000D02*
X18502200Y69919000D01*
X5411113Y84955800D02*
X5411113Y86479800D01*
X15317113Y84066800D02*
X15825113Y84574800D01*
X19000200Y7089400D02*
X25401000Y13490200D01*
X15825113Y87876800D02*
X13910113Y89791800D01*
X11507113Y81399800D02*
X11507113Y83431800D01*
X3308200Y176086000D02*
X10826600Y183604400D01*
X14936113Y106672800D02*
X16460113Y108196800D01*
X25401000Y13490200D02*
X25401000Y66169800D01*
X18497400Y139764000D02*
X18497400Y138036800D01*
X15180113Y114048800D02*
X13910113Y114048800D01*
X13158113Y106672800D02*
X14936113Y106672800D01*
X6681113Y111244800D02*
X8586113Y111244800D01*
X10826600Y183604400D02*
X12401400Y183604400D01*
X11507113Y83431800D02*
X12142113Y84066800D01*
X19000200Y6073400D02*
X19000200Y7089400D01*
X16460113Y108196800D02*
X16460113Y112768800D01*
X8586113Y111244800D02*
X13158113Y106672800D01*
X12142113Y84066800D02*
X15317113Y84066800D01*
X17837000Y137376400D02*
X4171800Y137376400D01*
X10237113Y80129800D02*
X5411113Y84955800D01*
X18497400Y138036800D02*
X17837000Y137376400D01*
X3308200Y138240000D02*
X3308200Y176086000D01*
X5411113Y86479800D02*
X5411113Y109974800D01*
X4171800Y137376400D02*
X3308200Y138240000D01*
X10237113Y80129800D02*
X11507113Y81399800D01*
X13910113Y89791800D02*
X13910113Y91188800D01*
X5411113Y109974800D02*
X6681113Y111244800D01*
X10237113Y79748800D02*
X10237113Y80129800D01*
X16460113Y112768800D02*
X15180113Y114048800D01*
X15825113Y84574800D02*
X15825113Y87876800D01*
X25401000Y66169800D02*
X21651800Y69919000D01*
%TO.N,Net-(U1A--)*%
X14941400Y178016400D02*
X14941400Y175984400D01*
X9912200Y172885600D02*
X9912200Y177559200D01*
X11334600Y178981600D02*
X13976200Y178981600D01*
X9912200Y177559200D02*
X11334600Y178981600D01*
X19665800Y169278800D02*
X14738200Y169278800D01*
X14738200Y169278800D02*
X14687400Y169329600D01*
X5944600Y64391800D02*
X8931800Y67379000D01*
X26371400Y159144200D02*
X26371400Y163817800D01*
X26371400Y163817800D02*
X20910400Y169278800D01*
X20910400Y169278800D02*
X19665800Y169278800D01*
X8931800Y67379000D02*
X10882200Y67379000D01*
X13468200Y169329600D02*
X9912200Y172885600D01*
X5944600Y56924200D02*
X5944600Y64391800D01*
X5944600Y56924200D02*
X9602200Y56924200D01*
X14687400Y169329600D02*
X13468200Y169329600D01*
X13976200Y178981600D02*
X14941400Y178016400D01*
%TO.N,Net-(U1B--)*%
X22048200Y63782200D02*
X22048200Y55959000D01*
X22048200Y55959000D02*
X18390600Y55959000D01*
X18390600Y55959000D02*
X18289000Y56060600D01*
X22302200Y56060600D02*
X22403800Y55959000D01*
X20991400Y64839000D02*
X18502200Y64839000D01*
X20991400Y64839000D02*
X22048200Y63782200D01*
X21438600Y56060600D02*
X21540200Y55959000D01*
%TO.N,Net-(JP1-B)*%
X13310600Y27130000D02*
X13310600Y23243800D01*
X10770600Y31956000D02*
X7976600Y31956000D01*
X13361400Y23193000D02*
X10669000Y20500600D01*
X13310600Y27130000D02*
X13310600Y29416000D01*
X13310600Y23243800D02*
X13361400Y23193000D01*
X10669000Y20500600D02*
X8129000Y20500600D01*
X13310600Y29416000D02*
X10770600Y31956000D01*
%TD*%
%TA.AperFunction,Conductor*%
%TO.N,GND*%
G36*
X9836150Y7856150D02*
G01*
X9863934Y7890990D01*
X11024158Y9051214D01*
X11099146Y9098333D01*
X11164872Y9109500D01*
X14994126Y9109500D01*
X15010274Y9108844D01*
X15061651Y9104661D01*
X15141544Y9115546D01*
X15146891Y9116201D01*
X15227114Y9124926D01*
X15237653Y9127246D01*
X15237761Y9126750D01*
X15239992Y9127273D01*
X15239870Y9127765D01*
X15250333Y9130367D01*
X15326064Y9158190D01*
X15331117Y9159969D01*
X15407580Y9185733D01*
X15407581Y9185734D01*
X15417373Y9190264D01*
X15417586Y9189802D01*
X15419646Y9190789D01*
X15419421Y9191244D01*
X15429087Y9196038D01*
X15497083Y9239499D01*
X15501660Y9242338D01*
X15570756Y9283912D01*
X15579345Y9290441D01*
X15579652Y9290036D01*
X15581460Y9291450D01*
X15581142Y9291847D01*
X15589549Y9298604D01*
X15640343Y9349399D01*
X15646586Y9355642D01*
X15650449Y9359402D01*
X15709005Y9414869D01*
X15715988Y9423090D01*
X15716377Y9422758D01*
X15729107Y9438163D01*
X16946783Y10655839D01*
X16958665Y10666794D01*
X16997958Y10700170D01*
X17008106Y10713520D01*
X17046807Y10764432D01*
X17050081Y10768618D01*
X17058995Y10779708D01*
X17100630Y10831503D01*
X17106443Y10840597D01*
X17106876Y10840320D01*
X17108081Y10842262D01*
X17107640Y10842528D01*
X17113197Y10851764D01*
X17113202Y10851771D01*
X17147087Y10925013D01*
X17149411Y10929863D01*
X17185241Y11002107D01*
X17185241Y11002108D01*
X17185242Y11002110D01*
X17188964Y11012240D01*
X17189443Y11012063D01*
X17190202Y11014218D01*
X17189718Y11014382D01*
X17193161Y11024599D01*
X17193161Y11024602D01*
X17193162Y11024603D01*
X17210518Y11103457D01*
X17211722Y11108594D01*
X17231200Y11186911D01*
X17231200Y11186912D01*
X17232656Y11197600D01*
X17233167Y11197530D01*
X17233444Y11199797D01*
X17232933Y11199853D01*
X17234099Y11210583D01*
X17234100Y11210584D01*
X17234100Y11291266D01*
X17234172Y11296654D01*
X17236357Y11377273D01*
X17236355Y11377282D01*
X17235481Y11388031D01*
X17235990Y11388072D01*
X17234100Y11407956D01*
X17234100Y16296328D01*
X17253807Y16382671D01*
X17292386Y16437042D01*
X18034558Y17179214D01*
X18109546Y17226333D01*
X18175272Y17237500D01*
X21191726Y17237500D01*
X21207874Y17236844D01*
X21259251Y17232661D01*
X21339144Y17243546D01*
X21344491Y17244201D01*
X21424714Y17252926D01*
X21435253Y17255246D01*
X21435361Y17254750D01*
X21437592Y17255273D01*
X21437470Y17255765D01*
X21447933Y17258367D01*
X21523664Y17286190D01*
X21528717Y17287969D01*
X21605180Y17313733D01*
X21605181Y17313734D01*
X21614973Y17318264D01*
X21615186Y17317802D01*
X21617246Y17318789D01*
X21617021Y17319244D01*
X21626687Y17324038D01*
X21694683Y17367499D01*
X21699260Y17370338D01*
X21768356Y17411912D01*
X21776945Y17418441D01*
X21777252Y17418036D01*
X21779060Y17419450D01*
X21778742Y17419847D01*
X21787138Y17426596D01*
X21787144Y17426600D01*
X21787149Y17426605D01*
X21844185Y17483641D01*
X21848049Y17487402D01*
X21906605Y17542869D01*
X21913588Y17551090D01*
X21913977Y17550758D01*
X21926707Y17566163D01*
X22636383Y18275839D01*
X22648265Y18286794D01*
X22687557Y18320169D01*
X22736407Y18384432D01*
X22739681Y18388618D01*
X22745068Y18395320D01*
X22790230Y18451503D01*
X22796043Y18460597D01*
X22796476Y18460320D01*
X22797681Y18462262D01*
X22797240Y18462528D01*
X22802797Y18471764D01*
X22802802Y18471771D01*
X22836687Y18545013D01*
X22839011Y18549863D01*
X22874841Y18622107D01*
X22874841Y18622108D01*
X22874842Y18622110D01*
X22878564Y18632240D01*
X22879043Y18632063D01*
X22879802Y18634218D01*
X22879318Y18634382D01*
X22882761Y18644599D01*
X22882761Y18644602D01*
X22882762Y18644603D01*
X22900118Y18723457D01*
X22901322Y18728594D01*
X22920800Y18806911D01*
X22920800Y18806912D01*
X22922256Y18817600D01*
X22922767Y18817530D01*
X22923044Y18819797D01*
X22922533Y18819853D01*
X22923699Y18830583D01*
X22923700Y18830584D01*
X22923700Y18911266D01*
X22923772Y18916654D01*
X22925957Y18997273D01*
X22925955Y18997282D01*
X22925081Y19008031D01*
X22925590Y19008072D01*
X22923700Y19027956D01*
X22923700Y44168274D01*
X22943407Y44254617D01*
X22998626Y44323858D01*
X23023198Y44340612D01*
X23037055Y44348612D01*
X23037056Y44348613D01*
X23242178Y44512192D01*
X23242184Y44512198D01*
X23420635Y44704523D01*
X23568423Y44921288D01*
X23568424Y44921290D01*
X23568428Y44921296D01*
X23649282Y45089192D01*
X23682261Y45157672D01*
X23682261Y45157674D01*
X23682263Y45157677D01*
X23759596Y45408385D01*
X23793113Y45630756D01*
X23798700Y45667817D01*
X23798700Y45667818D01*
X23798700Y45930183D01*
X23793812Y45962611D01*
X23759596Y46189615D01*
X23682263Y46440323D01*
X23568428Y46676704D01*
X23420633Y46893479D01*
X23242181Y47085805D01*
X23037057Y47249386D01*
X22948198Y47300688D01*
X22883278Y47360927D01*
X22850923Y47443369D01*
X22848700Y47473027D01*
X22848700Y48479994D01*
X22841119Y48513206D01*
X22837381Y48535205D01*
X22833568Y48569055D01*
X22822319Y48601200D01*
X22816140Y48622646D01*
X22808560Y48655861D01*
X22793772Y48686566D01*
X22785241Y48707162D01*
X22773989Y48739322D01*
X22755859Y48768174D01*
X22745073Y48787690D01*
X22730291Y48818387D01*
X22709050Y48845021D01*
X22696148Y48863202D01*
X22678016Y48892062D01*
X22550462Y49019616D01*
X20753652Y50816426D01*
X20721662Y50848416D01*
X20692815Y50866542D01*
X20674613Y50879457D01*
X20647986Y50900692D01*
X20617284Y50915476D01*
X20597768Y50926263D01*
X20568922Y50944389D01*
X20536764Y50955641D01*
X20516153Y50964179D01*
X20516100Y50964205D01*
X20485461Y50978960D01*
X20452246Y50986540D01*
X20430799Y50992720D01*
X20398654Y51003968D01*
X20383265Y51005702D01*
X20364805Y51007781D01*
X20342803Y51011520D01*
X20336804Y51012889D01*
X20309594Y51019100D01*
X20129206Y51019100D01*
X16061406Y51019100D01*
X15975063Y51038807D01*
X15920692Y51077386D01*
X15744186Y51253892D01*
X15697067Y51328880D01*
X15685900Y51394606D01*
X15685900Y65603394D01*
X15705607Y65689737D01*
X15744186Y65744108D01*
X16520292Y66520214D01*
X16595280Y66567333D01*
X16661006Y66578500D01*
X16881085Y66578500D01*
X16967428Y66558793D01*
X17021799Y66520215D01*
X17163065Y66378949D01*
X17315790Y66272011D01*
X17375215Y66206344D01*
X17400263Y66121397D01*
X17385972Y66033994D01*
X17335175Y65961447D01*
X17315790Y65945989D01*
X17163063Y65839049D01*
X17002155Y65678141D01*
X17002153Y65678139D01*
X16871632Y65491734D01*
X16781127Y65297647D01*
X16775458Y65285490D01*
X16716567Y65065704D01*
X16716565Y65065692D01*
X16696732Y64839000D01*
X16716565Y64612307D01*
X16716567Y64612295D01*
X16775458Y64392509D01*
X16871632Y64186266D01*
X17002155Y63999858D01*
X17163059Y63838954D01*
X17316226Y63731706D01*
X17375650Y63666039D01*
X17400698Y63581091D01*
X17386407Y63493688D01*
X17335609Y63421142D01*
X17316226Y63405684D01*
X17163381Y63298660D01*
X17002539Y63137818D01*
X16872067Y62951486D01*
X16872065Y62951483D01*
X16775935Y62745330D01*
X16775933Y62745325D01*
X16723327Y62549000D01*
X18221582Y62549000D01*
X18167837Y62479948D01*
X18127200Y62361576D01*
X18127200Y62267927D01*
X18142614Y62175554D01*
X18202181Y62065486D01*
X18220089Y62049000D01*
X16723327Y62049000D01*
X16723327Y62048999D01*
X16775933Y61852674D01*
X16775935Y61852669D01*
X16872065Y61646516D01*
X16872067Y61646513D01*
X17002539Y61460181D01*
X17163381Y61299339D01*
X17349713Y61168867D01*
X17349716Y61168865D01*
X17555869Y61072735D01*
X17555873Y61072733D01*
X17775595Y61013858D01*
X17945441Y60999000D01*
X18252200Y60999000D01*
X18252200Y62019440D01*
X18294259Y61980722D01*
X18408870Y61930449D01*
X18533595Y61920114D01*
X18654919Y61950837D01*
X18752200Y62014394D01*
X18752200Y60999000D01*
X19058958Y60999000D01*
X19228804Y61013858D01*
X19448526Y61072733D01*
X19448530Y61072735D01*
X19654683Y61168865D01*
X19654686Y61168867D01*
X19841018Y61299339D01*
X20001860Y61460181D01*
X20132332Y61646513D01*
X20132334Y61646516D01*
X20228468Y61852679D01*
X20228468Y61852678D01*
X20281072Y62048999D01*
X20281072Y62049000D01*
X18782817Y62049000D01*
X18836563Y62118052D01*
X18877200Y62236424D01*
X18877200Y62330073D01*
X18861786Y62422446D01*
X18802219Y62532514D01*
X18784310Y62549000D01*
X20281072Y62549000D01*
X20228468Y62745321D01*
X20132334Y62951483D01*
X20132332Y62951486D01*
X20001860Y63137818D01*
X19841018Y63298660D01*
X19688173Y63405684D01*
X19628749Y63471351D01*
X19603701Y63556299D01*
X19617992Y63643701D01*
X19668790Y63716248D01*
X19688170Y63731704D01*
X19841339Y63838953D01*
X19841341Y63838955D01*
X19907600Y63905214D01*
X19982588Y63952333D01*
X20048314Y63963500D01*
X20546328Y63963500D01*
X20632671Y63943793D01*
X20687042Y63905214D01*
X21114414Y63477842D01*
X21161533Y63402854D01*
X21172700Y63337128D01*
X21172700Y57589726D01*
X21152993Y57503383D01*
X21097774Y57434142D01*
X21073202Y57417388D01*
X21059344Y57409387D01*
X21059343Y57409386D01*
X20854221Y57245807D01*
X20854215Y57245801D01*
X20675767Y57053479D01*
X20585715Y56921398D01*
X20520793Y56861160D01*
X20436164Y56835056D01*
X20421294Y56834500D01*
X19984051Y56834500D01*
X19897708Y56854207D01*
X19828467Y56909426D01*
X19811707Y56934008D01*
X19809235Y56938287D01*
X19809228Y56938304D01*
X19661433Y57155079D01*
X19482981Y57347405D01*
X19277857Y57510986D01*
X19050643Y57642168D01*
X18806416Y57738020D01*
X18550630Y57796402D01*
X18289000Y57816008D01*
X18027370Y57796402D01*
X17771584Y57738020D01*
X17527357Y57642168D01*
X17300143Y57510986D01*
X17186549Y57420398D01*
X17095021Y57347407D01*
X17095015Y57347401D01*
X16916564Y57155076D01*
X16768776Y56938311D01*
X16768773Y56938306D01*
X16768772Y56938304D01*
X16726159Y56849817D01*
X16654938Y56701927D01*
X16577606Y56451223D01*
X16577605Y56451218D01*
X16577604Y56451215D01*
X16567135Y56381759D01*
X16538500Y56191783D01*
X16538500Y56191782D01*
X16538500Y55929418D01*
X16538500Y55929417D01*
X16577603Y55669991D01*
X16577603Y55669989D01*
X16577604Y55669985D01*
X16577604Y55669983D01*
X16577606Y55669976D01*
X16654938Y55419272D01*
X16768772Y55182896D01*
X16768776Y55182888D01*
X16916564Y54966123D01*
X17095015Y54773798D01*
X17095021Y54773792D01*
X17300141Y54610215D01*
X17300141Y54610214D01*
X17527359Y54479030D01*
X17527360Y54479030D01*
X17771584Y54383180D01*
X18027366Y54324798D01*
X18289000Y54305192D01*
X18550633Y54324798D01*
X18644959Y54346328D01*
X18759692Y54372515D01*
X18806415Y54383180D01*
X19050639Y54479030D01*
X19050640Y54479030D01*
X19072237Y54491499D01*
X19253881Y54596371D01*
X19277858Y54610215D01*
X19482978Y54773792D01*
X19482981Y54773795D01*
X19661433Y54966121D01*
X19682214Y54996602D01*
X19747132Y55056838D01*
X19831761Y55082943D01*
X19846634Y55083500D01*
X20421294Y55083500D01*
X20507637Y55063793D01*
X20576878Y55008574D01*
X20585715Y54996602D01*
X20675767Y54864520D01*
X20854215Y54672198D01*
X20854221Y54672192D01*
X21059341Y54508615D01*
X21059341Y54508614D01*
X21286559Y54377430D01*
X21286560Y54377430D01*
X21530784Y54281580D01*
X21786566Y54223198D01*
X22048200Y54203592D01*
X22309833Y54223198D01*
X22380054Y54239226D01*
X22565616Y54281580D01*
X22618330Y54302269D01*
X22809839Y54377430D01*
X22809840Y54377430D01*
X22873224Y54414025D01*
X23037056Y54508613D01*
X23037058Y54508615D01*
X23242178Y54672192D01*
X23242184Y54672198D01*
X23420635Y54864523D01*
X23568423Y55081288D01*
X23568424Y55081290D01*
X23568428Y55081296D01*
X23649282Y55249192D01*
X23682261Y55317672D01*
X23682261Y55317674D01*
X23682263Y55317677D01*
X23759596Y55568385D01*
X23793113Y55790756D01*
X23798700Y55827817D01*
X23798700Y55827818D01*
X23798700Y56090183D01*
X23793812Y56122611D01*
X23759596Y56349615D01*
X23682263Y56600323D01*
X23568428Y56836704D01*
X23420633Y57053479D01*
X23242181Y57245805D01*
X23037057Y57409386D01*
X23023198Y57417388D01*
X22958277Y57477627D01*
X22925922Y57560069D01*
X22923700Y57589726D01*
X22923700Y63738527D01*
X22924356Y63754675D01*
X22924746Y63759474D01*
X22928539Y63806048D01*
X22917643Y63886009D01*
X22916997Y63891280D01*
X22908273Y63971516D01*
X22908271Y63971520D01*
X22905953Y63982055D01*
X22906452Y63982164D01*
X22905930Y63984394D01*
X22905434Y63984271D01*
X22902832Y63994734D01*
X22900685Y64000578D01*
X22874994Y64070503D01*
X22873236Y64075496D01*
X22847467Y64151980D01*
X22847464Y64151983D01*
X22842935Y64161776D01*
X22843403Y64161992D01*
X22842415Y64164054D01*
X22841953Y64163825D01*
X22837163Y64173480D01*
X22837161Y64173488D01*
X22793669Y64241529D01*
X22790902Y64245989D01*
X22749289Y64315154D01*
X22749285Y64315158D01*
X22742759Y64323744D01*
X22743168Y64324055D01*
X22741765Y64325850D01*
X22741365Y64325528D01*
X22734603Y64333939D01*
X22734600Y64333944D01*
X22677521Y64391021D01*
X22673836Y64394807D01*
X22618329Y64453407D01*
X22618322Y64453411D01*
X22610107Y64460390D01*
X22610439Y64460781D01*
X22595037Y64473505D01*
X21641344Y65427198D01*
X21630411Y65439057D01*
X21597031Y65478357D01*
X21532800Y65527183D01*
X21528607Y65530459D01*
X21465697Y65581030D01*
X21465693Y65581032D01*
X21456599Y65586845D01*
X21456877Y65587280D01*
X21454945Y65588478D01*
X21454679Y65588036D01*
X21445434Y65593598D01*
X21445429Y65593602D01*
X21372166Y65627496D01*
X21367397Y65629781D01*
X21295093Y65665641D01*
X21295084Y65665643D01*
X21284958Y65669364D01*
X21285135Y65669847D01*
X21282990Y65670602D01*
X21282826Y65670116D01*
X21272600Y65673561D01*
X21272597Y65673562D01*
X21193739Y65690919D01*
X21188602Y65692123D01*
X21110289Y65711600D01*
X21110282Y65711600D01*
X21099601Y65713056D01*
X21099670Y65713567D01*
X21097398Y65713845D01*
X21097343Y65713333D01*
X21086615Y65714500D01*
X21005934Y65714500D01*
X21000545Y65714573D01*
X20941100Y65716183D01*
X20919927Y65716757D01*
X20919916Y65716754D01*
X20909172Y65715881D01*
X20909130Y65716390D01*
X20889245Y65714500D01*
X20048314Y65714500D01*
X19961971Y65734207D01*
X19907600Y65772786D01*
X19887822Y65792564D01*
X19841339Y65839047D01*
X19688607Y65945989D01*
X19629184Y66011655D01*
X19604137Y66096603D01*
X19618427Y66184006D01*
X19669224Y66256553D01*
X19688601Y66272006D01*
X19841339Y66378953D01*
X20002247Y66539861D01*
X20132768Y66726266D01*
X20228939Y66932504D01*
X20228939Y66932505D01*
X20228941Y66932509D01*
X20287832Y67152295D01*
X20287832Y67152299D01*
X20287835Y67152308D01*
X20307668Y67379000D01*
X20287835Y67605692D01*
X20287832Y67605701D01*
X20287832Y67605704D01*
X20228941Y67825490D01*
X20228940Y67825491D01*
X20228939Y67825496D01*
X20132768Y68031734D01*
X20002247Y68218139D01*
X19841339Y68379047D01*
X19688607Y68485989D01*
X19629184Y68551655D01*
X19604137Y68636603D01*
X19618427Y68724006D01*
X19669224Y68796553D01*
X19688601Y68812006D01*
X19841339Y68918953D01*
X19841341Y68918955D01*
X19907600Y68985214D01*
X19982588Y69032333D01*
X20048314Y69043500D01*
X21206728Y69043500D01*
X21293071Y69023793D01*
X21347442Y68985214D01*
X24467214Y65865442D01*
X24514333Y65790454D01*
X24525500Y65724728D01*
X24525500Y13935272D01*
X24505793Y13848929D01*
X24467214Y13794558D01*
X19406600Y8733944D01*
X19406600Y11176493D01*
X19668157Y11196094D01*
X19923864Y11254458D01*
X19923871Y11254460D01*
X20168020Y11350280D01*
X20168021Y11350280D01*
X20395179Y11481431D01*
X20455172Y11529273D01*
X20455172Y11529274D01*
X19431385Y12553061D01*
X19437995Y12552514D01*
X19559319Y12583237D01*
X19664092Y12651689D01*
X19740963Y12750452D01*
X19781600Y12868824D01*
X19781600Y12909953D01*
X20809320Y11882231D01*
X20809321Y11882231D01*
X20926394Y12053948D01*
X21040196Y12290260D01*
X21117509Y12540900D01*
X21156600Y12800254D01*
X21156600Y13062546D01*
X21117509Y13321899D01*
X21040197Y13572536D01*
X20926393Y13808853D01*
X20926389Y13808861D01*
X20809321Y13980567D01*
X20809320Y13980568D01*
X19781600Y12952848D01*
X19781600Y12962473D01*
X19766186Y13054846D01*
X19706619Y13164914D01*
X19614541Y13249678D01*
X19499930Y13299951D01*
X19427592Y13305945D01*
X20455172Y14333524D01*
X20455171Y14333524D01*
X20395175Y14381371D01*
X20168021Y14512519D01*
X20168020Y14512519D01*
X19923871Y14608339D01*
X19923864Y14608341D01*
X19668157Y14666705D01*
X19406600Y14686306D01*
X19145042Y14666705D01*
X18889335Y14608341D01*
X18889328Y14608339D01*
X18645179Y14512519D01*
X18645178Y14512519D01*
X18418029Y14381373D01*
X18358027Y14333524D01*
X19381813Y13309738D01*
X19375205Y13310286D01*
X19253881Y13279563D01*
X19149108Y13211111D01*
X19072237Y13112348D01*
X19031600Y12993976D01*
X19031600Y12952848D01*
X18003878Y13980567D01*
X18003877Y13980567D01*
X17886808Y13808857D01*
X17886806Y13808852D01*
X17773002Y13572536D01*
X17695690Y13321899D01*
X17656600Y13062546D01*
X17656600Y12800254D01*
X17695690Y12540900D01*
X17773003Y12290260D01*
X17886809Y12053940D01*
X18003877Y11882231D01*
X18003878Y11882231D01*
X19031600Y12909953D01*
X19031600Y12900327D01*
X19047014Y12807954D01*
X19106581Y12697886D01*
X19198659Y12613122D01*
X19313270Y12562849D01*
X19385606Y12556854D01*
X18358026Y11529274D01*
X18358027Y11529273D01*
X18418022Y11481430D01*
X18645178Y11350280D01*
X18645179Y11350280D01*
X18889328Y11254460D01*
X18889335Y11254458D01*
X19145042Y11196094D01*
X19406600Y11176493D01*
X19406600Y8733944D01*
X18756498Y8083842D01*
X18681510Y8036723D01*
X18667309Y8032342D01*
X18536537Y7997303D01*
X18322371Y7897435D01*
X18142614Y7771568D01*
X18128803Y7761898D01*
X18128801Y7761897D01*
X18128799Y7761895D01*
X17961705Y7594801D01*
X17961703Y7594798D01*
X17961701Y7594796D01*
X17893212Y7496982D01*
X17827545Y7437557D01*
X17742597Y7412510D01*
X17655194Y7426800D01*
X17582647Y7477597D01*
X17567188Y7496982D01*
X17498695Y7594801D01*
X17331601Y7761895D01*
X17163061Y7879908D01*
X17138033Y7897433D01*
X17138029Y7897435D01*
X17113202Y7909013D01*
X16923863Y7997303D01*
X16695608Y8058463D01*
X16460200Y8079059D01*
X16224792Y8058463D01*
X16166011Y8042713D01*
X15996542Y7997305D01*
X15950244Y7975716D01*
X15782371Y7897435D01*
X15607844Y7775230D01*
X15588803Y7761898D01*
X15588801Y7761897D01*
X15588799Y7761895D01*
X15421705Y7594801D01*
X15421703Y7594798D01*
X15421701Y7594796D01*
X15353212Y7496982D01*
X15287545Y7437557D01*
X15202597Y7412510D01*
X15115194Y7426800D01*
X15042647Y7477597D01*
X15027188Y7496982D01*
X15026144Y7498473D01*
X14958695Y7594801D01*
X14791601Y7761895D01*
X14598030Y7897435D01*
X14383863Y7997303D01*
X14155608Y8058463D01*
X13920200Y8079059D01*
X13684792Y8058463D01*
X13614218Y8039553D01*
X13456542Y7997305D01*
X13418230Y7979440D01*
X13242371Y7897435D01*
X13048799Y7761895D01*
X12881705Y7594801D01*
X12881703Y7594798D01*
X12881701Y7594796D01*
X12812906Y7496545D01*
X12747239Y7437120D01*
X12662291Y7412073D01*
X12574888Y7426363D01*
X12502341Y7477160D01*
X12486882Y7496546D01*
X12418309Y7594479D01*
X12251279Y7761509D01*
X12057782Y7896998D01*
X12057778Y7897000D01*
X11843695Y7996828D01*
X11843692Y7996830D01*
X11630200Y8054036D01*
X11630200Y6507086D01*
X11590044Y6532893D01*
X11452089Y6573400D01*
X11308311Y6573400D01*
X11170356Y6532893D01*
X11130200Y6507086D01*
X11130200Y8054036D01*
X10916707Y7996830D01*
X10916704Y7996829D01*
X10702622Y7897000D01*
X10702618Y7896998D01*
X10509119Y7761508D01*
X10342092Y7594481D01*
X10273517Y7496545D01*
X10207849Y7437120D01*
X10122902Y7412073D01*
X10035499Y7426363D01*
X9962952Y7477160D01*
X9947494Y7496545D01*
X9878695Y7594801D01*
X9863934Y7609562D01*
X9816815Y7684550D01*
X9806899Y7772557D01*
X9836150Y7856150D01*
G37*
%TD.AperFunction*%
%TA.AperFunction,Conductor*%
G36*
X6839807Y64033071D02*
G01*
X6878386Y64087442D01*
X9215765Y66424821D01*
X9290753Y66471940D01*
X9378760Y66481856D01*
X9462353Y66452605D01*
X9497193Y66424821D01*
X9543059Y66378954D01*
X9696226Y66271706D01*
X9755650Y66206039D01*
X9780698Y66121091D01*
X9766407Y66033688D01*
X9715609Y65961142D01*
X9696226Y65945684D01*
X9543381Y65838660D01*
X9382539Y65677818D01*
X9252067Y65491486D01*
X9252065Y65491483D01*
X9155935Y65285330D01*
X9155933Y65285325D01*
X9103327Y65089000D01*
X10601582Y65089000D01*
X10547837Y65019948D01*
X10507200Y64901576D01*
X10507200Y64807927D01*
X10522614Y64715554D01*
X10582181Y64605486D01*
X10600089Y64589000D01*
X9103327Y64589000D01*
X9103327Y64588999D01*
X9155933Y64392674D01*
X9155935Y64392669D01*
X9252065Y64186516D01*
X9252067Y64186513D01*
X9382539Y64000181D01*
X9543379Y63839341D01*
X9696227Y63732315D01*
X9755651Y63666647D01*
X9780698Y63581699D01*
X9766407Y63494296D01*
X9715608Y63421750D01*
X9696226Y63406293D01*
X9543061Y63299047D01*
X9382153Y63138139D01*
X9251632Y62951734D01*
X9184540Y62807857D01*
X9155458Y62745490D01*
X9096567Y62525704D01*
X9096565Y62525692D01*
X9076732Y62299000D01*
X9096565Y62072307D01*
X9096567Y62072295D01*
X9155458Y61852509D01*
X9251632Y61646266D01*
X9382155Y61459858D01*
X9543058Y61298955D01*
X9650401Y61223793D01*
X9729466Y61168432D01*
X9863826Y61105779D01*
X9891802Y61092733D01*
X9961726Y61038382D01*
X10001144Y60959074D01*
X10006700Y60912378D01*
X10006700Y60666259D01*
X10006043Y60650108D01*
X10005759Y60646624D01*
X10001860Y60598752D01*
X10001861Y60598747D01*
X10012751Y60518818D01*
X10013406Y60513470D01*
X10022126Y60433284D01*
X10024446Y60422745D01*
X10023950Y60422636D01*
X10024474Y60420400D01*
X10024968Y60420523D01*
X10027569Y60410060D01*
X10055382Y60334355D01*
X10057170Y60329277D01*
X10082931Y60252825D01*
X10082932Y60252822D01*
X10082933Y60252820D01*
X10082934Y60252817D01*
X10087460Y60243036D01*
X10086998Y60242822D01*
X10087991Y60240749D01*
X10088446Y60240975D01*
X10093240Y60231309D01*
X10136680Y60163345D01*
X10139516Y60158774D01*
X10181111Y60089645D01*
X10187637Y60081061D01*
X10187235Y60080756D01*
X10188652Y60078943D01*
X10189045Y60079259D01*
X10195802Y60070851D01*
X10252845Y60013809D01*
X10256601Y60009950D01*
X10312068Y59951395D01*
X10320293Y59944409D01*
X10319963Y59944020D01*
X10335359Y59931295D01*
X11259214Y59007442D01*
X11306333Y58932454D01*
X11317500Y58866728D01*
X11317500Y58156200D01*
X11297793Y58069857D01*
X11242574Y58000616D01*
X11162782Y57962189D01*
X11074218Y57962189D01*
X10994426Y58000616D01*
X10972622Y58020846D01*
X10962347Y58031920D01*
X10796181Y58211005D01*
X10591057Y58374586D01*
X10363843Y58505768D01*
X10119616Y58601620D01*
X9863830Y58660002D01*
X9602200Y58679608D01*
X9340570Y58660002D01*
X9084784Y58601620D01*
X8840557Y58505768D01*
X8613343Y58374586D01*
X8472537Y58262297D01*
X8408221Y58211007D01*
X8408215Y58211001D01*
X8229767Y58018679D01*
X8139715Y57886598D01*
X8074793Y57826360D01*
X7990164Y57800256D01*
X7975294Y57799700D01*
X7571505Y57799700D01*
X7485162Y57819407D01*
X7415921Y57874626D01*
X7407093Y57886584D01*
X7317033Y58018679D01*
X7138581Y58211005D01*
X6933457Y58374586D01*
X6919598Y58382588D01*
X6854677Y58442827D01*
X6822322Y58525269D01*
X6820100Y58554926D01*
X6820100Y63946728D01*
X6839807Y64033071D01*
G37*
%TD.AperFunction*%
%TD*%
%TA.AperFunction,Conductor*%
%TO.N,GND*%
G36*
X2507607Y186090043D02*
G01*
X2562826Y186159284D01*
X2642618Y186197711D01*
X2686900Y186202700D01*
X30853500Y186202700D01*
X30939843Y186182993D01*
X31009084Y186127774D01*
X31047511Y186047982D01*
X31052500Y186003700D01*
X31052500Y175003072D01*
X31032793Y174916729D01*
X30977574Y174847488D01*
X30897782Y174809061D01*
X30809218Y174809061D01*
X30729426Y174847488D01*
X30712786Y174862358D01*
X29506782Y176068361D01*
X29002544Y176572598D01*
X28991611Y176584457D01*
X28958231Y176623757D01*
X28894000Y176672583D01*
X28889807Y176675859D01*
X28826897Y176726430D01*
X28826893Y176726432D01*
X28817799Y176732245D01*
X28818077Y176732680D01*
X28816145Y176733878D01*
X28815879Y176733436D01*
X28806634Y176738998D01*
X28806629Y176739002D01*
X28733366Y176772896D01*
X28728597Y176775181D01*
X28656293Y176811041D01*
X28656284Y176811043D01*
X28646158Y176814764D01*
X28646335Y176815247D01*
X28644190Y176816002D01*
X28644026Y176815516D01*
X28633800Y176818961D01*
X28610936Y176823994D01*
X28554939Y176836319D01*
X28549802Y176837523D01*
X28471489Y176857000D01*
X28471482Y176857000D01*
X28460801Y176858456D01*
X28460870Y176858967D01*
X28458598Y176859245D01*
X28458543Y176858733D01*
X28447815Y176859900D01*
X28367134Y176859900D01*
X28361745Y176859973D01*
X28339449Y176860577D01*
X28281127Y176862157D01*
X28281116Y176862154D01*
X28270372Y176861281D01*
X28270330Y176861790D01*
X28250445Y176859900D01*
X21408021Y176859900D01*
X21321678Y176879607D01*
X21252437Y176934826D01*
X21227668Y176974795D01*
X21151968Y177137134D01*
X21021447Y177323539D01*
X20860539Y177484447D01*
X20674134Y177614968D01*
X20467896Y177711139D01*
X20467271Y177711307D01*
X20248104Y177770032D01*
X20248101Y177770032D01*
X20248092Y177770035D01*
X20021400Y177789868D01*
X19794708Y177770035D01*
X19767400Y177762718D01*
X19574909Y177711141D01*
X19535896Y177692949D01*
X19368666Y177614968D01*
X19182261Y177484447D01*
X19021353Y177323539D01*
X18914106Y177170373D01*
X18848439Y177110949D01*
X18763492Y177085902D01*
X18676089Y177100192D01*
X18603542Y177150989D01*
X18588084Y177170373D01*
X18481060Y177323218D01*
X18320218Y177484060D01*
X18133886Y177614532D01*
X18133883Y177614534D01*
X17927721Y177710668D01*
X17731400Y177763272D01*
X17731400Y176263960D01*
X17689341Y176302678D01*
X17574730Y176352951D01*
X17450005Y176363286D01*
X17328681Y176332563D01*
X17231400Y176269006D01*
X17231400Y177763272D01*
X17231399Y177763272D01*
X17035078Y177710668D01*
X16828916Y177614534D01*
X16828913Y177614532D01*
X16642581Y177484060D01*
X16481738Y177323217D01*
X16374715Y177170373D01*
X16309047Y177110949D01*
X16224100Y177085901D01*
X16136697Y177100192D01*
X16064150Y177150990D01*
X16048702Y177170360D01*
X15941447Y177323539D01*
X15875186Y177389800D01*
X15828067Y177464788D01*
X15816900Y177530514D01*
X15816900Y177972727D01*
X15817556Y177988875D01*
X15817946Y177993674D01*
X15821739Y178040248D01*
X15810843Y178120209D01*
X15810197Y178125480D01*
X15801473Y178205716D01*
X15801471Y178205720D01*
X15799153Y178216255D01*
X15799652Y178216364D01*
X15799130Y178218594D01*
X15798634Y178218471D01*
X15796032Y178228934D01*
X15796031Y178228937D01*
X15768194Y178304703D01*
X15766436Y178309696D01*
X15740667Y178386180D01*
X15740664Y178386183D01*
X15736135Y178395976D01*
X15736603Y178396192D01*
X15735615Y178398254D01*
X15735153Y178398025D01*
X15730363Y178407680D01*
X15730361Y178407688D01*
X15686869Y178475729D01*
X15684102Y178480189D01*
X15642489Y178549354D01*
X15642485Y178549358D01*
X15635959Y178557944D01*
X15636368Y178558255D01*
X15634965Y178560050D01*
X15634565Y178559728D01*
X15627803Y178568139D01*
X15627800Y178568144D01*
X15570721Y178625221D01*
X15567036Y178629007D01*
X15511529Y178687607D01*
X15511522Y178687611D01*
X15503307Y178694590D01*
X15503639Y178694981D01*
X15488237Y178707705D01*
X14626144Y179569798D01*
X14615211Y179581657D01*
X14581831Y179620957D01*
X14517600Y179669783D01*
X14513407Y179673059D01*
X14450497Y179723630D01*
X14450493Y179723632D01*
X14441399Y179729445D01*
X14441677Y179729880D01*
X14439745Y179731078D01*
X14439479Y179730636D01*
X14430234Y179736198D01*
X14430229Y179736202D01*
X14356966Y179770096D01*
X14352197Y179772381D01*
X14279893Y179808241D01*
X14279884Y179808243D01*
X14269758Y179811964D01*
X14269935Y179812447D01*
X14267790Y179813202D01*
X14267626Y179812716D01*
X14257400Y179816161D01*
X14243280Y179819269D01*
X14178539Y179833519D01*
X14173402Y179834723D01*
X14095089Y179854200D01*
X14095082Y179854200D01*
X14084401Y179855656D01*
X14084470Y179856167D01*
X14082198Y179856445D01*
X14082143Y179855933D01*
X14071415Y179857100D01*
X13990734Y179857100D01*
X13985345Y179857173D01*
X13964232Y179857745D01*
X13904727Y179859357D01*
X13904716Y179859354D01*
X13893972Y179858481D01*
X13893930Y179858990D01*
X13874045Y179857100D01*
X11378259Y179857100D01*
X11362107Y179857757D01*
X11310752Y179861939D01*
X11275400Y179857122D01*
X11230807Y179851046D01*
X11225486Y179850394D01*
X11145284Y179841673D01*
X11145277Y179841670D01*
X11134746Y179839353D01*
X11134635Y179839854D01*
X11132408Y179839332D01*
X11132532Y179838835D01*
X11122061Y179836231D01*
X11061474Y179813971D01*
X11046333Y179808408D01*
X11041337Y179806648D01*
X10964820Y179780867D01*
X10964818Y179780866D01*
X10955035Y179776340D01*
X10954820Y179776804D01*
X10952745Y179775809D01*
X10952973Y179775351D01*
X10943315Y179770561D01*
X10943312Y179770560D01*
X10875336Y179727111D01*
X10870763Y179724275D01*
X10862626Y179719379D01*
X10801646Y179682689D01*
X10801644Y179682687D01*
X10801640Y179682685D01*
X10793056Y179676160D01*
X10792748Y179676564D01*
X10790949Y179675158D01*
X10791268Y179674762D01*
X10782855Y179667999D01*
X10725812Y179610956D01*
X10721949Y179607196D01*
X10663395Y179551732D01*
X10656411Y179543509D01*
X10656021Y179543839D01*
X10643292Y179528436D01*
X9324011Y178209155D01*
X9312125Y178198197D01*
X9284752Y178174946D01*
X9272843Y178164831D01*
X9223996Y178100573D01*
X9220712Y178096373D01*
X9192031Y178060693D01*
X9170174Y178033503D01*
X9164363Y178024411D01*
X9163932Y178024685D01*
X9162723Y178022736D01*
X9163160Y178022474D01*
X9157598Y178013231D01*
X9123711Y177939985D01*
X9121402Y177935165D01*
X9085559Y177862893D01*
X9085558Y177862889D01*
X9081839Y177852766D01*
X9081360Y177852941D01*
X9080599Y177850780D01*
X9081082Y177850618D01*
X9077637Y177840395D01*
X9060296Y177761615D01*
X9059067Y177756372D01*
X9039599Y177678088D01*
X9038143Y177667401D01*
X9037640Y177667469D01*
X9037361Y177665195D01*
X9037866Y177665141D01*
X9036700Y177654417D01*
X9036700Y177654416D01*
X9036700Y177573734D01*
X9036627Y177568345D01*
X9036043Y177546788D01*
X9034443Y177487727D01*
X9034443Y177487726D01*
X9035319Y177476969D01*
X9034809Y177476927D01*
X9036700Y177457044D01*
X9036700Y172929259D01*
X9036043Y172913109D01*
X9035484Y172906245D01*
X9031860Y172861752D01*
X9031861Y172861748D01*
X9042750Y172781824D01*
X9043405Y172776477D01*
X9052127Y172696283D01*
X9054446Y172685745D01*
X9053951Y172685636D01*
X9054473Y172683408D01*
X9054965Y172683531D01*
X9057569Y172673060D01*
X9085387Y172597339D01*
X9087175Y172592262D01*
X9112934Y172515814D01*
X9117462Y172506029D01*
X9117001Y172505815D01*
X9117994Y172503743D01*
X9118450Y172503970D01*
X9123242Y172494307D01*
X9166677Y172426351D01*
X9169514Y172421779D01*
X9211113Y172352642D01*
X9217637Y172344061D01*
X9217235Y172343756D01*
X9218652Y172341943D01*
X9219045Y172342259D01*
X9225802Y172333851D01*
X9282845Y172276809D01*
X9286601Y172272950D01*
X9342068Y172214395D01*
X9350293Y172207409D01*
X9349963Y172207020D01*
X9365359Y172194295D01*
X12818246Y168741408D01*
X12829201Y168729526D01*
X12862567Y168690244D01*
X12926801Y168641415D01*
X12931045Y168638096D01*
X12993899Y168587572D01*
X13002991Y168581761D01*
X13002717Y168581333D01*
X13004664Y168580125D01*
X13004926Y168580560D01*
X13014167Y168575000D01*
X13069988Y168549173D01*
X13140075Y168495031D01*
X13165710Y168454927D01*
X13167163Y168451909D01*
X13167170Y168451896D01*
X13314964Y168235123D01*
X13493415Y168042798D01*
X13493421Y168042792D01*
X13698541Y167879215D01*
X13698541Y167879214D01*
X13925759Y167748030D01*
X13925760Y167748030D01*
X14169984Y167652180D01*
X14425766Y167593798D01*
X14687400Y167574192D01*
X14949033Y167593798D01*
X15140869Y167637584D01*
X15204816Y167652180D01*
X15279818Y167681616D01*
X15449039Y167748030D01*
X15449040Y167748030D01*
X15449043Y167748032D01*
X15676257Y167879214D01*
X15707400Y167904050D01*
X15881378Y168042792D01*
X15881381Y168042795D01*
X16059833Y168235121D01*
X16115249Y168316401D01*
X16180167Y168376638D01*
X16264796Y168402743D01*
X16279669Y168403300D01*
X18038894Y168403300D01*
X18125237Y168383593D01*
X18194478Y168328374D01*
X18203315Y168316402D01*
X18293367Y168184320D01*
X18471815Y167991998D01*
X18471821Y167991992D01*
X18676941Y167828415D01*
X18676941Y167828414D01*
X18904159Y167697230D01*
X18904160Y167697230D01*
X19148384Y167601380D01*
X19404166Y167542998D01*
X19665800Y167523392D01*
X19927433Y167542998D01*
X20073663Y167576375D01*
X20183216Y167601380D01*
X20248092Y167626842D01*
X20427439Y167697230D01*
X20427440Y167697230D01*
X20654658Y167828414D01*
X20654665Y167828420D01*
X20775975Y167925161D01*
X20855767Y167963588D01*
X20944331Y167963588D01*
X21024123Y167925161D01*
X21040763Y167910291D01*
X25437614Y163513442D01*
X25484733Y163438454D01*
X25495900Y163372728D01*
X25495900Y160774926D01*
X25476193Y160688583D01*
X25420974Y160619342D01*
X25396402Y160602588D01*
X25382544Y160594587D01*
X25382543Y160594586D01*
X25177421Y160431007D01*
X25177415Y160431001D01*
X24998964Y160238676D01*
X24851176Y160021911D01*
X24851173Y160021906D01*
X24851172Y160021904D01*
X24812234Y159941048D01*
X24737338Y159785527D01*
X24660006Y159534823D01*
X24660005Y159534818D01*
X24660004Y159534815D01*
X24641078Y159409252D01*
X24620900Y159275383D01*
X24620900Y159275382D01*
X24620900Y159013018D01*
X24620900Y159013017D01*
X24660003Y158753591D01*
X24660003Y158753589D01*
X24660004Y158753585D01*
X24660004Y158753583D01*
X24660006Y158753576D01*
X24737338Y158502872D01*
X24851172Y158266496D01*
X24851176Y158266488D01*
X24998964Y158049723D01*
X25177415Y157857398D01*
X25177421Y157857392D01*
X25382541Y157693815D01*
X25382541Y157693814D01*
X25609759Y157562630D01*
X25609760Y157562630D01*
X25853984Y157466780D01*
X26109766Y157408398D01*
X26371400Y157388792D01*
X26633033Y157408398D01*
X26816700Y157450320D01*
X26888816Y157466780D01*
X26988799Y157506020D01*
X27133039Y157562630D01*
X27133040Y157562630D01*
X27193533Y157597556D01*
X27360257Y157693814D01*
X27384057Y157712794D01*
X27565378Y157857392D01*
X27565384Y157857398D01*
X27743835Y158049723D01*
X27891623Y158266488D01*
X27891628Y158266496D01*
X27962407Y158413470D01*
X28017626Y158482712D01*
X28097419Y158521138D01*
X28185982Y158521138D01*
X28265775Y158482711D01*
X28320993Y158413470D01*
X28340700Y158327127D01*
X28340700Y154397671D01*
X28320993Y154311328D01*
X28265774Y154242087D01*
X28185982Y154203660D01*
X28097418Y154203660D01*
X28017626Y154242087D01*
X28000986Y154256957D01*
X25300370Y156957573D01*
X22550944Y159706998D01*
X22540011Y159718857D01*
X22506631Y159758157D01*
X22442400Y159806983D01*
X22438207Y159810259D01*
X22375297Y159860830D01*
X22375293Y159860832D01*
X22366199Y159866645D01*
X22366477Y159867080D01*
X22364545Y159868278D01*
X22364279Y159867836D01*
X22355034Y159873398D01*
X22355029Y159873402D01*
X22281766Y159907296D01*
X22276997Y159909581D01*
X22204693Y159945441D01*
X22204684Y159945443D01*
X22194558Y159949164D01*
X22194735Y159949647D01*
X22192590Y159950402D01*
X22192426Y159949916D01*
X22182200Y159953361D01*
X22159847Y159958281D01*
X22103339Y159970719D01*
X22098202Y159971923D01*
X22019889Y159991400D01*
X22019882Y159991400D01*
X22009201Y159992856D01*
X22009270Y159993367D01*
X22006998Y159993645D01*
X22006943Y159993133D01*
X21996215Y159994300D01*
X21915534Y159994300D01*
X21910145Y159994373D01*
X21897826Y159994707D01*
X21829527Y159996557D01*
X21829516Y159996554D01*
X21818772Y159995681D01*
X21818730Y159996190D01*
X21798845Y159994300D01*
X21292705Y159994300D01*
X21206362Y160014007D01*
X21137121Y160069226D01*
X21128293Y160081184D01*
X21038233Y160213279D01*
X20859781Y160405605D01*
X20654657Y160569186D01*
X20427443Y160700368D01*
X20183216Y160796220D01*
X19927430Y160854602D01*
X19665800Y160874208D01*
X19404170Y160854602D01*
X19148384Y160796220D01*
X18904157Y160700368D01*
X18676943Y160569186D01*
X18521693Y160445378D01*
X18471821Y160405607D01*
X18471815Y160405601D01*
X18293364Y160213276D01*
X18145576Y159996511D01*
X18145573Y159996506D01*
X18145572Y159996504D01*
X18096317Y159894225D01*
X18031738Y159760127D01*
X17954406Y159509423D01*
X17954405Y159509418D01*
X17954404Y159509415D01*
X17941404Y159423167D01*
X17915300Y159249983D01*
X17915300Y159249982D01*
X17915300Y158987618D01*
X17915300Y158987617D01*
X17954403Y158728191D01*
X17954403Y158728189D01*
X17954404Y158728185D01*
X17954404Y158728183D01*
X17954406Y158728176D01*
X18031738Y158477472D01*
X18145572Y158241096D01*
X18145576Y158241088D01*
X18293364Y158024323D01*
X18471815Y157831998D01*
X18471821Y157831992D01*
X18676941Y157668415D01*
X18676941Y157668414D01*
X18904159Y157537230D01*
X18904160Y157537230D01*
X19148384Y157441380D01*
X19404166Y157382998D01*
X19665800Y157363392D01*
X19927433Y157382998D01*
X20073663Y157416375D01*
X20183216Y157441380D01*
X20248092Y157466842D01*
X20427439Y157537230D01*
X20427440Y157537230D01*
X20481396Y157568382D01*
X20654657Y157668414D01*
X20705938Y157709309D01*
X20859778Y157831992D01*
X20859781Y157831995D01*
X21038233Y158024321D01*
X21128285Y158156403D01*
X21193205Y158216639D01*
X21277834Y158242744D01*
X21292705Y158243300D01*
X21455928Y158243300D01*
X21542271Y158223593D01*
X21596642Y158185014D01*
X26758414Y153023242D01*
X26805533Y152948254D01*
X26816700Y152882528D01*
X26816700Y143714272D01*
X26796993Y143627929D01*
X26758414Y143573558D01*
X26676642Y143491786D01*
X26601654Y143444667D01*
X26535928Y143433500D01*
X24840259Y143433500D01*
X24824107Y143434157D01*
X24772752Y143438339D01*
X24751435Y143435434D01*
X24692807Y143427446D01*
X24687486Y143426794D01*
X24607284Y143418073D01*
X24607277Y143418070D01*
X24596746Y143415753D01*
X24596635Y143416254D01*
X24594408Y143415732D01*
X24594532Y143415235D01*
X24584059Y143412630D01*
X24508313Y143384802D01*
X24503227Y143383011D01*
X24449118Y143364780D01*
X24426820Y143357267D01*
X24426818Y143357266D01*
X24417028Y143352737D01*
X24416812Y143353203D01*
X24414756Y143352219D01*
X24414985Y143351759D01*
X24405312Y143346961D01*
X24337337Y143303513D01*
X24332758Y143300672D01*
X24286800Y143273020D01*
X24263646Y143259089D01*
X24263644Y143259087D01*
X24263640Y143259085D01*
X24255056Y143252560D01*
X24254748Y143252964D01*
X24252949Y143251558D01*
X24253268Y143251162D01*
X24244855Y143244399D01*
X24187812Y143187356D01*
X24183949Y143183596D01*
X24125395Y143128132D01*
X24118411Y143119909D01*
X24118021Y143120239D01*
X24105292Y143104836D01*
X22989211Y141988755D01*
X22977325Y141977797D01*
X22938043Y141944431D01*
X22889196Y141880173D01*
X22885912Y141875973D01*
X22851089Y141832652D01*
X22835374Y141813103D01*
X22829563Y141804011D01*
X22829132Y141804285D01*
X22827923Y141802336D01*
X22828360Y141802074D01*
X22822798Y141792831D01*
X22788911Y141719585D01*
X22786602Y141714765D01*
X22750759Y141642493D01*
X22750758Y141642489D01*
X22747039Y141632366D01*
X22746560Y141632541D01*
X22745799Y141630380D01*
X22746282Y141630218D01*
X22742837Y141619995D01*
X22725496Y141541215D01*
X22724267Y141535972D01*
X22704799Y141457688D01*
X22703343Y141447001D01*
X22702840Y141447069D01*
X22702561Y141444795D01*
X22703066Y141444741D01*
X22701900Y141434017D01*
X22701900Y141434016D01*
X22701900Y141353334D01*
X22701827Y141347945D01*
X22699807Y141273415D01*
X22677770Y141187639D01*
X22641595Y141138091D01*
X22538908Y141035404D01*
X22538901Y141035396D01*
X22470412Y140937582D01*
X22404745Y140878157D01*
X22319797Y140853110D01*
X22232394Y140867400D01*
X22159847Y140918197D01*
X22144388Y140937582D01*
X22103384Y140996142D01*
X22075895Y141035401D01*
X21908801Y141202495D01*
X21715230Y141338035D01*
X21501063Y141437903D01*
X21272808Y141499063D01*
X21037400Y141519659D01*
X20801992Y141499063D01*
X20674133Y141464804D01*
X20573742Y141437905D01*
X20573737Y141437903D01*
X20359571Y141338035D01*
X20198154Y141225010D01*
X20166003Y141202498D01*
X20166001Y141202497D01*
X20165999Y141202495D01*
X19998905Y141035401D01*
X19998903Y141035398D01*
X19998901Y141035396D01*
X19930412Y140937582D01*
X19864745Y140878157D01*
X19779797Y140853110D01*
X19692394Y140867400D01*
X19619847Y140918197D01*
X19604388Y140937582D01*
X19535895Y141035401D01*
X19368801Y141202495D01*
X19175230Y141338035D01*
X18961063Y141437903D01*
X18732808Y141499063D01*
X18497400Y141519659D01*
X18261992Y141499063D01*
X18125237Y141462420D01*
X18033742Y141437905D01*
X17961477Y141404207D01*
X17819571Y141338035D01*
X17625999Y141202495D01*
X17458905Y141035401D01*
X17458903Y141035398D01*
X17458901Y141035396D01*
X17415976Y140974091D01*
X17390105Y140937144D01*
X17324439Y140877720D01*
X17239491Y140852673D01*
X17152088Y140866963D01*
X17079541Y140917760D01*
X17064082Y140937146D01*
X16995509Y141035079D01*
X16828479Y141202109D01*
X16634982Y141337598D01*
X16634978Y141337600D01*
X16420895Y141437428D01*
X16420892Y141437430D01*
X16207400Y141494636D01*
X16207400Y140197686D01*
X16167244Y140223493D01*
X16029289Y140264000D01*
X15885511Y140264000D01*
X15747556Y140223493D01*
X15707400Y140197686D01*
X15707400Y141494636D01*
X15493907Y141437430D01*
X15493904Y141437429D01*
X15279822Y141337600D01*
X15279818Y141337598D01*
X15086319Y141202108D01*
X14919292Y141035081D01*
X14850717Y140937145D01*
X14785049Y140877720D01*
X14700102Y140852673D01*
X14612699Y140866963D01*
X14540152Y140917760D01*
X14524697Y140937139D01*
X14455895Y141035401D01*
X14351186Y141140110D01*
X14304067Y141215098D01*
X14292900Y141280824D01*
X14292900Y143728927D01*
X14293556Y143745075D01*
X14293946Y143749874D01*
X14297739Y143796448D01*
X14286843Y143876409D01*
X14286197Y143881680D01*
X14277473Y143961916D01*
X14277471Y143961920D01*
X14275153Y143972455D01*
X14275652Y143972564D01*
X14275130Y143974794D01*
X14274634Y143974671D01*
X14272032Y143985134D01*
X14269935Y143990842D01*
X14244194Y144060903D01*
X14242436Y144065896D01*
X14216667Y144142380D01*
X14216664Y144142383D01*
X14212135Y144152176D01*
X14212603Y144152392D01*
X14211615Y144154454D01*
X14211153Y144154225D01*
X14206363Y144163880D01*
X14206361Y144163888D01*
X14162869Y144231929D01*
X14160102Y144236389D01*
X14118489Y144305554D01*
X14118485Y144305558D01*
X14111959Y144314144D01*
X14112368Y144314455D01*
X14110965Y144316250D01*
X14110565Y144315928D01*
X14103803Y144324339D01*
X14103800Y144324344D01*
X14046722Y144381420D01*
X14043037Y144385206D01*
X13987529Y144443807D01*
X13987522Y144443811D01*
X13979307Y144450790D01*
X13979639Y144451181D01*
X13964237Y144463905D01*
X12923786Y145504357D01*
X12876667Y145579346D01*
X12865500Y145645071D01*
X12865500Y145683176D01*
X12885207Y145769519D01*
X12923786Y145823890D01*
X13028495Y145928599D01*
X13028499Y145928605D01*
X13028504Y145928611D01*
X13097294Y146026853D01*
X13162961Y146086278D01*
X13247908Y146111326D01*
X13335311Y146097035D01*
X13407858Y146046238D01*
X13423316Y146026855D01*
X13491893Y145928917D01*
X13658920Y145761890D01*
X13852417Y145626401D01*
X13852421Y145626399D01*
X14066504Y145526571D01*
X14066507Y145526569D01*
X14280000Y145469363D01*
X14280000Y146766314D01*
X14320156Y146740507D01*
X14458111Y146700000D01*
X14601889Y146700000D01*
X14739844Y146740507D01*
X14780000Y146766314D01*
X14780000Y145469364D01*
X14993492Y145526569D01*
X14993495Y145526570D01*
X15207577Y145626399D01*
X15207581Y145626401D01*
X15401080Y145761891D01*
X15568108Y145928919D01*
X15636683Y146026854D01*
X15702350Y146086278D01*
X15787298Y146111326D01*
X15874700Y146097035D01*
X15947247Y146046237D01*
X15962705Y146026854D01*
X16031499Y145928606D01*
X16031503Y145928601D01*
X16198600Y145761503D01*
X16392166Y145625966D01*
X16392170Y145625964D01*
X16606339Y145526095D01*
X16606340Y145526095D01*
X16834585Y145464938D01*
X16834589Y145464937D01*
X16834592Y145464937D01*
X17070000Y145444341D01*
X17254708Y145460501D01*
X17305414Y145464938D01*
X17533657Y145526094D01*
X17533663Y145526097D01*
X17747829Y145625965D01*
X17771089Y145642252D01*
X17927896Y145752048D01*
X17941401Y145761505D01*
X18108495Y145928599D01*
X18108499Y145928605D01*
X18108500Y145928606D01*
X18176989Y146026418D01*
X18242656Y146085842D01*
X18327604Y146110890D01*
X18415007Y146096599D01*
X18487553Y146045801D01*
X18503011Y146026418D01*
X18571499Y145928606D01*
X18571503Y145928601D01*
X18738600Y145761503D01*
X18932166Y145625966D01*
X18932170Y145625964D01*
X19146339Y145526095D01*
X19146340Y145526095D01*
X19374585Y145464938D01*
X19374589Y145464937D01*
X19374592Y145464937D01*
X19610000Y145444341D01*
X19842407Y145464674D01*
X19845414Y145464938D01*
X20073657Y145526094D01*
X20073663Y145526097D01*
X20287829Y145625965D01*
X20351000Y145670198D01*
X20467896Y145752048D01*
X20481401Y145761505D01*
X20648495Y145928599D01*
X20648499Y145928605D01*
X20648500Y145928606D01*
X20716989Y146026418D01*
X20782656Y146085842D01*
X20867604Y146110890D01*
X20955007Y146096599D01*
X21027553Y146045801D01*
X21043011Y146026418D01*
X21111499Y145928606D01*
X21111503Y145928601D01*
X21278600Y145761503D01*
X21472166Y145625966D01*
X21472170Y145625964D01*
X21686339Y145526095D01*
X21686340Y145526095D01*
X21914585Y145464938D01*
X21914589Y145464937D01*
X21914592Y145464937D01*
X22150000Y145444341D01*
X22375297Y145464052D01*
X22385414Y145464938D01*
X22613657Y145526094D01*
X22613663Y145526097D01*
X22827829Y145625965D01*
X22851089Y145642252D01*
X23006248Y145750894D01*
X23021401Y145761505D01*
X23188495Y145928599D01*
X23188499Y145928605D01*
X23188500Y145928606D01*
X23256989Y146026418D01*
X23322656Y146085842D01*
X23407604Y146110890D01*
X23495007Y146096599D01*
X23567553Y146045801D01*
X23583011Y146026418D01*
X23651499Y145928606D01*
X23651503Y145928601D01*
X23818600Y145761503D01*
X24012166Y145625966D01*
X24012170Y145625964D01*
X24226339Y145526095D01*
X24226340Y145526095D01*
X24454585Y145464938D01*
X24454589Y145464937D01*
X24454592Y145464937D01*
X24690000Y145444341D01*
X24851176Y145458442D01*
X24925414Y145464938D01*
X25153657Y145526094D01*
X25218420Y145556294D01*
X25367829Y145625965D01*
X25434059Y145672340D01*
X25559450Y145760138D01*
X25561401Y145761505D01*
X25728495Y145928599D01*
X25864035Y146122171D01*
X25963903Y146336337D01*
X25963903Y146336338D01*
X25963905Y146336342D01*
X26015366Y146528405D01*
X26025063Y146564592D01*
X26040500Y146741034D01*
X26040500Y146741040D01*
X26040500Y147658960D01*
X26040500Y147658966D01*
X26025063Y147835408D01*
X25994483Y147949535D01*
X25963905Y148063657D01*
X25963904Y148063658D01*
X25963903Y148063663D01*
X25864035Y148277829D01*
X25728495Y148471401D01*
X25623786Y148576110D01*
X25576667Y148651098D01*
X25565500Y148716824D01*
X25565500Y148996327D01*
X25566156Y149012475D01*
X25566546Y149017274D01*
X25570339Y149063848D01*
X25559443Y149143809D01*
X25558797Y149149080D01*
X25550073Y149229316D01*
X25550071Y149229320D01*
X25547753Y149239855D01*
X25548252Y149239964D01*
X25547730Y149242194D01*
X25547234Y149242071D01*
X25544632Y149252534D01*
X25544631Y149252537D01*
X25516794Y149328303D01*
X25515036Y149333296D01*
X25489267Y149409780D01*
X25489264Y149409783D01*
X25484735Y149419576D01*
X25485203Y149419792D01*
X25484215Y149421854D01*
X25483753Y149421625D01*
X25478963Y149431280D01*
X25478961Y149431288D01*
X25435469Y149499329D01*
X25432702Y149503789D01*
X25391089Y149572954D01*
X25391085Y149572958D01*
X25384559Y149581544D01*
X25384968Y149581855D01*
X25383565Y149583650D01*
X25383165Y149583328D01*
X25376403Y149591739D01*
X25376400Y149591744D01*
X25319321Y149648821D01*
X25315636Y149652607D01*
X25260129Y149711207D01*
X25260122Y149711211D01*
X25251907Y149718190D01*
X25252239Y149718581D01*
X25236837Y149731305D01*
X19198144Y155769998D01*
X19187208Y155781861D01*
X19153831Y155821157D01*
X19089600Y155869983D01*
X19085407Y155873259D01*
X19022497Y155923830D01*
X19022493Y155923832D01*
X19013399Y155929645D01*
X19013677Y155930080D01*
X19011745Y155931278D01*
X19011479Y155930836D01*
X19002234Y155936398D01*
X19002229Y155936402D01*
X18928966Y155970296D01*
X18924197Y155972581D01*
X18851893Y156008441D01*
X18851884Y156008443D01*
X18841758Y156012164D01*
X18841935Y156012647D01*
X18839790Y156013402D01*
X18839626Y156012916D01*
X18829400Y156016361D01*
X18826102Y156017087D01*
X18750539Y156033719D01*
X18745402Y156034923D01*
X18667089Y156054400D01*
X18667082Y156054400D01*
X18656401Y156055856D01*
X18656470Y156056367D01*
X18654198Y156056645D01*
X18654143Y156056133D01*
X18643415Y156057300D01*
X18562734Y156057300D01*
X18557345Y156057373D01*
X18528662Y156058150D01*
X18476727Y156059557D01*
X18476716Y156059554D01*
X18465972Y156058681D01*
X18465930Y156059190D01*
X18446045Y156057300D01*
X14687400Y156057300D01*
X14687400Y157414192D01*
X14949033Y157433798D01*
X15140869Y157477584D01*
X15204816Y157492180D01*
X15279818Y157521616D01*
X15449039Y157588030D01*
X15449040Y157588030D01*
X15449043Y157588032D01*
X15676257Y157719214D01*
X15707400Y157744050D01*
X15881378Y157882792D01*
X15881384Y157882798D01*
X16059835Y158075123D01*
X16207623Y158291888D01*
X16207624Y158291890D01*
X16207628Y158291896D01*
X16264796Y158410607D01*
X16321461Y158528272D01*
X16321461Y158528274D01*
X16321463Y158528277D01*
X16398796Y158778985D01*
X16432313Y159001356D01*
X16437900Y159038417D01*
X16437900Y159038418D01*
X16437900Y159300783D01*
X16433012Y159333211D01*
X16398796Y159560215D01*
X16321463Y159810923D01*
X16207628Y160047304D01*
X16059833Y160264079D01*
X15881381Y160456405D01*
X15676257Y160619986D01*
X15449043Y160751168D01*
X15204816Y160847020D01*
X14949030Y160905402D01*
X14687400Y160925008D01*
X14425770Y160905402D01*
X14340827Y160886013D01*
X14252266Y160886013D01*
X14172473Y160924439D01*
X14155841Y160939301D01*
X11019344Y164075798D01*
X11008411Y164087657D01*
X10975031Y164126957D01*
X10910800Y164175783D01*
X10906607Y164179059D01*
X10843697Y164229630D01*
X10843693Y164229632D01*
X10834599Y164235445D01*
X10834877Y164235880D01*
X10832945Y164237078D01*
X10832679Y164236636D01*
X10823434Y164242198D01*
X10823429Y164242202D01*
X10750166Y164276096D01*
X10745397Y164278381D01*
X10673093Y164314241D01*
X10673084Y164314243D01*
X10662958Y164317964D01*
X10663135Y164318447D01*
X10660990Y164319202D01*
X10660826Y164318716D01*
X10650600Y164322161D01*
X10637284Y164325092D01*
X10571745Y164339518D01*
X10566607Y164340722D01*
X10488290Y164360200D01*
X10488283Y164360200D01*
X10477602Y164361656D01*
X10477671Y164362166D01*
X10475398Y164362445D01*
X10475343Y164361933D01*
X10464615Y164363100D01*
X10383934Y164363100D01*
X10378545Y164363173D01*
X10365063Y164363538D01*
X10297927Y164365357D01*
X10297916Y164365354D01*
X10287172Y164364481D01*
X10287130Y164364990D01*
X10267245Y164363100D01*
X9442872Y164363100D01*
X9356529Y164382807D01*
X9302158Y164421386D01*
X8864786Y164858758D01*
X8817667Y164933746D01*
X8806500Y164999472D01*
X8806500Y167444874D01*
X8826207Y167531217D01*
X8881426Y167600458D01*
X8905998Y167617212D01*
X8919855Y167625212D01*
X8919856Y167625213D01*
X9124978Y167788792D01*
X9124984Y167788798D01*
X9303435Y167981123D01*
X9451223Y168197888D01*
X9451224Y168197890D01*
X9451228Y168197896D01*
X9532082Y168365792D01*
X9565061Y168434272D01*
X9565061Y168434274D01*
X9565063Y168434277D01*
X9642396Y168684985D01*
X9675913Y168907356D01*
X9681500Y168944417D01*
X9681500Y168944418D01*
X9681500Y169206783D01*
X9676612Y169239211D01*
X9642396Y169466215D01*
X9565063Y169716923D01*
X9451228Y169953304D01*
X9303433Y170170079D01*
X9124981Y170362405D01*
X8919857Y170525986D01*
X8692643Y170657168D01*
X8448416Y170753020D01*
X8192630Y170811402D01*
X7931000Y170831008D01*
X7669370Y170811402D01*
X7413584Y170753020D01*
X7169357Y170657168D01*
X6942143Y170525986D01*
X6737019Y170362405D01*
X6720573Y170344680D01*
X6558564Y170170076D01*
X6410776Y169953311D01*
X6410773Y169953306D01*
X6410772Y169953304D01*
X6359307Y169846436D01*
X6296938Y169716927D01*
X6219606Y169466223D01*
X6219605Y169466218D01*
X6219604Y169466215D01*
X6209135Y169396759D01*
X6180500Y169206783D01*
X6180500Y169206782D01*
X6180500Y168944418D01*
X6180500Y168944417D01*
X6219603Y168684991D01*
X6219603Y168684989D01*
X6219604Y168684985D01*
X6219604Y168684983D01*
X6219606Y168684976D01*
X6296938Y168434272D01*
X6410772Y168197896D01*
X6410776Y168197888D01*
X6558564Y167981123D01*
X6737015Y167788798D01*
X6737021Y167788792D01*
X6942143Y167625213D01*
X6942144Y167625212D01*
X6956002Y167617212D01*
X7020923Y167556973D01*
X7053278Y167474531D01*
X7055500Y167444874D01*
X7055500Y164598060D01*
X7054843Y164581909D01*
X7054599Y164578923D01*
X7050660Y164530552D01*
X7050661Y164530547D01*
X7061551Y164450618D01*
X7062206Y164445270D01*
X7070926Y164365084D01*
X7073246Y164354545D01*
X7072750Y164354436D01*
X7073274Y164352200D01*
X7073768Y164352323D01*
X7076369Y164341860D01*
X7104182Y164266155D01*
X7105970Y164261077D01*
X7131731Y164184625D01*
X7131732Y164184622D01*
X7131733Y164184620D01*
X7131734Y164184617D01*
X7136260Y164174836D01*
X7135798Y164174622D01*
X7136791Y164172549D01*
X7137246Y164172775D01*
X7142040Y164163109D01*
X7185480Y164095145D01*
X7188316Y164090574D01*
X7229911Y164021445D01*
X7236437Y164012861D01*
X7236035Y164012556D01*
X7237452Y164010743D01*
X7237845Y164011059D01*
X7244602Y164002651D01*
X7301645Y163945609D01*
X7305401Y163941750D01*
X7360868Y163883195D01*
X7369093Y163876209D01*
X7368763Y163875820D01*
X7384159Y163863095D01*
X8347846Y162899408D01*
X8358801Y162887526D01*
X8392167Y162848244D01*
X8456401Y162799415D01*
X8460645Y162796096D01*
X8523499Y162745572D01*
X8532591Y162739761D01*
X8532317Y162739333D01*
X8534264Y162738125D01*
X8534526Y162738560D01*
X8543773Y162732996D01*
X8616998Y162699118D01*
X8621853Y162696792D01*
X8694109Y162660957D01*
X8704228Y162657240D01*
X8704053Y162656763D01*
X8706218Y162656001D01*
X8706381Y162656482D01*
X8716600Y162653039D01*
X8716603Y162653038D01*
X8748789Y162645952D01*
X8795401Y162635692D01*
X8800641Y162634464D01*
X8878918Y162614998D01*
X8889599Y162613543D01*
X8889530Y162613040D01*
X8891809Y162612761D01*
X8891864Y162613266D01*
X8902587Y162612100D01*
X8983264Y162612100D01*
X8988653Y162612027D01*
X9069272Y162609843D01*
X9080031Y162610719D01*
X9080072Y162610208D01*
X9099955Y162612100D01*
X9924327Y162612100D01*
X10010670Y162592393D01*
X10065041Y162553814D01*
X12915792Y159703062D01*
X12962911Y159628074D01*
X12972827Y159540067D01*
X12971855Y159532693D01*
X12957181Y159435339D01*
X12936900Y159300783D01*
X12936900Y159300782D01*
X12936900Y159038418D01*
X12936900Y159038417D01*
X12976003Y158778991D01*
X12976003Y158778989D01*
X12976004Y158778985D01*
X12976004Y158778983D01*
X12976006Y158778976D01*
X13053338Y158528272D01*
X13167172Y158291896D01*
X13167176Y158291888D01*
X13314964Y158075123D01*
X13493415Y157882798D01*
X13493421Y157882792D01*
X13698541Y157719215D01*
X13698541Y157719214D01*
X13925759Y157588030D01*
X13925760Y157588030D01*
X14169984Y157492180D01*
X14425766Y157433798D01*
X14687400Y157414192D01*
X14687400Y156057300D01*
X9620672Y156057300D01*
X9534329Y156077007D01*
X9479958Y156115586D01*
X8864786Y156730758D01*
X8817667Y156805746D01*
X8806500Y156871472D01*
X8806500Y157284874D01*
X8826207Y157371217D01*
X8881426Y157440458D01*
X8905998Y157457212D01*
X8919855Y157465212D01*
X8919856Y157465213D01*
X9124978Y157628792D01*
X9124984Y157628798D01*
X9303435Y157821123D01*
X9451223Y158037888D01*
X9451224Y158037890D01*
X9451228Y158037896D01*
X9532082Y158205792D01*
X9565061Y158274272D01*
X9565061Y158274274D01*
X9565063Y158274277D01*
X9642396Y158524985D01*
X9675913Y158747356D01*
X9681500Y158784417D01*
X9681500Y158784418D01*
X9681500Y159046783D01*
X9676612Y159079211D01*
X9642396Y159306215D01*
X9565063Y159556923D01*
X9451228Y159793304D01*
X9303433Y160010079D01*
X9124981Y160202405D01*
X8919857Y160365986D01*
X8692643Y160497168D01*
X8448416Y160593020D01*
X8192630Y160651402D01*
X7931000Y160671008D01*
X7669370Y160651402D01*
X7413584Y160593020D01*
X7169357Y160497168D01*
X6942143Y160365986D01*
X6737019Y160202405D01*
X6720573Y160184680D01*
X6558564Y160010076D01*
X6410776Y159793311D01*
X6410773Y159793306D01*
X6410772Y159793304D01*
X6359307Y159686436D01*
X6296938Y159556927D01*
X6219606Y159306223D01*
X6219605Y159306218D01*
X6219604Y159306215D01*
X6209135Y159236759D01*
X6180500Y159046783D01*
X6180500Y159046782D01*
X6180500Y158784418D01*
X6180500Y158784417D01*
X6219603Y158524991D01*
X6219603Y158524989D01*
X6219604Y158524985D01*
X6219604Y158524983D01*
X6219606Y158524976D01*
X6296938Y158274272D01*
X6410772Y158037896D01*
X6410776Y158037888D01*
X6558564Y157821123D01*
X6737015Y157628798D01*
X6737021Y157628792D01*
X6942143Y157465213D01*
X6942144Y157465212D01*
X6956002Y157457212D01*
X7020923Y157396973D01*
X7053278Y157314531D01*
X7055500Y157284874D01*
X7055500Y156470059D01*
X7054843Y156453908D01*
X7054559Y156450424D01*
X7050660Y156402552D01*
X7050661Y156402547D01*
X7061551Y156322618D01*
X7062206Y156317270D01*
X7070926Y156237084D01*
X7073246Y156226545D01*
X7072750Y156226436D01*
X7073274Y156224200D01*
X7073768Y156224323D01*
X7076369Y156213860D01*
X7104182Y156138155D01*
X7105970Y156133077D01*
X7131731Y156056625D01*
X7131732Y156056622D01*
X7131733Y156056620D01*
X7131734Y156056617D01*
X7136260Y156046836D01*
X7135798Y156046622D01*
X7136791Y156044549D01*
X7137246Y156044775D01*
X7142040Y156035109D01*
X7185480Y155967145D01*
X7188316Y155962574D01*
X7229911Y155893445D01*
X7236437Y155884861D01*
X7236035Y155884556D01*
X7237452Y155882743D01*
X7237845Y155883059D01*
X7244602Y155874651D01*
X7301645Y155817609D01*
X7305401Y155813750D01*
X7360868Y155755195D01*
X7369093Y155748209D01*
X7368763Y155747820D01*
X7384159Y155735095D01*
X8525646Y154593608D01*
X8536601Y154581726D01*
X8569967Y154542444D01*
X8634201Y154493615D01*
X8638445Y154490296D01*
X8701299Y154439772D01*
X8710391Y154433961D01*
X8710117Y154433533D01*
X8712064Y154432325D01*
X8712326Y154432760D01*
X8721565Y154427200D01*
X8769752Y154404907D01*
X8839839Y154350766D01*
X8879495Y154271577D01*
X8880864Y154183024D01*
X8843677Y154102646D01*
X8775297Y154046364D01*
X8689269Y154025324D01*
X8686192Y154025300D01*
X6044259Y154025300D01*
X6028107Y154025957D01*
X5976752Y154030139D01*
X5896840Y154019250D01*
X5891486Y154018594D01*
X5811284Y154009873D01*
X5811277Y154009870D01*
X5800746Y154007553D01*
X5800635Y154008054D01*
X5798408Y154007532D01*
X5798532Y154007035D01*
X5788059Y154004430D01*
X5712313Y153976602D01*
X5707227Y153974811D01*
X5630818Y153949066D01*
X5621028Y153944537D01*
X5620812Y153945003D01*
X5618756Y153944019D01*
X5618985Y153943559D01*
X5609312Y153938761D01*
X5541337Y153895313D01*
X5536758Y153892472D01*
X5467640Y153850885D01*
X5459056Y153844360D01*
X5458748Y153844764D01*
X5456949Y153843358D01*
X5457268Y153842962D01*
X5448855Y153836199D01*
X5391812Y153779156D01*
X5387949Y153775396D01*
X5329395Y153719932D01*
X5322411Y153711709D01*
X5322021Y153712039D01*
X5309292Y153696636D01*
X4523414Y152910758D01*
X4448426Y152863639D01*
X4360419Y152853723D01*
X4276826Y152882974D01*
X4214202Y152945598D01*
X4184951Y153029191D01*
X4183700Y153051472D01*
X4183700Y175640928D01*
X4203407Y175727271D01*
X4241986Y175781642D01*
X10956111Y182495767D01*
X11031099Y182542886D01*
X11119106Y182552802D01*
X11202699Y182523551D01*
X11265323Y182460927D01*
X11269155Y182454568D01*
X11270823Y182451678D01*
X11401355Y182265258D01*
X11562258Y182104355D01*
X11748666Y181973832D01*
X11954909Y181877658D01*
X12174695Y181818767D01*
X12174707Y181818765D01*
X12401400Y181798932D01*
X12628092Y181818765D01*
X12628104Y181818767D01*
X12847890Y181877658D01*
X12885437Y181895167D01*
X13054134Y181973832D01*
X13240539Y182104353D01*
X13240541Y182104355D01*
X13401449Y182265263D01*
X13508389Y182417990D01*
X13574056Y182477415D01*
X13659003Y182502463D01*
X13746406Y182488172D01*
X13818953Y182437375D01*
X13834411Y182417990D01*
X13941350Y182265263D01*
X13941353Y182265261D01*
X14102258Y182104355D01*
X14288666Y181973832D01*
X14494909Y181877658D01*
X14714695Y181818767D01*
X14714707Y181818765D01*
X14941400Y181798932D01*
X15168092Y181818765D01*
X15168104Y181818767D01*
X15387890Y181877658D01*
X15387896Y181877661D01*
X15594134Y181973832D01*
X15780539Y182104353D01*
X15780541Y182104355D01*
X15941449Y182265263D01*
X16048389Y182417990D01*
X16114056Y182477415D01*
X16199003Y182502463D01*
X16286406Y182488172D01*
X16358953Y182437375D01*
X16374411Y182417990D01*
X16481350Y182265263D01*
X16481353Y182265261D01*
X16642258Y182104355D01*
X16828666Y181973832D01*
X17034909Y181877658D01*
X17254695Y181818767D01*
X17254707Y181818765D01*
X17481400Y181798932D01*
X17708092Y181818765D01*
X17708104Y181818767D01*
X17927890Y181877658D01*
X17941404Y181883960D01*
X18134134Y181973832D01*
X18320539Y182104353D01*
X18320541Y182104355D01*
X18481449Y182265263D01*
X18588389Y182417990D01*
X18654056Y182477415D01*
X18739003Y182502463D01*
X18826406Y182488172D01*
X18898953Y182437375D01*
X18914411Y182417990D01*
X19021350Y182265263D01*
X19021353Y182265261D01*
X19182258Y182104355D01*
X19368666Y181973832D01*
X19574909Y181877658D01*
X19794695Y181818767D01*
X19794707Y181818765D01*
X20021400Y181798932D01*
X20248092Y181818765D01*
X20248104Y181818767D01*
X20467890Y181877658D01*
X20481404Y181883960D01*
X20674134Y181973832D01*
X20860539Y182104353D01*
X21021447Y182265261D01*
X21151968Y182451666D01*
X21248139Y182657904D01*
X21248139Y182657905D01*
X21248141Y182657909D01*
X21307032Y182877695D01*
X21307032Y182877699D01*
X21307035Y182877708D01*
X21321900Y183047616D01*
X21321900Y183047622D01*
X21321900Y184161178D01*
X21321900Y184161184D01*
X21307035Y184331092D01*
X21307032Y184331101D01*
X21307032Y184331104D01*
X21248141Y184550890D01*
X21248140Y184550891D01*
X21248139Y184550896D01*
X21151968Y184757134D01*
X21021447Y184943539D01*
X20860539Y185104447D01*
X20674134Y185234968D01*
X20467896Y185331139D01*
X20467271Y185331307D01*
X20248104Y185390032D01*
X20248101Y185390032D01*
X20248092Y185390035D01*
X20021400Y185409868D01*
X19794708Y185390035D01*
X19767400Y185382718D01*
X19574909Y185331141D01*
X19535896Y185312949D01*
X19368666Y185234968D01*
X19182261Y185104447D01*
X19021353Y184943539D01*
X18914410Y184790807D01*
X18848745Y184731384D01*
X18763797Y184706337D01*
X18676394Y184720627D01*
X18603847Y184771424D01*
X18588393Y184790801D01*
X18481447Y184943539D01*
X18320539Y185104447D01*
X18134134Y185234968D01*
X17927896Y185331139D01*
X17917927Y185333811D01*
X17708104Y185390032D01*
X17708101Y185390032D01*
X17708092Y185390035D01*
X17481400Y185409868D01*
X17254708Y185390035D01*
X17231400Y185383790D01*
X17034909Y185331141D01*
X17034904Y185331139D01*
X16828666Y185234968D01*
X16642261Y185104447D01*
X16481353Y184943539D01*
X16374410Y184790807D01*
X16308745Y184731384D01*
X16223797Y184706337D01*
X16136394Y184720627D01*
X16063847Y184771424D01*
X16048393Y184790801D01*
X15941447Y184943539D01*
X15780539Y185104447D01*
X15594134Y185234968D01*
X15387896Y185331139D01*
X15279818Y185360099D01*
X15168104Y185390032D01*
X15168101Y185390032D01*
X15168092Y185390035D01*
X14941400Y185409868D01*
X14714708Y185390035D01*
X14714695Y185390032D01*
X14494909Y185331141D01*
X14494904Y185331139D01*
X14288666Y185234968D01*
X14102261Y185104447D01*
X13941353Y184943539D01*
X13834410Y184790807D01*
X13768745Y184731384D01*
X13683797Y184706337D01*
X13596394Y184720627D01*
X13523847Y184771424D01*
X13508393Y184790801D01*
X13401447Y184943539D01*
X13240539Y185104447D01*
X13054134Y185234968D01*
X12847896Y185331139D01*
X12829201Y185336149D01*
X12628104Y185390032D01*
X12628101Y185390032D01*
X12628092Y185390035D01*
X12401400Y185409868D01*
X12174708Y185390035D01*
X12111373Y185373065D01*
X11954909Y185331141D01*
X11954904Y185331139D01*
X11748666Y185234968D01*
X11562261Y185104447D01*
X11401353Y184943539D01*
X11270832Y184757134D01*
X11195132Y184594797D01*
X11140782Y184524874D01*
X11061474Y184485456D01*
X11014778Y184479900D01*
X10870259Y184479900D01*
X10854107Y184480557D01*
X10802752Y184484739D01*
X10774786Y184480928D01*
X10722807Y184473846D01*
X10717486Y184473194D01*
X10637284Y184464473D01*
X10637277Y184464470D01*
X10626746Y184462153D01*
X10626635Y184462654D01*
X10624408Y184462132D01*
X10624532Y184461635D01*
X10614059Y184459030D01*
X10538313Y184431202D01*
X10533227Y184429411D01*
X10476317Y184410236D01*
X10456820Y184403667D01*
X10456818Y184403666D01*
X10447028Y184399137D01*
X10446812Y184399603D01*
X10444756Y184398619D01*
X10444985Y184398159D01*
X10435312Y184393361D01*
X10367337Y184349913D01*
X10362758Y184347072D01*
X10323529Y184323469D01*
X10293646Y184305489D01*
X10293644Y184305487D01*
X10293640Y184305485D01*
X10285056Y184298960D01*
X10284748Y184299364D01*
X10282949Y184297958D01*
X10283268Y184297562D01*
X10274855Y184290799D01*
X10217812Y184233756D01*
X10213949Y184229996D01*
X10155395Y184174532D01*
X10148411Y184166309D01*
X10148021Y184166639D01*
X10135292Y184151236D01*
X2827614Y176843558D01*
X2752626Y176796439D01*
X2664619Y176786523D01*
X2581026Y176815774D01*
X2518402Y176878398D01*
X2489151Y176961991D01*
X2487900Y176984272D01*
X2487900Y186003700D01*
X2507607Y186090043D01*
G37*
%TD.AperFunction*%
%TA.AperFunction,Conductor*%
G36*
X13296607Y174524629D02*
G01*
X13335186Y174579000D01*
X13401449Y174645263D01*
X13508389Y174797990D01*
X13574056Y174857415D01*
X13659003Y174882463D01*
X13746406Y174868172D01*
X13818953Y174817375D01*
X13834411Y174797990D01*
X13941350Y174645263D01*
X13941353Y174645261D01*
X14102258Y174484355D01*
X14288666Y174353832D01*
X14494909Y174257658D01*
X14714695Y174198767D01*
X14714707Y174198765D01*
X14941400Y174178932D01*
X15168092Y174198765D01*
X15168104Y174198767D01*
X15387890Y174257658D01*
X15387896Y174257661D01*
X15594134Y174353832D01*
X15780539Y174484353D01*
X15941447Y174645261D01*
X16048693Y174798426D01*
X16114359Y174857850D01*
X16199307Y174882897D01*
X16286710Y174868607D01*
X16359257Y174817810D01*
X16374715Y174798427D01*
X16481741Y174645579D01*
X16642581Y174484739D01*
X16828913Y174354267D01*
X16828916Y174354265D01*
X17035078Y174258131D01*
X17231399Y174205527D01*
X17231400Y174205528D01*
X17231400Y175704840D01*
X17273459Y175666122D01*
X17388070Y175615849D01*
X17512795Y175605514D01*
X17634119Y175636237D01*
X17731400Y175699794D01*
X17731400Y174205527D01*
X17927721Y174258131D01*
X18133883Y174354265D01*
X18133886Y174354267D01*
X18320218Y174484739D01*
X18481060Y174645581D01*
X18588084Y174798426D01*
X18653752Y174857850D01*
X18738699Y174882898D01*
X18826102Y174868607D01*
X18898649Y174817809D01*
X18914106Y174798426D01*
X19021354Y174645259D01*
X19182258Y174484355D01*
X19368666Y174353832D01*
X19574909Y174257658D01*
X19794695Y174198767D01*
X19794707Y174198765D01*
X20021400Y174178932D01*
X20248092Y174198765D01*
X20248104Y174198767D01*
X20467890Y174257658D01*
X20481404Y174263960D01*
X20674134Y174353832D01*
X20860539Y174484353D01*
X21021447Y174645261D01*
X21151968Y174831666D01*
X21227667Y174994002D01*
X21282016Y175063925D01*
X21361324Y175103343D01*
X21408021Y175108900D01*
X27907528Y175108900D01*
X27993871Y175089193D01*
X28048242Y175050614D01*
X29603214Y173495642D01*
X29650333Y173420654D01*
X29661500Y173354928D01*
X29661500Y167732672D01*
X29641793Y167646329D01*
X29586574Y167577088D01*
X29506782Y167538661D01*
X29418218Y167538661D01*
X29338426Y167577088D01*
X29321786Y167591958D01*
X29047672Y167866072D01*
X28143005Y168770737D01*
X28095888Y168845723D01*
X28085972Y168933730D01*
X28086938Y168941067D01*
X28121900Y169173018D01*
X28121900Y169435383D01*
X28117012Y169467811D01*
X28082796Y169694815D01*
X28005463Y169945523D01*
X27891628Y170181904D01*
X27743833Y170398679D01*
X27565381Y170591005D01*
X27360257Y170754586D01*
X27133043Y170885768D01*
X26888816Y170981620D01*
X26633030Y171040002D01*
X26371400Y171059608D01*
X26109770Y171040002D01*
X25853984Y170981620D01*
X25609757Y170885768D01*
X25382543Y170754586D01*
X25177419Y170591005D01*
X25175946Y170589417D01*
X25001204Y170401090D01*
X24928029Y170351200D01*
X24840455Y170338000D01*
X24755826Y170364105D01*
X24714616Y170395726D01*
X22093744Y173016598D01*
X22082811Y173028457D01*
X22049431Y173067757D01*
X21985200Y173116583D01*
X21981007Y173119859D01*
X21918097Y173170430D01*
X21918093Y173170432D01*
X21908999Y173176245D01*
X21909277Y173176680D01*
X21907345Y173177878D01*
X21907079Y173177436D01*
X21897834Y173182998D01*
X21897829Y173183002D01*
X21824566Y173216896D01*
X21819797Y173219181D01*
X21747493Y173255041D01*
X21747484Y173255043D01*
X21737358Y173258764D01*
X21737535Y173259247D01*
X21735390Y173260002D01*
X21735226Y173259516D01*
X21725000Y173262961D01*
X21715233Y173265111D01*
X21646139Y173280319D01*
X21641002Y173281523D01*
X21562689Y173301000D01*
X21562682Y173301000D01*
X21552001Y173302456D01*
X21552070Y173302967D01*
X21549798Y173303245D01*
X21549743Y173302733D01*
X21539015Y173303900D01*
X21458334Y173303900D01*
X21452945Y173303973D01*
X21447548Y173304119D01*
X21372327Y173306157D01*
X21372316Y173306154D01*
X21361572Y173305281D01*
X21361530Y173305790D01*
X21341645Y173303900D01*
X13811672Y173303900D01*
X13725329Y173323607D01*
X13670958Y173362186D01*
X13335186Y173697958D01*
X13288067Y173772946D01*
X13276900Y173838672D01*
X13276900Y174438286D01*
X13296607Y174524629D01*
G37*
%TD.AperFunction*%
%TD*%
%TA.AperFunction,Conductor*%
%TO.N,GND*%
G36*
X10910751Y131531453D02*
G01*
X10973192Y131562803D01*
X10995356Y131564800D01*
X30052113Y131564800D01*
X30119152Y131545115D01*
X30164907Y131492311D01*
X30176113Y131440800D01*
X30176113Y77078800D01*
X30156428Y77011761D01*
X30103624Y76966006D01*
X30052113Y76954800D01*
X15660819Y76954800D01*
X15593780Y76974485D01*
X15548025Y77027289D01*
X15538081Y77096447D01*
X15567106Y77160003D01*
X15573138Y77166481D01*
X15907456Y77500799D01*
X15914862Y77507626D01*
X15956463Y77542961D01*
X15956468Y77542968D01*
X15956470Y77542969D01*
X16005926Y77608028D01*
X16007945Y77610612D01*
X16029719Y77637699D01*
X16059143Y77674302D01*
X16059227Y77674472D01*
X16071596Y77694414D01*
X16071715Y77694571D01*
X16106030Y77768743D01*
X16107457Y77771720D01*
X16143754Y77844907D01*
X16143797Y77845081D01*
X16151593Y77867226D01*
X16151675Y77867403D01*
X16169234Y77947179D01*
X16169995Y77950427D01*
X16189713Y78029711D01*
X16189717Y78029884D01*
X16192573Y78053202D01*
X16192613Y78053384D01*
X16192613Y78135063D01*
X16192658Y78138421D01*
X16194870Y78220073D01*
X16194834Y78220255D01*
X16192613Y78243623D01*
X16192613Y78263042D01*
X16212298Y78330081D01*
X16228927Y78350718D01*
X16294493Y78416284D01*
X16355609Y78477400D01*
X16485843Y78663394D01*
X16540420Y78707019D01*
X16609918Y78714213D01*
X16672273Y78682690D01*
X16688993Y78663395D01*
X16819003Y78477722D01*
X16819004Y78477720D01*
X16986030Y78310694D01*
X17179534Y78175199D01*
X17393620Y78075370D01*
X17393626Y78075367D01*
X17607112Y78018164D01*
X17607113Y78018164D01*
X17607113Y79315114D01*
X17647269Y79289307D01*
X17785224Y79248800D01*
X17929002Y79248800D01*
X18066957Y79289307D01*
X18107113Y79315114D01*
X18107113Y78018164D01*
X18320599Y78075367D01*
X18320605Y78075370D01*
X18534690Y78175199D01*
X18534692Y78175200D01*
X18728186Y78310686D01*
X18728192Y78310691D01*
X18895221Y78477720D01*
X18895226Y78477726D01*
X19025232Y78663394D01*
X19079809Y78707019D01*
X19149307Y78714213D01*
X19211662Y78682690D01*
X19228382Y78663395D01*
X19358621Y78477394D01*
X19525710Y78310306D01*
X19525717Y78310301D01*
X19719278Y78174767D01*
X19719282Y78174765D01*
X19862319Y78108066D01*
X19933078Y78075071D01*
X19933448Y78074898D01*
X19933457Y78074894D01*
X20161699Y78013738D01*
X20161709Y78013736D01*
X20397112Y77993141D01*
X20397113Y77993141D01*
X20632516Y78013736D01*
X20632526Y78013738D01*
X20860768Y78074894D01*
X20860772Y78074896D01*
X20860776Y78074897D01*
X20961904Y78122054D01*
X21074941Y78174764D01*
X21074943Y78174765D01*
X21268515Y78310305D01*
X21435607Y78477397D01*
X21565538Y78662958D01*
X21620115Y78706583D01*
X21689613Y78713777D01*
X21751968Y78682254D01*
X21768688Y78662958D01*
X21898618Y78477397D01*
X22065710Y78310306D01*
X22065717Y78310301D01*
X22259278Y78174767D01*
X22259282Y78174765D01*
X22473448Y78074898D01*
X22473457Y78074894D01*
X22701699Y78013738D01*
X22701709Y78013736D01*
X22937112Y77993141D01*
X22937113Y77993141D01*
X23172516Y78013736D01*
X23172526Y78013738D01*
X23400768Y78074894D01*
X23400772Y78074896D01*
X23400776Y78074897D01*
X23480067Y78111871D01*
X23614941Y78174764D01*
X23614943Y78174765D01*
X23808515Y78310305D01*
X23975607Y78477397D01*
X24105538Y78662958D01*
X24160115Y78706583D01*
X24229613Y78713777D01*
X24291968Y78682254D01*
X24308688Y78662958D01*
X24438618Y78477397D01*
X24605710Y78310306D01*
X24605717Y78310301D01*
X24799278Y78174767D01*
X24799282Y78174765D01*
X25013448Y78074898D01*
X25013457Y78074894D01*
X25241699Y78013738D01*
X25241709Y78013736D01*
X25477112Y77993141D01*
X25477113Y77993141D01*
X25712516Y78013736D01*
X25712526Y78013738D01*
X25940768Y78074894D01*
X25940772Y78074896D01*
X25940776Y78074897D01*
X25989468Y78097603D01*
X26154941Y78174764D01*
X26154943Y78174765D01*
X26348515Y78310305D01*
X26515607Y78477397D01*
X26651147Y78670969D01*
X26651148Y78670971D01*
X26751016Y78885137D01*
X26812176Y79113392D01*
X26827612Y79289832D01*
X26827613Y79289833D01*
X26827613Y79289834D01*
X26827613Y80207767D01*
X26827612Y80207767D01*
X26812176Y80384208D01*
X26751016Y80612463D01*
X26651148Y80826629D01*
X26515608Y81020201D01*
X26388930Y81146878D01*
X26355447Y81208199D01*
X26352613Y81234558D01*
X26352613Y83652794D01*
X26372298Y83719833D01*
X26388932Y83740475D01*
X29369456Y86720999D01*
X29376862Y86727826D01*
X29418463Y86763161D01*
X29418468Y86763168D01*
X29418470Y86763169D01*
X29467926Y86828228D01*
X29469945Y86830812D01*
X29480086Y86843427D01*
X29521143Y86894502D01*
X29521227Y86894672D01*
X29533596Y86914614D01*
X29533715Y86914771D01*
X29568030Y86988943D01*
X29569457Y86991920D01*
X29605754Y87065107D01*
X29605797Y87065283D01*
X29613593Y87087426D01*
X29613675Y87087603D01*
X29613676Y87087606D01*
X29625409Y87140912D01*
X29631233Y87167373D01*
X29631994Y87170622D01*
X29651713Y87249910D01*
X29651717Y87250083D01*
X29654573Y87273402D01*
X29654613Y87273584D01*
X29654613Y87355262D01*
X29654658Y87358620D01*
X29656870Y87440273D01*
X29656834Y87440455D01*
X29654613Y87463823D01*
X29654613Y103619579D01*
X29655021Y103629642D01*
X29659452Y103684048D01*
X29648420Y103765006D01*
X29648015Y103768323D01*
X29639186Y103849516D01*
X29639130Y103849681D01*
X29633768Y103872557D01*
X29633744Y103872737D01*
X29605555Y103949460D01*
X29604482Y103952506D01*
X29578380Y104029980D01*
X29578291Y104030128D01*
X29568137Y104051316D01*
X29568074Y104051488D01*
X29524057Y104120350D01*
X29522320Y104123151D01*
X29480202Y104193154D01*
X29480079Y104193283D01*
X29465607Y104211797D01*
X29465603Y104211802D01*
X29465513Y104211944D01*
X29407717Y104269738D01*
X29405482Y104272033D01*
X29349242Y104331407D01*
X29349096Y104331506D01*
X29330991Y104346464D01*
X25499932Y108177525D01*
X25466447Y108238848D01*
X25463613Y108265206D01*
X25463613Y110301100D01*
X25483298Y110368139D01*
X25536102Y110413894D01*
X25587613Y110425100D01*
X26244291Y110425100D01*
X26254355Y110424691D01*
X26308758Y110420260D01*
X26389703Y110431288D01*
X26393033Y110431696D01*
X26474229Y110440527D01*
X26474240Y110440529D01*
X26474419Y110440590D01*
X26497244Y110445940D01*
X26497438Y110445966D01*
X26497450Y110445969D01*
X26574132Y110474140D01*
X26577298Y110475255D01*
X26654689Y110501331D01*
X26654695Y110501334D01*
X26654858Y110501432D01*
X26676012Y110511569D01*
X26676196Y110511636D01*
X26676203Y110511640D01*
X26745052Y110555646D01*
X26747903Y110557415D01*
X26817868Y110599512D01*
X26818005Y110599642D01*
X26836488Y110614092D01*
X26836657Y110614200D01*
X26894452Y110671995D01*
X26896823Y110674302D01*
X26956116Y110730466D01*
X26956117Y110730468D01*
X26956120Y110730471D01*
X26956227Y110730628D01*
X26971178Y110748721D01*
X28099456Y111876999D01*
X28106862Y111883826D01*
X28148463Y111919161D01*
X28148468Y111919168D01*
X28148470Y111919169D01*
X28197926Y111984228D01*
X28199945Y111986812D01*
X28210086Y111999427D01*
X28251143Y112050502D01*
X28251227Y112050672D01*
X28263596Y112070614D01*
X28263715Y112070771D01*
X28298030Y112144943D01*
X28299457Y112147920D01*
X28335754Y112221107D01*
X28335797Y112221283D01*
X28343593Y112243426D01*
X28343675Y112243603D01*
X28343676Y112243606D01*
X28355409Y112296912D01*
X28361233Y112323373D01*
X28361994Y112326622D01*
X28381713Y112405910D01*
X28381717Y112406083D01*
X28384573Y112429402D01*
X28384613Y112429584D01*
X28384613Y112511262D01*
X28384658Y112514620D01*
X28386870Y112596273D01*
X28386834Y112596455D01*
X28384613Y112619823D01*
X28384613Y125936179D01*
X28385021Y125946242D01*
X28389452Y126000648D01*
X28378420Y126081606D01*
X28378015Y126084923D01*
X28369186Y126166116D01*
X28369130Y126166281D01*
X28363768Y126189157D01*
X28363744Y126189337D01*
X28335555Y126266060D01*
X28334482Y126269106D01*
X28308380Y126346580D01*
X28308291Y126346728D01*
X28298137Y126367916D01*
X28298074Y126368088D01*
X28254057Y126436950D01*
X28252320Y126439751D01*
X28210202Y126509754D01*
X28210079Y126509883D01*
X28195607Y126528397D01*
X28195603Y126528402D01*
X28195513Y126528544D01*
X28137717Y126586338D01*
X28135482Y126588633D01*
X28079242Y126648007D01*
X28079096Y126648106D01*
X28060991Y126663064D01*
X24600895Y130123160D01*
X24594092Y130130540D01*
X24558744Y130172157D01*
X24493646Y130221641D01*
X24491062Y130223663D01*
X24478113Y130234072D01*
X24427410Y130274830D01*
X24427251Y130274909D01*
X24407290Y130287289D01*
X24407142Y130287402D01*
X24391710Y130294542D01*
X24332996Y130321705D01*
X24330016Y130323131D01*
X24256806Y130359441D01*
X24256627Y130359485D01*
X24234476Y130367284D01*
X24234310Y130367362D01*
X24154453Y130384939D01*
X24151352Y130385665D01*
X24072003Y130405400D01*
X24071827Y130405404D01*
X24048504Y130408261D01*
X24048329Y130408300D01*
X23966649Y130408300D01*
X23963291Y130408345D01*
X23948755Y130408739D01*
X23881640Y130410557D01*
X23881447Y130410520D01*
X23858088Y130408300D01*
X20183742Y130408300D01*
X20173677Y130408709D01*
X20167680Y130409197D01*
X20119265Y130413140D01*
X20038258Y130402102D01*
X20034962Y130401699D01*
X20021852Y130400273D01*
X19953797Y130392873D01*
X19953622Y130392814D01*
X19930762Y130387456D01*
X19930576Y130387431D01*
X19853903Y130359262D01*
X19850733Y130358146D01*
X19773336Y130332069D01*
X19773331Y130332066D01*
X19773174Y130331972D01*
X19752000Y130321825D01*
X19751823Y130321760D01*
X19682984Y130277759D01*
X19680129Y130275988D01*
X19676591Y130273859D01*
X19610159Y130233889D01*
X19610017Y130233755D01*
X19591532Y130219304D01*
X19591369Y130219200D01*
X19533627Y130161458D01*
X19531222Y130159116D01*
X19525717Y130153901D01*
X19471906Y130102929D01*
X19471798Y130102770D01*
X19456846Y130084677D01*
X18917762Y129545593D01*
X18910371Y129538779D01*
X18868756Y129503431D01*
X18862447Y129495132D01*
X18819326Y129438407D01*
X18817257Y129435761D01*
X18766086Y129372102D01*
X18766081Y129372094D01*
X18765995Y129371920D01*
X18753627Y129351982D01*
X18753511Y129351829D01*
X18719213Y129277697D01*
X18717763Y129274672D01*
X18681475Y129201500D01*
X18681473Y129201496D01*
X18681472Y129201493D01*
X18681470Y129201487D01*
X18681468Y129201480D01*
X18681420Y129201288D01*
X18673638Y129179185D01*
X18673551Y129178998D01*
X18673550Y129178995D01*
X18655988Y129099212D01*
X18655222Y129095945D01*
X18635512Y129016687D01*
X18635507Y129016489D01*
X18632656Y128993213D01*
X18632614Y128993022D01*
X18632613Y128993019D01*
X18632613Y128993016D01*
X18632613Y128993012D01*
X18632613Y128911337D01*
X18632568Y128907979D01*
X18630356Y128826327D01*
X18630391Y128826145D01*
X18632613Y128802777D01*
X18632613Y125509431D01*
X18632204Y125499366D01*
X18627772Y125444954D01*
X18638803Y125363990D01*
X18639211Y125360660D01*
X18648040Y125279480D01*
X18648105Y125279290D01*
X18653454Y125256465D01*
X18653480Y125256269D01*
X18653481Y125256263D01*
X18653482Y125256263D01*
X18655988Y125249442D01*
X18681654Y125179578D01*
X18682767Y125176414D01*
X18708843Y125099026D01*
X18708847Y125099017D01*
X18708954Y125098840D01*
X18719078Y125077711D01*
X18719150Y125077513D01*
X18763139Y125008692D01*
X18764907Y125005842D01*
X18807023Y124935846D01*
X18807027Y124935841D01*
X18807171Y124935690D01*
X18821598Y124917236D01*
X18821710Y124917060D01*
X18821714Y124917055D01*
X18879474Y124859294D01*
X18881814Y124856890D01*
X18932102Y124803803D01*
X18937985Y124797592D01*
X18938149Y124797481D01*
X18956230Y124782537D01*
X20618294Y123120475D01*
X20651779Y123059152D01*
X20654613Y123032794D01*
X20654613Y122984326D01*
X20634928Y122917287D01*
X20583018Y122871944D01*
X20556979Y122859802D01*
X20427379Y122799368D01*
X20317087Y122722141D01*
X20240975Y122668848D01*
X20199559Y122627432D01*
X20149545Y122577418D01*
X20088225Y122543935D01*
X20078605Y122542236D01*
X20048312Y122538109D01*
X20044979Y122537701D01*
X20021851Y122535186D01*
X19963797Y122528873D01*
X19963622Y122528814D01*
X19940762Y122523456D01*
X19940576Y122523431D01*
X19863903Y122495262D01*
X19860733Y122494146D01*
X19783336Y122468069D01*
X19783331Y122468066D01*
X19783174Y122467972D01*
X19762000Y122457825D01*
X19761823Y122457760D01*
X19692984Y122413759D01*
X19690129Y122411988D01*
X19681919Y122407048D01*
X19620159Y122369889D01*
X19620017Y122369755D01*
X19601532Y122355304D01*
X19601463Y122355260D01*
X19601369Y122355200D01*
X19543627Y122297458D01*
X19541222Y122295116D01*
X19540824Y122294739D01*
X19481906Y122238929D01*
X19481798Y122238770D01*
X19466846Y122220677D01*
X17393762Y120147593D01*
X17386371Y120140779D01*
X17344756Y120105431D01*
X17299597Y120046025D01*
X17243357Y120004569D01*
X17173631Y120000099D01*
X17112556Y120034035D01*
X17079525Y120095604D01*
X17078018Y120137814D01*
X17078711Y120142905D01*
X17078713Y120142911D01*
X17078717Y120143084D01*
X17081573Y120166402D01*
X17081613Y120166584D01*
X17081613Y120248263D01*
X17081658Y120251621D01*
X17083870Y120333273D01*
X17083834Y120333455D01*
X17081613Y120356823D01*
X17081613Y124103584D01*
X17081613Y124793179D01*
X17082021Y124803242D01*
X17086452Y124857648D01*
X17075420Y124938606D01*
X17075015Y124941923D01*
X17066186Y125023116D01*
X17066130Y125023281D01*
X17060768Y125046157D01*
X17060744Y125046337D01*
X17032555Y125123060D01*
X17031482Y125126106D01*
X17005380Y125203580D01*
X17005291Y125203728D01*
X16995137Y125224916D01*
X16995074Y125225088D01*
X16951057Y125293950D01*
X16949320Y125296751D01*
X16907202Y125366754D01*
X16907079Y125366883D01*
X16892607Y125385397D01*
X16892603Y125385402D01*
X16892513Y125385544D01*
X16834717Y125443338D01*
X16832482Y125445633D01*
X16776242Y125505007D01*
X16776096Y125505106D01*
X16757991Y125520064D01*
X15664610Y126613445D01*
X15631127Y126674766D01*
X15631379Y126724512D01*
X15630817Y126724597D01*
X15631399Y126728462D01*
X15631401Y126728713D01*
X15631507Y126729181D01*
X15631509Y126729185D01*
X15670613Y126988618D01*
X15670613Y127250982D01*
X15631509Y127510415D01*
X15554176Y127761123D01*
X15461306Y127953970D01*
X15440345Y127997496D01*
X15440344Y127997496D01*
X15440341Y127997504D01*
X15292546Y128214279D01*
X15114094Y128406605D01*
X14908970Y128570186D01*
X14681756Y128701368D01*
X14437529Y128797220D01*
X14181743Y128855602D01*
X14148688Y128858079D01*
X13920117Y128875208D01*
X13920108Y128875208D01*
X13658490Y128855603D01*
X13658486Y128855602D01*
X13658483Y128855602D01*
X13533128Y128826990D01*
X13463390Y128831263D01*
X13417857Y128860198D01*
X11062695Y131215360D01*
X11055892Y131222740D01*
X11020544Y131264357D01*
X10955445Y131313842D01*
X10952918Y131315818D01*
X10917664Y131344156D01*
X10877749Y131401499D01*
X10875171Y131471321D01*
X10910751Y131531453D01*
G37*
%TD.AperFunction*%
%TA.AperFunction,Conductor*%
G36*
X15823297Y81559165D02*
G01*
X15876462Y81604499D01*
X15927077Y81615300D01*
X16169304Y81615300D01*
X16169313Y81615301D01*
X16206631Y81623817D01*
X16220330Y81626145D01*
X16258373Y81630433D01*
X16294493Y81643071D01*
X16307848Y81646919D01*
X16345174Y81655439D01*
X16379667Y81672050D01*
X16392510Y81677370D01*
X16428638Y81690012D01*
X16461040Y81710372D01*
X16473206Y81717096D01*
X16507702Y81733710D01*
X16537623Y81757571D01*
X16548962Y81765617D01*
X16581372Y81785982D01*
X16581375Y81785984D01*
X17727174Y82931783D01*
X17788497Y82965268D01*
X17858189Y82960284D01*
X17914122Y82918412D01*
X17926574Y82897906D01*
X17937021Y82876213D01*
X17937021Y82876212D01*
X17960886Y82846286D01*
X17968929Y82834951D01*
X17989296Y82802538D01*
X18021287Y82770548D01*
X18116851Y82674984D01*
X18116853Y82674982D01*
X19477444Y81314389D01*
X19510929Y81253066D01*
X19505945Y81183374D01*
X19477445Y81139028D01*
X19358618Y81020201D01*
X19358617Y81020200D01*
X19358616Y81020199D01*
X19228382Y80834205D01*
X19173805Y80790580D01*
X19104307Y80783386D01*
X19041952Y80814909D01*
X19025232Y80834205D01*
X18895226Y81019873D01*
X18895221Y81019879D01*
X18728195Y81186905D01*
X18534691Y81322400D01*
X18320605Y81422229D01*
X18320599Y81422232D01*
X18107113Y81479436D01*
X18107113Y80182486D01*
X18066957Y80208293D01*
X17929002Y80248800D01*
X17785224Y80248800D01*
X17647269Y80208293D01*
X17607113Y80182486D01*
X17607113Y81479436D01*
X17607112Y81479435D01*
X17393626Y81422232D01*
X17393620Y81422229D01*
X17179535Y81322400D01*
X17179533Y81322399D01*
X16986039Y81186913D01*
X16986033Y81186908D01*
X16819004Y81019879D01*
X16818999Y81019873D01*
X16688993Y80834204D01*
X16634416Y80790579D01*
X16564918Y80783385D01*
X16502563Y80814908D01*
X16485847Y80834198D01*
X16355608Y81020201D01*
X16188514Y81187295D01*
X15994943Y81322835D01*
X15874670Y81378918D01*
X15822233Y81425090D01*
X15803081Y81492284D01*
X15823297Y81559165D01*
G37*
%TD.AperFunction*%
%TA.AperFunction,Conductor*%
G36*
X6306298Y109627833D02*
G01*
X6322932Y109648475D01*
X7007438Y110332981D01*
X7068761Y110366466D01*
X7095119Y110369300D01*
X8172106Y110369300D01*
X8239145Y110349615D01*
X8259787Y110332981D01*
X12510314Y106082453D01*
X12517139Y106075050D01*
X12552483Y106033441D01*
X12617518Y105984003D01*
X12620163Y105981935D01*
X12683814Y105930770D01*
X12683817Y105930768D01*
X12683998Y105930679D01*
X12703909Y105918329D01*
X12704077Y105918200D01*
X12704083Y105918197D01*
X12729921Y105906243D01*
X12782498Y105860228D01*
X12801850Y105793092D01*
X12781835Y105726150D01*
X12755166Y105696759D01*
X12726128Y105673602D01*
X12547680Y105481279D01*
X12529761Y105454997D01*
X12399885Y105264504D01*
X12399883Y105264500D01*
X12399881Y105264497D01*
X12399880Y105264496D01*
X12286051Y105028125D01*
X12286051Y105028127D01*
X12208719Y104777423D01*
X12208718Y104777419D01*
X12208717Y104777415D01*
X12189147Y104647579D01*
X12169613Y104517987D01*
X12169613Y104517982D01*
X12169613Y104255618D01*
X12169613Y104255612D01*
X12193966Y104094047D01*
X12208717Y103996185D01*
X12208718Y103996182D01*
X12208719Y103996176D01*
X12286051Y103745473D01*
X12399880Y103509103D01*
X12399881Y103509102D01*
X12547680Y103292320D01*
X12726127Y103099998D01*
X12931253Y102936416D01*
X13058766Y102862796D01*
X13106981Y102812229D01*
X13117004Y102779149D01*
X13118065Y102779391D01*
X13119613Y102772607D01*
X13119613Y102772606D01*
X13121427Y102764655D01*
X13128131Y102735278D01*
X13130458Y102721581D01*
X13134745Y102683543D01*
X13147384Y102647421D01*
X13151231Y102634069D01*
X13159754Y102596735D01*
X13176364Y102562240D01*
X13181681Y102549405D01*
X13194323Y102513280D01*
X13194325Y102513276D01*
X13214688Y102480867D01*
X13221410Y102468703D01*
X13238018Y102434217D01*
X13261890Y102404282D01*
X13269933Y102392945D01*
X13290294Y102360541D01*
X13290295Y102360539D01*
X15750294Y99900541D01*
X15783779Y99839218D01*
X15786613Y99812860D01*
X15786613Y99386234D01*
X15766928Y99319195D01*
X15714124Y99273440D01*
X15644966Y99263496D01*
X15581410Y99292521D01*
X15550231Y99333829D01*
X15548025Y99338560D01*
X15490681Y99461534D01*
X15360160Y99647939D01*
X15199252Y99808847D01*
X15012847Y99939368D01*
X14806609Y100035539D01*
X14586805Y100094435D01*
X14416897Y100109300D01*
X13403329Y100109300D01*
X13233421Y100094435D01*
X13050105Y100045316D01*
X13013624Y100035541D01*
X13013615Y100035538D01*
X12807379Y99939368D01*
X12620974Y99808847D01*
X12620971Y99808845D01*
X12522745Y99710619D01*
X12461422Y99677134D01*
X12435064Y99674300D01*
X10935379Y99674300D01*
X10868340Y99693985D01*
X10832928Y99728444D01*
X10720546Y99893279D01*
X10553410Y100073409D01*
X10542098Y100085601D01*
X10542096Y100085601D01*
X10542094Y100085605D01*
X10336970Y100249186D01*
X10285612Y100278837D01*
X10237397Y100329404D01*
X10223613Y100386224D01*
X10223613Y100416794D01*
X10243298Y100483833D01*
X10259932Y100504475D01*
X10639569Y100884112D01*
X10646975Y100890939D01*
X10688579Y100926277D01*
X10688583Y100926282D01*
X10738045Y100991347D01*
X10740081Y100993952D01*
X10791256Y101057617D01*
X10791338Y101057783D01*
X10803711Y101077730D01*
X10803828Y101077884D01*
X10838151Y101152074D01*
X10839582Y101155060D01*
X10841020Y101157958D01*
X10875865Y101228214D01*
X10875865Y101228217D01*
X10875867Y101228220D01*
X10875910Y101228396D01*
X10883705Y101250538D01*
X10883788Y101250716D01*
X10883788Y101250718D01*
X10883789Y101250718D01*
X10901343Y101330468D01*
X10902109Y101333738D01*
X10921827Y101413024D01*
X10921832Y101413214D01*
X10924686Y101436518D01*
X10924726Y101436697D01*
X10924726Y101518360D01*
X10924771Y101521717D01*
X10926983Y101603386D01*
X10926947Y101603568D01*
X10924726Y101626936D01*
X10924726Y102646148D01*
X10944411Y102713187D01*
X10944411Y102713188D01*
X11020544Y102831652D01*
X11031839Y102849228D01*
X11109951Y103044343D01*
X11129838Y103147529D01*
X11149726Y103250714D01*
X11149726Y103250715D01*
X11149726Y104708219D01*
X11149726Y104708225D01*
X11134754Y104865018D01*
X11075542Y105066675D01*
X10979237Y105253482D01*
X10947710Y105293572D01*
X10925746Y105321501D01*
X10849318Y105418686D01*
X10690482Y105556319D01*
X10688583Y105557416D01*
X10542098Y105641989D01*
X10508470Y105661404D01*
X10309859Y105730144D01*
X10101828Y105760054D01*
X9891896Y105750054D01*
X9687650Y105700504D01*
X9648132Y105682457D01*
X9496482Y105613201D01*
X9496477Y105613198D01*
X9496476Y105613197D01*
X9496473Y105613196D01*
X9325274Y105491286D01*
X9325272Y105491284D01*
X9325266Y105491279D01*
X9180240Y105339179D01*
X9153398Y105297412D01*
X9100594Y105251657D01*
X9031436Y105241714D01*
X8967880Y105270739D01*
X8951612Y105287800D01*
X8848952Y105418342D01*
X8690195Y105555905D01*
X8690184Y105555914D01*
X8508265Y105660944D01*
X8508258Y105660947D01*
X8309743Y105729655D01*
X8309741Y105729655D01*
X8299226Y105731168D01*
X8299226Y104285360D01*
X8257167Y104324078D01*
X8142556Y104374351D01*
X8017831Y104384686D01*
X7896507Y104353963D01*
X7799226Y104290406D01*
X7799226Y105727057D01*
X7687816Y105700029D01*
X7496718Y105612759D01*
X7325606Y105490910D01*
X7325600Y105490904D01*
X7180633Y105338867D01*
X7067059Y105162142D01*
X6988981Y104967114D01*
X6949226Y104760838D01*
X6949226Y104255800D01*
X7768608Y104255800D01*
X7714863Y104186748D01*
X7674226Y104068376D01*
X7674226Y103974727D01*
X7689640Y103882354D01*
X7749207Y103772286D01*
X7767115Y103755800D01*
X6949226Y103755800D01*
X6949226Y103303402D01*
X6964191Y103146677D01*
X6964192Y103146673D01*
X7023375Y102945113D01*
X7119639Y102758385D01*
X7249494Y102593262D01*
X7249497Y102593259D01*
X7408256Y102455694D01*
X7408267Y102455685D01*
X7590186Y102350655D01*
X7590193Y102350652D01*
X7788708Y102281944D01*
X7788710Y102281944D01*
X7799226Y102280432D01*
X7799226Y103726240D01*
X7841285Y103687522D01*
X7955896Y103637249D01*
X8080621Y103626914D01*
X8201945Y103657637D01*
X8299226Y103721194D01*
X8299226Y102284542D01*
X8410635Y102311570D01*
X8601733Y102398840D01*
X8772845Y102520689D01*
X8772851Y102520695D01*
X8917818Y102672732D01*
X8944440Y102714157D01*
X8997244Y102759912D01*
X9066403Y102769856D01*
X9129958Y102740831D01*
X9146213Y102723787D01*
X9147183Y102722554D01*
X9173162Y102657694D01*
X9173726Y102645885D01*
X9173726Y101945919D01*
X9154041Y101878880D01*
X9137407Y101858238D01*
X8757762Y101478593D01*
X8750371Y101471779D01*
X8708756Y101436431D01*
X8693030Y101415744D01*
X8659326Y101371407D01*
X8657257Y101368761D01*
X8606086Y101305102D01*
X8606081Y101305094D01*
X8605995Y101304920D01*
X8593627Y101284982D01*
X8593511Y101284829D01*
X8559213Y101210697D01*
X8557763Y101207672D01*
X8521475Y101134500D01*
X8521473Y101134496D01*
X8521472Y101134493D01*
X8521470Y101134487D01*
X8521468Y101134480D01*
X8521420Y101134288D01*
X8513638Y101112185D01*
X8513551Y101111998D01*
X8513550Y101111995D01*
X8495988Y101032212D01*
X8495222Y101028945D01*
X8475512Y100949687D01*
X8475507Y100949489D01*
X8472656Y100926213D01*
X8472614Y100926022D01*
X8472613Y100926019D01*
X8472613Y100926016D01*
X8472613Y100926012D01*
X8472613Y100844337D01*
X8472568Y100840979D01*
X8470356Y100759327D01*
X8470391Y100759145D01*
X8472613Y100735777D01*
X8472613Y100386224D01*
X8452928Y100319185D01*
X8410613Y100278837D01*
X8408812Y100277797D01*
X8359256Y100249186D01*
X8154132Y100085605D01*
X8154131Y100085604D01*
X8154127Y100085601D01*
X7975680Y99893279D01*
X7955896Y99864261D01*
X7827885Y99676504D01*
X7827883Y99676500D01*
X7827881Y99676497D01*
X7827880Y99676496D01*
X7714051Y99440125D01*
X7714051Y99440127D01*
X7636719Y99189423D01*
X7636718Y99189419D01*
X7636717Y99189415D01*
X7616027Y99052149D01*
X7597613Y98929987D01*
X7597613Y98929982D01*
X7597613Y98667618D01*
X7597613Y98667612D01*
X7621966Y98506047D01*
X7636717Y98408185D01*
X7636718Y98408182D01*
X7636719Y98408176D01*
X7714051Y98157473D01*
X7827880Y97921103D01*
X7827881Y97921102D01*
X7827884Y97921096D01*
X7827885Y97921096D01*
X7841285Y97901442D01*
X7975680Y97704320D01*
X8154127Y97511998D01*
X8359253Y97348416D01*
X8359256Y97348414D01*
X8383589Y97334366D01*
X8409971Y97319134D01*
X8458186Y97268566D01*
X8470835Y97228485D01*
X8478801Y97170012D01*
X8479209Y97166682D01*
X8488040Y97085480D01*
X8488105Y97085290D01*
X8493454Y97062465D01*
X8493480Y97062269D01*
X8493481Y97062263D01*
X8493482Y97062263D01*
X8495988Y97055442D01*
X8521654Y96985578D01*
X8522767Y96982414D01*
X8548843Y96905026D01*
X8548847Y96905017D01*
X8548954Y96904840D01*
X8559078Y96883711D01*
X8559150Y96883513D01*
X8603139Y96814692D01*
X8604907Y96811842D01*
X8647023Y96741846D01*
X8647027Y96741841D01*
X8647171Y96741690D01*
X8661598Y96723236D01*
X8661710Y96723060D01*
X8661714Y96723055D01*
X8719474Y96665294D01*
X8721814Y96662890D01*
X8777985Y96603592D01*
X8778149Y96603481D01*
X8796230Y96588537D01*
X10722294Y94662475D01*
X10755779Y94601152D01*
X10758613Y94574794D01*
X10758613Y92547465D01*
X10738928Y92480426D01*
X10686124Y92434671D01*
X10616966Y92424727D01*
X10553410Y92453752D01*
X10543714Y92463124D01*
X10541753Y92465236D01*
X10541752Y92465237D01*
X10336686Y92628771D01*
X10109539Y92759916D01*
X9865383Y92855741D01*
X9609671Y92914104D01*
X9609664Y92914105D01*
X9598113Y92914972D01*
X9598113Y91458360D01*
X9556054Y91497078D01*
X9441443Y91547351D01*
X9316718Y91557686D01*
X9195394Y91526963D01*
X9098113Y91463406D01*
X9098113Y92914971D01*
X9086561Y92914105D01*
X9086554Y92914104D01*
X8830842Y92855741D01*
X8586686Y92759916D01*
X8586686Y92759917D01*
X8359539Y92628771D01*
X8154473Y92465237D01*
X8154464Y92465229D01*
X7976072Y92272969D01*
X7976071Y92272967D01*
X7828319Y92056254D01*
X7828314Y92056245D01*
X7714517Y91819942D01*
X7714517Y91819944D01*
X7637207Y91569312D01*
X7637206Y91569306D01*
X7616027Y91428800D01*
X9067495Y91428800D01*
X9013750Y91359748D01*
X8973113Y91241376D01*
X8973113Y91147727D01*
X8988527Y91055354D01*
X9048094Y90945286D01*
X9066002Y90928800D01*
X7616027Y90928800D01*
X7637206Y90788293D01*
X7637207Y90788287D01*
X7714517Y90537658D01*
X7714518Y90537654D01*
X7828317Y90301350D01*
X7828319Y90301346D01*
X7976071Y90084632D01*
X7976072Y90084630D01*
X8154464Y89892370D01*
X8154473Y89892362D01*
X8359539Y89728828D01*
X8586686Y89597683D01*
X8830842Y89501858D01*
X9086554Y89443495D01*
X9086561Y89443494D01*
X9098113Y89442628D01*
X9098113Y90899240D01*
X9140172Y90860522D01*
X9254783Y90810249D01*
X9379508Y90799914D01*
X9500832Y90830637D01*
X9598113Y90894194D01*
X9598113Y89442628D01*
X9609664Y89443494D01*
X9609671Y89443495D01*
X9865383Y89501858D01*
X10109539Y89597683D01*
X10109539Y89597682D01*
X10336686Y89728828D01*
X10541752Y89892362D01*
X10541753Y89892363D01*
X10543714Y89894476D01*
X10544598Y89895003D01*
X10545156Y89895520D01*
X10545266Y89895400D01*
X10603742Y89930231D01*
X10673571Y89927856D01*
X10731031Y89888106D01*
X10757880Y89823601D01*
X10758613Y89810135D01*
X10758613Y88552418D01*
X10758204Y88542353D01*
X10753773Y88487953D01*
X10753774Y88487947D01*
X10764801Y88407012D01*
X10765209Y88403681D01*
X10774040Y88322480D01*
X10774105Y88322290D01*
X10779454Y88299465D01*
X10779480Y88299269D01*
X10779481Y88299263D01*
X10779482Y88299263D01*
X10787893Y88276367D01*
X10807654Y88222578D01*
X10808767Y88219414D01*
X10834843Y88142026D01*
X10834847Y88142017D01*
X10834954Y88141840D01*
X10845078Y88120711D01*
X10845150Y88120513D01*
X10889139Y88051692D01*
X10890907Y88048842D01*
X10933023Y87978846D01*
X10933027Y87978841D01*
X10933171Y87978690D01*
X10947598Y87960236D01*
X10947710Y87960060D01*
X10947714Y87960055D01*
X11005474Y87902294D01*
X11007814Y87899890D01*
X11063985Y87840592D01*
X11064149Y87840481D01*
X11082230Y87825537D01*
X12156254Y86751513D01*
X12189739Y86690190D01*
X12189147Y86634886D01*
X12182661Y86607870D01*
X12182660Y86607868D01*
X12182660Y86607866D01*
X12162587Y86352800D01*
X12182660Y86097735D01*
X12182660Y86097731D01*
X12182661Y86097730D01*
X12209409Y85986318D01*
X12242392Y85848935D01*
X12340301Y85612560D01*
X12340303Y85612557D01*
X12473988Y85394403D01*
X12473991Y85394398D01*
X12617518Y85226351D01*
X12640157Y85199844D01*
X12683998Y85162401D01*
X12686118Y85160590D01*
X12724311Y85102083D01*
X12724809Y85032215D01*
X12687456Y84973169D01*
X12624109Y84943691D01*
X12605586Y84942300D01*
X12182742Y84942300D01*
X12172677Y84942709D01*
X12118265Y84947140D01*
X12037258Y84936102D01*
X12033962Y84935699D01*
X11970440Y84928791D01*
X11952797Y84926873D01*
X11952622Y84926814D01*
X11929762Y84921456D01*
X11929576Y84921431D01*
X11852903Y84893262D01*
X11849733Y84892146D01*
X11772336Y84866069D01*
X11772331Y84866066D01*
X11772174Y84865972D01*
X11751000Y84855825D01*
X11750823Y84855760D01*
X11681984Y84811759D01*
X11679129Y84809988D01*
X11609162Y84767891D01*
X11609161Y84767890D01*
X11609159Y84767889D01*
X11609017Y84767755D01*
X11590532Y84753304D01*
X11590369Y84753200D01*
X11532627Y84695458D01*
X11530222Y84693116D01*
X11529824Y84692739D01*
X11470906Y84636929D01*
X11470798Y84636770D01*
X11455846Y84618677D01*
X10916762Y84079593D01*
X10909371Y84072779D01*
X10867756Y84037431D01*
X10849318Y84013176D01*
X10818326Y83972407D01*
X10816257Y83969761D01*
X10765086Y83906102D01*
X10765081Y83906094D01*
X10764995Y83905920D01*
X10752627Y83885982D01*
X10752511Y83885829D01*
X10718213Y83811697D01*
X10716763Y83808672D01*
X10680475Y83735500D01*
X10680473Y83735496D01*
X10680472Y83735493D01*
X10680470Y83735487D01*
X10680468Y83735480D01*
X10680420Y83735288D01*
X10672638Y83713185D01*
X10672551Y83712998D01*
X10672550Y83712995D01*
X10654988Y83633212D01*
X10654222Y83629945D01*
X10634512Y83550687D01*
X10634507Y83550489D01*
X10631656Y83527213D01*
X10631614Y83527022D01*
X10631613Y83527019D01*
X10631613Y83527016D01*
X10631613Y83527012D01*
X10631613Y83445337D01*
X10631568Y83441979D01*
X10629356Y83360327D01*
X10629391Y83360145D01*
X10631613Y83336777D01*
X10631613Y81813806D01*
X10611928Y81746767D01*
X10595294Y81726125D01*
X10404787Y81535618D01*
X10343464Y81502133D01*
X10317106Y81499299D01*
X10157119Y81499299D01*
X10090080Y81518984D01*
X10069438Y81535618D01*
X6322932Y85282125D01*
X6289447Y85343448D01*
X6286613Y85369806D01*
X6286613Y86384584D01*
X6286613Y109560794D01*
X6306298Y109627833D01*
G37*
%TD.AperFunction*%
%TA.AperFunction,Conductor*%
G36*
X4731498Y128804833D02*
G01*
X4748132Y128825475D01*
X5635838Y129713181D01*
X5697161Y129746666D01*
X5723519Y129749500D01*
X10000906Y129749500D01*
X10067945Y129729815D01*
X10088587Y129713181D01*
X12175613Y127626154D01*
X12209098Y127564831D01*
X12208847Y127515087D01*
X12209409Y127515003D01*
X12208827Y127511143D01*
X12208826Y127510891D01*
X12208717Y127510415D01*
X12169613Y127250987D01*
X12169613Y127250982D01*
X12169613Y126988618D01*
X12169613Y126988612D01*
X12193966Y126827047D01*
X12208717Y126729185D01*
X12208718Y126729182D01*
X12208719Y126729176D01*
X12286051Y126478473D01*
X12399880Y126242103D01*
X12399881Y126242102D01*
X12547680Y126025320D01*
X12726127Y125832998D01*
X12931256Y125669414D01*
X13158469Y125538232D01*
X13402691Y125442382D01*
X13402710Y125442376D01*
X13658487Y125383997D01*
X13658492Y125383996D01*
X13920108Y125364392D01*
X13920117Y125364392D01*
X14181733Y125383996D01*
X14181738Y125383997D01*
X14181742Y125383997D01*
X14181743Y125383998D01*
X14272127Y125404628D01*
X14307095Y125412609D01*
X14376833Y125408336D01*
X14422368Y125379399D01*
X15294294Y124507475D01*
X15327779Y124446152D01*
X15330613Y124419794D01*
X15330613Y122815068D01*
X15310928Y122748029D01*
X15258124Y122702274D01*
X15188966Y122692330D01*
X15135490Y122713493D01*
X15114098Y122728472D01*
X15012847Y122799368D01*
X14806609Y122895539D01*
X14586805Y122954435D01*
X14416897Y122969300D01*
X13403329Y122969300D01*
X13233421Y122954435D01*
X13050105Y122905316D01*
X13013624Y122895541D01*
X13013615Y122895538D01*
X12807379Y122799368D01*
X12620974Y122668847D01*
X12620971Y122668845D01*
X12532745Y122580619D01*
X12471422Y122547134D01*
X12445064Y122544300D01*
X11003660Y122544300D01*
X10936621Y122563985D01*
X10891940Y122614497D01*
X10868341Y122663504D01*
X10720546Y122880279D01*
X10553410Y123060409D01*
X10542098Y123072601D01*
X10542096Y123072601D01*
X10542094Y123072605D01*
X10336970Y123236186D01*
X10285612Y123265837D01*
X10237397Y123316404D01*
X10223613Y123373224D01*
X10223613Y123657794D01*
X10243298Y123724833D01*
X10259932Y123745475D01*
X10639569Y124125112D01*
X10646975Y124131939D01*
X10688579Y124167277D01*
X10688583Y124167282D01*
X10738045Y124232347D01*
X10740081Y124234952D01*
X10791256Y124298617D01*
X10791338Y124298783D01*
X10803711Y124318730D01*
X10803828Y124318884D01*
X10838151Y124393074D01*
X10839582Y124396060D01*
X10841020Y124398958D01*
X10875865Y124469214D01*
X10875865Y124469217D01*
X10875867Y124469220D01*
X10875910Y124469396D01*
X10883705Y124491538D01*
X10883788Y124491716D01*
X10883788Y124491718D01*
X10883789Y124491718D01*
X10901343Y124571468D01*
X10902109Y124574738D01*
X10921827Y124654024D01*
X10921832Y124654214D01*
X10924686Y124677518D01*
X10924726Y124677697D01*
X10924726Y124759360D01*
X10924771Y124762717D01*
X10926983Y124844386D01*
X10926947Y124844568D01*
X10924726Y124867936D01*
X10924726Y125506148D01*
X10944411Y125573187D01*
X10944411Y125573188D01*
X11020544Y125691652D01*
X11031839Y125709228D01*
X11109951Y125904343D01*
X11129838Y126007529D01*
X11149726Y126110714D01*
X11149726Y126110715D01*
X11149726Y127568219D01*
X11149726Y127568225D01*
X11134754Y127725018D01*
X11075542Y127926675D01*
X10979237Y128113482D01*
X10947710Y128153572D01*
X10925746Y128181501D01*
X10849318Y128278686D01*
X10690482Y128416319D01*
X10688583Y128417416D01*
X10542098Y128501989D01*
X10508470Y128521404D01*
X10309859Y128590144D01*
X10101828Y128620054D01*
X9891896Y128610054D01*
X9687650Y128560504D01*
X9648132Y128542457D01*
X9496482Y128473201D01*
X9496477Y128473198D01*
X9496476Y128473197D01*
X9496473Y128473196D01*
X9325274Y128351286D01*
X9325272Y128351284D01*
X9325266Y128351279D01*
X9180240Y128199179D01*
X9153398Y128157412D01*
X9100594Y128111657D01*
X9031436Y128101714D01*
X8967880Y128130739D01*
X8951612Y128147800D01*
X8848952Y128278342D01*
X8690195Y128415905D01*
X8690184Y128415914D01*
X8508265Y128520944D01*
X8508258Y128520947D01*
X8309743Y128589655D01*
X8309741Y128589655D01*
X8299226Y128591168D01*
X8299226Y127145360D01*
X8257167Y127184078D01*
X8142556Y127234351D01*
X8017831Y127244686D01*
X7896507Y127213963D01*
X7799226Y127150406D01*
X7799226Y128587057D01*
X7687816Y128560029D01*
X7496718Y128472759D01*
X7325606Y128350910D01*
X7325600Y128350904D01*
X7180633Y128198867D01*
X7067059Y128022142D01*
X6988981Y127827114D01*
X6949226Y127620838D01*
X6949226Y127115800D01*
X7768608Y127115800D01*
X7714863Y127046748D01*
X7674226Y126928376D01*
X7674226Y126834727D01*
X7689640Y126742354D01*
X7749207Y126632286D01*
X7767115Y126615800D01*
X6949226Y126615800D01*
X6949226Y126163402D01*
X6964191Y126006677D01*
X6964192Y126006673D01*
X7023375Y125805113D01*
X7119639Y125618385D01*
X7249494Y125453262D01*
X7249497Y125453259D01*
X7408256Y125315694D01*
X7408267Y125315685D01*
X7590186Y125210655D01*
X7590193Y125210652D01*
X7788708Y125141944D01*
X7788710Y125141944D01*
X7799226Y125140432D01*
X7799226Y126586240D01*
X7841285Y126547522D01*
X7955896Y126497249D01*
X8080621Y126486914D01*
X8201945Y126517637D01*
X8299226Y126581194D01*
X8299226Y125144542D01*
X8410635Y125171570D01*
X8601733Y125258840D01*
X8772845Y125380689D01*
X8772851Y125380695D01*
X8917818Y125532732D01*
X8944440Y125574157D01*
X8997244Y125619912D01*
X9066403Y125629856D01*
X9129958Y125600831D01*
X9146213Y125583787D01*
X9147183Y125582554D01*
X9173162Y125517694D01*
X9173726Y125505885D01*
X9173726Y125186919D01*
X9154041Y125119880D01*
X9137407Y125099238D01*
X8757762Y124719593D01*
X8750371Y124712779D01*
X8708756Y124677431D01*
X8693030Y124656744D01*
X8659326Y124612407D01*
X8657257Y124609761D01*
X8606086Y124546102D01*
X8606081Y124546094D01*
X8605995Y124545920D01*
X8593627Y124525982D01*
X8593511Y124525829D01*
X8559213Y124451697D01*
X8557763Y124448672D01*
X8521475Y124375500D01*
X8521473Y124375496D01*
X8521472Y124375493D01*
X8521470Y124375487D01*
X8521468Y124375480D01*
X8521420Y124375288D01*
X8513638Y124353185D01*
X8513551Y124352998D01*
X8513550Y124352995D01*
X8495988Y124273212D01*
X8495222Y124269945D01*
X8475512Y124190687D01*
X8475507Y124190489D01*
X8472656Y124167213D01*
X8472614Y124167022D01*
X8472613Y124167019D01*
X8472613Y124167016D01*
X8472613Y124167012D01*
X8472613Y124085337D01*
X8472568Y124081979D01*
X8470356Y124000327D01*
X8470391Y124000145D01*
X8472613Y123976777D01*
X8472613Y123373224D01*
X8452928Y123306185D01*
X8410613Y123265837D01*
X8408812Y123264797D01*
X8359256Y123236186D01*
X8154132Y123072605D01*
X8154131Y123072604D01*
X8154127Y123072601D01*
X7975680Y122880279D01*
X7955896Y122851261D01*
X7827885Y122663504D01*
X7827883Y122663500D01*
X7827881Y122663497D01*
X7827880Y122663496D01*
X7714051Y122427125D01*
X7714051Y122427127D01*
X7636719Y122176423D01*
X7636718Y122176419D01*
X7636717Y122176415D01*
X7616027Y122039149D01*
X7597613Y121916987D01*
X7597613Y121916982D01*
X7597613Y121654618D01*
X7597613Y121654612D01*
X7621966Y121493047D01*
X7636717Y121395185D01*
X7636718Y121395182D01*
X7636719Y121395176D01*
X7714051Y121144473D01*
X7827880Y120908103D01*
X7827881Y120908102D01*
X7827884Y120908096D01*
X7827885Y120908096D01*
X7841285Y120888442D01*
X7975680Y120691320D01*
X8154127Y120498998D01*
X8359253Y120335416D01*
X8359256Y120335414D01*
X8383589Y120321366D01*
X8409971Y120306134D01*
X8458186Y120255566D01*
X8470835Y120215485D01*
X8478801Y120157012D01*
X8479209Y120153682D01*
X8488040Y120072480D01*
X8488105Y120072290D01*
X8493454Y120049465D01*
X8493480Y120049269D01*
X8493481Y120049263D01*
X8493482Y120049263D01*
X8495988Y120042442D01*
X8521654Y119972578D01*
X8522767Y119969414D01*
X8548843Y119892026D01*
X8548847Y119892017D01*
X8548954Y119891840D01*
X8559078Y119870711D01*
X8559150Y119870513D01*
X8603139Y119801692D01*
X8604907Y119798842D01*
X8647023Y119728846D01*
X8647027Y119728841D01*
X8647171Y119728690D01*
X8661598Y119710236D01*
X8661710Y119710060D01*
X8661714Y119710055D01*
X8719474Y119652294D01*
X8721814Y119649890D01*
X8777985Y119590592D01*
X8778149Y119590481D01*
X8796230Y119575537D01*
X10722294Y117649475D01*
X10755779Y117588152D01*
X10758613Y117561794D01*
X10758613Y115534465D01*
X10738928Y115467426D01*
X10686124Y115421671D01*
X10616966Y115411727D01*
X10553410Y115440752D01*
X10543714Y115450124D01*
X10541753Y115452236D01*
X10541752Y115452237D01*
X10336686Y115615771D01*
X10109539Y115746916D01*
X9865383Y115842741D01*
X9609671Y115901104D01*
X9609664Y115901105D01*
X9598113Y115901972D01*
X9598113Y114445360D01*
X9556054Y114484078D01*
X9441443Y114534351D01*
X9316718Y114544686D01*
X9195394Y114513963D01*
X9098113Y114450406D01*
X9098113Y115901971D01*
X9086561Y115901105D01*
X9086554Y115901104D01*
X8830842Y115842741D01*
X8586686Y115746916D01*
X8586686Y115746917D01*
X8359539Y115615771D01*
X8154473Y115452237D01*
X8154464Y115452229D01*
X7976072Y115259969D01*
X7976071Y115259967D01*
X7828319Y115043254D01*
X7828314Y115043245D01*
X7714517Y114806942D01*
X7714517Y114806944D01*
X7637207Y114556312D01*
X7637206Y114556306D01*
X7616027Y114415800D01*
X9067495Y114415800D01*
X9013750Y114346748D01*
X8973113Y114228376D01*
X8973113Y114134727D01*
X8988527Y114042354D01*
X9048094Y113932286D01*
X9066002Y113915800D01*
X7616027Y113915800D01*
X7637206Y113775293D01*
X7637207Y113775287D01*
X7714517Y113524658D01*
X7714518Y113524654D01*
X7828317Y113288350D01*
X7828319Y113288346D01*
X7976071Y113071632D01*
X7976072Y113071630D01*
X8154464Y112879370D01*
X8154473Y112879362D01*
X8359539Y112715828D01*
X8586686Y112584683D01*
X8830842Y112488858D01*
X9086554Y112430495D01*
X9086561Y112430494D01*
X9098113Y112429628D01*
X9098113Y113886240D01*
X9140172Y113847522D01*
X9254783Y113797249D01*
X9379508Y113786914D01*
X9500832Y113817637D01*
X9598113Y113881194D01*
X9598113Y112429628D01*
X9609664Y112430494D01*
X9609671Y112430495D01*
X9865383Y112488858D01*
X10109539Y112584683D01*
X10109539Y112584682D01*
X10336686Y112715828D01*
X10541752Y112879362D01*
X10541753Y112879363D01*
X10543714Y112881476D01*
X10544598Y112882003D01*
X10545156Y112882520D01*
X10545266Y112882400D01*
X10603742Y112917231D01*
X10673571Y112914856D01*
X10731031Y112875106D01*
X10757880Y112810601D01*
X10758613Y112797135D01*
X10758613Y111539418D01*
X10758204Y111529353D01*
X10753773Y111474953D01*
X10753774Y111474947D01*
X10764801Y111394012D01*
X10765209Y111390681D01*
X10774040Y111309480D01*
X10774105Y111309290D01*
X10779454Y111286465D01*
X10779480Y111286269D01*
X10779481Y111286263D01*
X10779482Y111286263D01*
X10787893Y111263367D01*
X10807654Y111209578D01*
X10808767Y111206414D01*
X10834843Y111129026D01*
X10834847Y111129017D01*
X10834954Y111128840D01*
X10845078Y111107711D01*
X10845150Y111107513D01*
X10889139Y111038692D01*
X10890907Y111035842D01*
X10933023Y110965846D01*
X10933027Y110965841D01*
X10933171Y110965690D01*
X10947598Y110947236D01*
X10947710Y110947060D01*
X10947714Y110947055D01*
X11005474Y110889294D01*
X11007814Y110886890D01*
X11063985Y110827592D01*
X11064149Y110827481D01*
X11082230Y110812537D01*
X12283254Y109611513D01*
X12316739Y109550190D01*
X12316147Y109494886D01*
X12309661Y109467870D01*
X12309660Y109467868D01*
X12309660Y109467866D01*
X12291654Y109239076D01*
X12289587Y109212800D01*
X12289587Y109212799D01*
X12300232Y109077531D01*
X12285867Y109009154D01*
X12236816Y108959397D01*
X12168650Y108944059D01*
X12103013Y108968008D01*
X12088940Y108980115D01*
X9233895Y111835160D01*
X9227092Y111842540D01*
X9191744Y111884157D01*
X9126646Y111933641D01*
X9124062Y111935663D01*
X9060410Y111986830D01*
X9060251Y111986909D01*
X9040290Y111999289D01*
X9040142Y111999402D01*
X9022910Y112007375D01*
X8965996Y112033705D01*
X8963016Y112035131D01*
X8889806Y112071441D01*
X8889627Y112071485D01*
X8867476Y112079284D01*
X8867310Y112079362D01*
X8787453Y112096939D01*
X8784352Y112097665D01*
X8705003Y112117400D01*
X8704827Y112117404D01*
X8681504Y112120261D01*
X8681329Y112120300D01*
X8599649Y112120300D01*
X8596291Y112120345D01*
X8559078Y112121353D01*
X8514640Y112122557D01*
X8514447Y112122520D01*
X8491088Y112120300D01*
X6721730Y112120300D01*
X6711665Y112120709D01*
X6657265Y112125139D01*
X6576314Y112114109D01*
X6572979Y112113701D01*
X6491797Y112104873D01*
X6491622Y112104814D01*
X6468762Y112099456D01*
X6468576Y112099431D01*
X6391903Y112071262D01*
X6388733Y112070146D01*
X6311336Y112044069D01*
X6311331Y112044066D01*
X6311174Y112043972D01*
X6290000Y112033825D01*
X6289823Y112033760D01*
X6220984Y111989759D01*
X6218129Y111987988D01*
X6148162Y111945891D01*
X6148161Y111945890D01*
X6148159Y111945889D01*
X6148017Y111945755D01*
X6129532Y111931304D01*
X6129369Y111931200D01*
X6071627Y111873458D01*
X6069222Y111871116D01*
X6068824Y111870739D01*
X6009906Y111814929D01*
X6009798Y111814770D01*
X5994846Y111796677D01*
X4923494Y110725325D01*
X4862171Y110691840D01*
X4792479Y110696824D01*
X4736546Y110738696D01*
X4712129Y110804160D01*
X4711813Y110813006D01*
X4711813Y128737794D01*
X4731498Y128804833D01*
G37*
%TD.AperFunction*%
%TD*%
M02*
