%TF.GenerationSoftware,KiCad,Pcbnew,7.0.11*%
%TF.CreationDate,2026-02-25T18:30:34-03:00*%
%TF.ProjectId,Placas,506c6163-6173-42e6-9b69-6361645f7063,rev?*%
%TF.SameCoordinates,PX59faab0PYbc28f20*%
%TF.FileFunction,Soldermask,Bot*%
%TF.FilePolarity,Negative*%
%FSLAX46Y46*%
G04 Gerber Fmt 4.6, Leading zero omitted, Abs format (unit mm)*
G04 Created by KiCad (PCBNEW 7.0.11) date 2026-02-25 18:30:34*
%MOMM*%
%LPD*%
G01*
G04 APERTURE LIST*
%ADD10R,1.700000X2.500000*%
%ADD11O,1.700000X2.500000*%
%ADD12C,2.500000*%
%ADD13O,2.250000X2.250000*%
%ADD14O,2.500000X2.500000*%
%ADD15O,2.600000X1.600000*%
%ADD16R,2.500000X1.600000*%
%ADD17O,2.500000X1.600000*%
%ADD18O,1.200000X2.500000*%
%ADD19O,1.600000X3.000000*%
%ADD20O,1.600000X2.600000*%
%ADD21O,1.700000X3.000000*%
%ADD22O,3.000000X1.700000*%
G04 APERTURE END LIST*
D10*
%TO.C,J1*%
X10237113Y79748800D03*
D11*
X12777113Y79748800D03*
X15317113Y79748800D03*
X17857113Y79748800D03*
X20397113Y79748800D03*
X22937113Y79748800D03*
X25477113Y79748800D03*
%TD*%
D12*
%TO.C,R1*%
X7931000Y158915600D03*
X7931000Y169075600D03*
%TD*%
%TO.C,L1*%
X13310600Y27130000D03*
X13310600Y37290000D03*
%TD*%
D13*
%TO.C,D2*%
X13793113Y86352800D03*
X21413113Y86352800D03*
%TD*%
D12*
%TO.C,R4*%
X9602200Y56924200D03*
X9602200Y46764200D03*
%TD*%
D11*
%TO.C,J1*%
X5797400Y139764000D03*
X8337400Y139764000D03*
X10877400Y139764000D03*
X13417400Y139764000D03*
X15957400Y139764000D03*
X18497400Y139764000D03*
X21037400Y139764000D03*
X23577400Y139764000D03*
X26117400Y139764000D03*
%TD*%
D14*
%TO.C,R4*%
X13920113Y127119800D03*
X21540113Y127119800D03*
%TD*%
D15*
%TO.C,U1*%
X10882200Y69919000D03*
X10882200Y67379000D03*
X10882200Y64839000D03*
X10882200Y62299000D03*
X18502200Y62299000D03*
X18502200Y64839000D03*
X18502200Y67379000D03*
X18502200Y69919000D03*
%TD*%
D12*
%TO.C,R4*%
X26371400Y159144200D03*
X26371400Y169304200D03*
%TD*%
D16*
%TO.C,U2*%
X21530113Y114048800D03*
D17*
X21530113Y116588800D03*
X21530113Y119128800D03*
X21530113Y121668800D03*
X13910113Y121668800D03*
X13910113Y119128800D03*
X13910113Y116588800D03*
X13910113Y114048800D03*
%TD*%
D18*
%TO.C,C1*%
X10049226Y104005800D03*
X8049226Y104005800D03*
%TD*%
D13*
%TO.C,D4*%
X13920113Y109212800D03*
X21540113Y109212800D03*
%TD*%
D19*
%TO.C,C1*%
X17140600Y32083000D03*
X19640600Y32083000D03*
%TD*%
D20*
%TO.C,U1*%
X12401400Y175984400D03*
X14941400Y175984400D03*
X17481400Y175984400D03*
X20021400Y175984400D03*
X20021400Y183604400D03*
X17481400Y183604400D03*
X14941400Y183604400D03*
X12401400Y183604400D03*
%TD*%
D12*
%TO.C,R3*%
X5944600Y46764200D03*
X5944600Y56924200D03*
%TD*%
D21*
%TO.C,JP3*%
X12193000Y41379400D03*
X14733000Y41379400D03*
X17273000Y41379400D03*
%TD*%
D14*
%TO.C,R3*%
X9348113Y121785800D03*
X9348113Y114165800D03*
%TD*%
%TO.C,R2*%
X9348113Y98798800D03*
X9348113Y91178800D03*
%TD*%
D13*
%TO.C,D3*%
X25350113Y113530800D03*
X25350113Y121150800D03*
%TD*%
D12*
%TO.C,R5*%
X18289000Y45900600D03*
X18289000Y56060600D03*
%TD*%
%TO.C,R6*%
X22048200Y55959000D03*
X22048200Y45799000D03*
%TD*%
%TO.C,R2*%
X14687400Y159169600D03*
X14687400Y169329600D03*
%TD*%
D18*
%TO.C,C2*%
X10049226Y126865800D03*
X8049226Y126865800D03*
%TD*%
D13*
%TO.C,D1*%
X25350113Y90670800D03*
X25350113Y98290800D03*
%TD*%
D12*
%TO.C,R1*%
X13361400Y13033000D03*
X13361400Y23193000D03*
%TD*%
D11*
%TO.C,J2*%
X9450000Y147200000D03*
X11990000Y147200000D03*
X14530000Y147200000D03*
X17070000Y147200000D03*
X19610000Y147200000D03*
X22150000Y147200000D03*
X24690000Y147200000D03*
%TD*%
D16*
%TO.C,U1*%
X21530113Y91188800D03*
D17*
X21530113Y93728800D03*
X21530113Y96268800D03*
X21530113Y98808800D03*
X13910113Y98808800D03*
X13910113Y96268800D03*
X13910113Y93728800D03*
X13910113Y91188800D03*
%TD*%
D21*
%TO.C,J1*%
X6300200Y6073400D03*
X8840200Y6073400D03*
X11380200Y6073400D03*
X13920200Y6073400D03*
X16460200Y6073400D03*
X19000200Y6073400D03*
%TD*%
D12*
%TO.C,R2*%
X19406600Y12931400D03*
X19406600Y23091400D03*
%TD*%
%TO.C,R3*%
X19665800Y159118800D03*
X19665800Y169278800D03*
%TD*%
D22*
%TO.C,JP2*%
X7976600Y29416000D03*
X7976600Y31956000D03*
X7976600Y34496000D03*
%TD*%
D14*
%TO.C,R1*%
X13920113Y104386800D03*
X21540113Y104386800D03*
%TD*%
D22*
%TO.C,JP1*%
X8129000Y15420600D03*
X8129000Y17960600D03*
X8129000Y20500600D03*
%TD*%
M02*
