%TF.GenerationSoftware,KiCad,Pcbnew,7.0.11*%
%TF.CreationDate,2026-02-25T18:30:34-03:00*%
%TF.ProjectId,Placas,506c6163-6173-42e6-9b69-6361645f7063,rev?*%
%TF.SameCoordinates,PX59faab0PYbc28f20*%
%TF.FileFunction,Legend,Top*%
%TF.FilePolarity,Positive*%
%FSLAX46Y46*%
G04 Gerber Fmt 4.6, Leading zero omitted, Abs format (unit mm)*
G04 Created by KiCad (PCBNEW 7.0.11) date 2026-02-25 18:30:34*
%MOMM*%
%LPD*%
G01*
G04 APERTURE LIST*
%ADD10C,0.500000*%
%ADD11C,0.100000*%
%ADD12C,0.150000*%
%ADD13C,0.120000*%
G04 APERTURE END LIST*
D10*
X7880200Y169202600D02*
X27946200Y169202600D01*
X27946200Y145682200D01*
X7880200Y145682200D01*
X7880200Y169202600D01*
D11*
X21895266Y4091285D02*
X21895266Y4853189D01*
X22276219Y4472237D02*
X21514314Y4472237D01*
X22276219Y5853189D02*
X22276219Y5281761D01*
X22276219Y5567475D02*
X21276219Y5567475D01*
X21276219Y5567475D02*
X21419076Y5472237D01*
X21419076Y5472237D02*
X21514314Y5376999D01*
X21514314Y5376999D02*
X21561933Y5281761D01*
X21371457Y6234142D02*
X21323838Y6281761D01*
X21323838Y6281761D02*
X21276219Y6376999D01*
X21276219Y6376999D02*
X21276219Y6615094D01*
X21276219Y6615094D02*
X21323838Y6710332D01*
X21323838Y6710332D02*
X21371457Y6757951D01*
X21371457Y6757951D02*
X21466695Y6805570D01*
X21466695Y6805570D02*
X21561933Y6805570D01*
X21561933Y6805570D02*
X21704790Y6757951D01*
X21704790Y6757951D02*
X22276219Y6186523D01*
X22276219Y6186523D02*
X22276219Y6805570D01*
X21276219Y7091285D02*
X22276219Y7424618D01*
X22276219Y7424618D02*
X21276219Y7757951D01*
D12*
X7361932Y79415467D02*
X8076217Y79415467D01*
X8076217Y79415467D02*
X8219074Y79367848D01*
X8219074Y79367848D02*
X8314313Y79272610D01*
X8314313Y79272610D02*
X8361932Y79129753D01*
X8361932Y79129753D02*
X8361932Y79034515D01*
X8361932Y80415467D02*
X8361932Y79844039D01*
X8361932Y80129753D02*
X7361932Y80129753D01*
X7361932Y80129753D02*
X7504789Y80034515D01*
X7504789Y80034515D02*
X7600027Y79939277D01*
X7600027Y79939277D02*
X7647646Y79844039D01*
X8999922Y82214981D02*
X8999922Y83214981D01*
X8999922Y83214981D02*
X9380874Y83214981D01*
X9380874Y83214981D02*
X9476112Y83167362D01*
X9476112Y83167362D02*
X9523731Y83119743D01*
X9523731Y83119743D02*
X9571350Y83024505D01*
X9571350Y83024505D02*
X9571350Y82881648D01*
X9571350Y82881648D02*
X9523731Y82786410D01*
X9523731Y82786410D02*
X9476112Y82738791D01*
X9476112Y82738791D02*
X9380874Y82691172D01*
X9380874Y82691172D02*
X8999922Y82691172D01*
X9999922Y82738791D02*
X10333255Y82738791D01*
X10476112Y82214981D02*
X9999922Y82214981D01*
X9999922Y82214981D02*
X9999922Y83214981D01*
X9999922Y83214981D02*
X10476112Y83214981D01*
X10857065Y82500696D02*
X11333255Y82500696D01*
X10761827Y82214981D02*
X11095160Y83214981D01*
X11095160Y83214981D02*
X11428493Y82214981D01*
X11761827Y82214981D02*
X11761827Y83214981D01*
X12333255Y82214981D02*
X11904684Y82786410D01*
X12333255Y83214981D02*
X11761827Y82643553D01*
X12523732Y82119743D02*
X13285636Y82119743D01*
X13523732Y82214981D02*
X13523732Y83214981D01*
X13523732Y83214981D02*
X13761827Y83214981D01*
X13761827Y83214981D02*
X13904684Y83167362D01*
X13904684Y83167362D02*
X13999922Y83072124D01*
X13999922Y83072124D02*
X14047541Y82976886D01*
X14047541Y82976886D02*
X14095160Y82786410D01*
X14095160Y82786410D02*
X14095160Y82643553D01*
X14095160Y82643553D02*
X14047541Y82453077D01*
X14047541Y82453077D02*
X13999922Y82357839D01*
X13999922Y82357839D02*
X13904684Y82262600D01*
X13904684Y82262600D02*
X13761827Y82214981D01*
X13761827Y82214981D02*
X13523732Y82214981D01*
X14523732Y82738791D02*
X14857065Y82738791D01*
X14999922Y82214981D02*
X14523732Y82214981D01*
X14523732Y82214981D02*
X14523732Y83214981D01*
X14523732Y83214981D02*
X14999922Y83214981D01*
X15285637Y83214981D02*
X15857065Y83214981D01*
X15571351Y82214981D02*
X15571351Y83214981D01*
X16190399Y82738791D02*
X16523732Y82738791D01*
X16666589Y82214981D02*
X16190399Y82214981D01*
X16190399Y82214981D02*
X16190399Y83214981D01*
X16190399Y83214981D02*
X16666589Y83214981D01*
X17666589Y82310220D02*
X17618970Y82262600D01*
X17618970Y82262600D02*
X17476113Y82214981D01*
X17476113Y82214981D02*
X17380875Y82214981D01*
X17380875Y82214981D02*
X17238018Y82262600D01*
X17238018Y82262600D02*
X17142780Y82357839D01*
X17142780Y82357839D02*
X17095161Y82453077D01*
X17095161Y82453077D02*
X17047542Y82643553D01*
X17047542Y82643553D02*
X17047542Y82786410D01*
X17047542Y82786410D02*
X17095161Y82976886D01*
X17095161Y82976886D02*
X17142780Y83072124D01*
X17142780Y83072124D02*
X17238018Y83167362D01*
X17238018Y83167362D02*
X17380875Y83214981D01*
X17380875Y83214981D02*
X17476113Y83214981D01*
X17476113Y83214981D02*
X17618970Y83167362D01*
X17618970Y83167362D02*
X17666589Y83119743D01*
X17952304Y83214981D02*
X18523732Y83214981D01*
X18238018Y82214981D02*
X18238018Y83214981D01*
X19047542Y83214981D02*
X19238018Y83214981D01*
X19238018Y83214981D02*
X19333256Y83167362D01*
X19333256Y83167362D02*
X19428494Y83072124D01*
X19428494Y83072124D02*
X19476113Y82881648D01*
X19476113Y82881648D02*
X19476113Y82548315D01*
X19476113Y82548315D02*
X19428494Y82357839D01*
X19428494Y82357839D02*
X19333256Y82262600D01*
X19333256Y82262600D02*
X19238018Y82214981D01*
X19238018Y82214981D02*
X19047542Y82214981D01*
X19047542Y82214981D02*
X18952304Y82262600D01*
X18952304Y82262600D02*
X18857066Y82357839D01*
X18857066Y82357839D02*
X18809447Y82548315D01*
X18809447Y82548315D02*
X18809447Y82881648D01*
X18809447Y82881648D02*
X18857066Y83072124D01*
X18857066Y83072124D02*
X18952304Y83167362D01*
X18952304Y83167362D02*
X19047542Y83214981D01*
X20476113Y82214981D02*
X20142780Y82691172D01*
X19904685Y82214981D02*
X19904685Y83214981D01*
X19904685Y83214981D02*
X20285637Y83214981D01*
X20285637Y83214981D02*
X20380875Y83167362D01*
X20380875Y83167362D02*
X20428494Y83119743D01*
X20428494Y83119743D02*
X20476113Y83024505D01*
X20476113Y83024505D02*
X20476113Y82881648D01*
X20476113Y82881648D02*
X20428494Y82786410D01*
X20428494Y82786410D02*
X20380875Y82738791D01*
X20380875Y82738791D02*
X20285637Y82691172D01*
X20285637Y82691172D02*
X19904685Y82691172D01*
X22428495Y82595934D02*
X23190400Y82595934D01*
X22809447Y82214981D02*
X22809447Y82976886D01*
X24190399Y82214981D02*
X23618971Y82214981D01*
X23904685Y82214981D02*
X23904685Y83214981D01*
X23904685Y83214981D02*
X23809447Y83072124D01*
X23809447Y83072124D02*
X23714209Y82976886D01*
X23714209Y82976886D02*
X23618971Y82929267D01*
X24571352Y83119743D02*
X24618971Y83167362D01*
X24618971Y83167362D02*
X24714209Y83214981D01*
X24714209Y83214981D02*
X24952304Y83214981D01*
X24952304Y83214981D02*
X25047542Y83167362D01*
X25047542Y83167362D02*
X25095161Y83119743D01*
X25095161Y83119743D02*
X25142780Y83024505D01*
X25142780Y83024505D02*
X25142780Y82929267D01*
X25142780Y82929267D02*
X25095161Y82786410D01*
X25095161Y82786410D02*
X24523733Y82214981D01*
X24523733Y82214981D02*
X25142780Y82214981D01*
X25428495Y83214981D02*
X25761828Y82214981D01*
X25761828Y82214981D02*
X26095161Y83214981D01*
X6089419Y161365134D02*
X5613228Y161031801D01*
X6089419Y160793706D02*
X5089419Y160793706D01*
X5089419Y160793706D02*
X5089419Y161174658D01*
X5089419Y161174658D02*
X5137038Y161269896D01*
X5137038Y161269896D02*
X5184657Y161317515D01*
X5184657Y161317515D02*
X5279895Y161365134D01*
X5279895Y161365134D02*
X5422752Y161365134D01*
X5422752Y161365134D02*
X5517990Y161317515D01*
X5517990Y161317515D02*
X5565609Y161269896D01*
X5565609Y161269896D02*
X5613228Y161174658D01*
X5613228Y161174658D02*
X5613228Y160793706D01*
X6089419Y162317515D02*
X6089419Y161746087D01*
X6089419Y162031801D02*
X5089419Y162031801D01*
X5089419Y162031801D02*
X5232276Y161936563D01*
X5232276Y161936563D02*
X5327514Y161841325D01*
X5327514Y161841325D02*
X5375133Y161746087D01*
X5477590Y164635515D02*
X5429971Y164540277D01*
X5429971Y164540277D02*
X5382352Y164492658D01*
X5382352Y164492658D02*
X5287114Y164445039D01*
X5287114Y164445039D02*
X5239495Y164445039D01*
X5239495Y164445039D02*
X5144257Y164492658D01*
X5144257Y164492658D02*
X5096638Y164540277D01*
X5096638Y164540277D02*
X5049019Y164635515D01*
X5049019Y164635515D02*
X5049019Y164825991D01*
X5049019Y164825991D02*
X5096638Y164921229D01*
X5096638Y164921229D02*
X5144257Y164968848D01*
X5144257Y164968848D02*
X5239495Y165016467D01*
X5239495Y165016467D02*
X5287114Y165016467D01*
X5287114Y165016467D02*
X5382352Y164968848D01*
X5382352Y164968848D02*
X5429971Y164921229D01*
X5429971Y164921229D02*
X5477590Y164825991D01*
X5477590Y164825991D02*
X5477590Y164635515D01*
X5477590Y164635515D02*
X5525209Y164540277D01*
X5525209Y164540277D02*
X5572828Y164492658D01*
X5572828Y164492658D02*
X5668066Y164445039D01*
X5668066Y164445039D02*
X5858542Y164445039D01*
X5858542Y164445039D02*
X5953780Y164492658D01*
X5953780Y164492658D02*
X6001400Y164540277D01*
X6001400Y164540277D02*
X6049019Y164635515D01*
X6049019Y164635515D02*
X6049019Y164825991D01*
X6049019Y164825991D02*
X6001400Y164921229D01*
X6001400Y164921229D02*
X5953780Y164968848D01*
X5953780Y164968848D02*
X5858542Y165016467D01*
X5858542Y165016467D02*
X5668066Y165016467D01*
X5668066Y165016467D02*
X5572828Y164968848D01*
X5572828Y164968848D02*
X5525209Y164921229D01*
X5525209Y164921229D02*
X5477590Y164825991D01*
X6001400Y165492658D02*
X6049019Y165492658D01*
X6049019Y165492658D02*
X6144257Y165445039D01*
X6144257Y165445039D02*
X6191876Y165397420D01*
X5144257Y165873610D02*
X5096638Y165921229D01*
X5096638Y165921229D02*
X5049019Y166016467D01*
X5049019Y166016467D02*
X5049019Y166254562D01*
X5049019Y166254562D02*
X5096638Y166349800D01*
X5096638Y166349800D02*
X5144257Y166397419D01*
X5144257Y166397419D02*
X5239495Y166445038D01*
X5239495Y166445038D02*
X5334733Y166445038D01*
X5334733Y166445038D02*
X5477590Y166397419D01*
X5477590Y166397419D02*
X6049019Y165825991D01*
X6049019Y165825991D02*
X6049019Y166445038D01*
X6049019Y166873610D02*
X5049019Y166873610D01*
X5668066Y166968848D02*
X6049019Y167254562D01*
X5382352Y167254562D02*
X5763304Y166873610D01*
X11073019Y29604934D02*
X11073019Y29128744D01*
X11073019Y29128744D02*
X10073019Y29128744D01*
X11073019Y30462077D02*
X11073019Y29890649D01*
X11073019Y30176363D02*
X10073019Y30176363D01*
X10073019Y30176363D02*
X10215876Y30081125D01*
X10215876Y30081125D02*
X10311114Y29985887D01*
X10311114Y29985887D02*
X10358733Y29890649D01*
X21691018Y88310981D02*
X21691018Y89310981D01*
X21691018Y89310981D02*
X21929113Y89310981D01*
X21929113Y89310981D02*
X22071970Y89263362D01*
X22071970Y89263362D02*
X22167208Y89168124D01*
X22167208Y89168124D02*
X22214827Y89072886D01*
X22214827Y89072886D02*
X22262446Y88882410D01*
X22262446Y88882410D02*
X22262446Y88739553D01*
X22262446Y88739553D02*
X22214827Y88549077D01*
X22214827Y88549077D02*
X22167208Y88453839D01*
X22167208Y88453839D02*
X22071970Y88358600D01*
X22071970Y88358600D02*
X21929113Y88310981D01*
X21929113Y88310981D02*
X21691018Y88310981D01*
X22643399Y89215743D02*
X22691018Y89263362D01*
X22691018Y89263362D02*
X22786256Y89310981D01*
X22786256Y89310981D02*
X23024351Y89310981D01*
X23024351Y89310981D02*
X23119589Y89263362D01*
X23119589Y89263362D02*
X23167208Y89215743D01*
X23167208Y89215743D02*
X23214827Y89120505D01*
X23214827Y89120505D02*
X23214827Y89025267D01*
X23214827Y89025267D02*
X23167208Y88882410D01*
X23167208Y88882410D02*
X22595780Y88310981D01*
X22595780Y88310981D02*
X23214827Y88310981D01*
X13150208Y88056981D02*
X13150208Y89056981D01*
X13721636Y88056981D02*
X13293065Y88628410D01*
X13721636Y89056981D02*
X13150208Y88485553D01*
X12393819Y49442334D02*
X11917628Y49109001D01*
X12393819Y48870906D02*
X11393819Y48870906D01*
X11393819Y48870906D02*
X11393819Y49251858D01*
X11393819Y49251858D02*
X11441438Y49347096D01*
X11441438Y49347096D02*
X11489057Y49394715D01*
X11489057Y49394715D02*
X11584295Y49442334D01*
X11584295Y49442334D02*
X11727152Y49442334D01*
X11727152Y49442334D02*
X11822390Y49394715D01*
X11822390Y49394715D02*
X11870009Y49347096D01*
X11870009Y49347096D02*
X11917628Y49251858D01*
X11917628Y49251858D02*
X11917628Y48870906D01*
X11727152Y50299477D02*
X12393819Y50299477D01*
X11346200Y50061382D02*
X12060485Y49823287D01*
X12060485Y49823287D02*
X12060485Y50442334D01*
X2922219Y139430667D02*
X3636504Y139430667D01*
X3636504Y139430667D02*
X3779361Y139383048D01*
X3779361Y139383048D02*
X3874600Y139287810D01*
X3874600Y139287810D02*
X3922219Y139144953D01*
X3922219Y139144953D02*
X3922219Y139049715D01*
X3922219Y140430667D02*
X3922219Y139859239D01*
X3922219Y140144953D02*
X2922219Y140144953D01*
X2922219Y140144953D02*
X3065076Y140049715D01*
X3065076Y140049715D02*
X3160314Y139954477D01*
X3160314Y139954477D02*
X3207933Y139859239D01*
X9868522Y143055562D02*
X9773284Y143103181D01*
X9773284Y143103181D02*
X9630427Y143103181D01*
X9630427Y143103181D02*
X9487570Y143055562D01*
X9487570Y143055562D02*
X9392332Y142960324D01*
X9392332Y142960324D02*
X9344713Y142865086D01*
X9344713Y142865086D02*
X9297094Y142674610D01*
X9297094Y142674610D02*
X9297094Y142531753D01*
X9297094Y142531753D02*
X9344713Y142341277D01*
X9344713Y142341277D02*
X9392332Y142246039D01*
X9392332Y142246039D02*
X9487570Y142150800D01*
X9487570Y142150800D02*
X9630427Y142103181D01*
X9630427Y142103181D02*
X9725665Y142103181D01*
X9725665Y142103181D02*
X9868522Y142150800D01*
X9868522Y142150800D02*
X9916141Y142198420D01*
X9916141Y142198420D02*
X9916141Y142531753D01*
X9916141Y142531753D02*
X9725665Y142531753D01*
X10725665Y142150800D02*
X10630427Y142103181D01*
X10630427Y142103181D02*
X10439951Y142103181D01*
X10439951Y142103181D02*
X10344713Y142150800D01*
X10344713Y142150800D02*
X10297094Y142246039D01*
X10297094Y142246039D02*
X10297094Y142626991D01*
X10297094Y142626991D02*
X10344713Y142722229D01*
X10344713Y142722229D02*
X10439951Y142769848D01*
X10439951Y142769848D02*
X10630427Y142769848D01*
X10630427Y142769848D02*
X10725665Y142722229D01*
X10725665Y142722229D02*
X10773284Y142626991D01*
X10773284Y142626991D02*
X10773284Y142531753D01*
X10773284Y142531753D02*
X10297094Y142436515D01*
X11201856Y142769848D02*
X11201856Y142103181D01*
X11201856Y142674610D02*
X11249475Y142722229D01*
X11249475Y142722229D02*
X11344713Y142769848D01*
X11344713Y142769848D02*
X11487570Y142769848D01*
X11487570Y142769848D02*
X11582808Y142722229D01*
X11582808Y142722229D02*
X11630427Y142626991D01*
X11630427Y142626991D02*
X11630427Y142103181D01*
X12487570Y142150800D02*
X12392332Y142103181D01*
X12392332Y142103181D02*
X12201856Y142103181D01*
X12201856Y142103181D02*
X12106618Y142150800D01*
X12106618Y142150800D02*
X12058999Y142246039D01*
X12058999Y142246039D02*
X12058999Y142626991D01*
X12058999Y142626991D02*
X12106618Y142722229D01*
X12106618Y142722229D02*
X12201856Y142769848D01*
X12201856Y142769848D02*
X12392332Y142769848D01*
X12392332Y142769848D02*
X12487570Y142722229D01*
X12487570Y142722229D02*
X12535189Y142626991D01*
X12535189Y142626991D02*
X12535189Y142531753D01*
X12535189Y142531753D02*
X12058999Y142436515D01*
X12963761Y142103181D02*
X12963761Y142769848D01*
X12963761Y142579372D02*
X13011380Y142674610D01*
X13011380Y142674610D02*
X13058999Y142722229D01*
X13058999Y142722229D02*
X13154237Y142769848D01*
X13154237Y142769848D02*
X13249475Y142769848D01*
X14011380Y142103181D02*
X14011380Y142626991D01*
X14011380Y142626991D02*
X13963761Y142722229D01*
X13963761Y142722229D02*
X13868523Y142769848D01*
X13868523Y142769848D02*
X13678047Y142769848D01*
X13678047Y142769848D02*
X13582809Y142722229D01*
X14011380Y142150800D02*
X13916142Y142103181D01*
X13916142Y142103181D02*
X13678047Y142103181D01*
X13678047Y142103181D02*
X13582809Y142150800D01*
X13582809Y142150800D02*
X13535190Y142246039D01*
X13535190Y142246039D02*
X13535190Y142341277D01*
X13535190Y142341277D02*
X13582809Y142436515D01*
X13582809Y142436515D02*
X13678047Y142484134D01*
X13678047Y142484134D02*
X13916142Y142484134D01*
X13916142Y142484134D02*
X14011380Y142531753D01*
X14344714Y142769848D02*
X14725666Y142769848D01*
X14487571Y143103181D02*
X14487571Y142246039D01*
X14487571Y142246039D02*
X14535190Y142150800D01*
X14535190Y142150800D02*
X14630428Y142103181D01*
X14630428Y142103181D02*
X14725666Y142103181D01*
X15201857Y142103181D02*
X15106619Y142150800D01*
X15106619Y142150800D02*
X15059000Y142198420D01*
X15059000Y142198420D02*
X15011381Y142293658D01*
X15011381Y142293658D02*
X15011381Y142579372D01*
X15011381Y142579372D02*
X15059000Y142674610D01*
X15059000Y142674610D02*
X15106619Y142722229D01*
X15106619Y142722229D02*
X15201857Y142769848D01*
X15201857Y142769848D02*
X15344714Y142769848D01*
X15344714Y142769848D02*
X15439952Y142722229D01*
X15439952Y142722229D02*
X15487571Y142674610D01*
X15487571Y142674610D02*
X15535190Y142579372D01*
X15535190Y142579372D02*
X15535190Y142293658D01*
X15535190Y142293658D02*
X15487571Y142198420D01*
X15487571Y142198420D02*
X15439952Y142150800D01*
X15439952Y142150800D02*
X15344714Y142103181D01*
X15344714Y142103181D02*
X15201857Y142103181D01*
X15963762Y142103181D02*
X15963762Y142769848D01*
X15963762Y142579372D02*
X16011381Y142674610D01*
X16011381Y142674610D02*
X16059000Y142722229D01*
X16059000Y142722229D02*
X16154238Y142769848D01*
X16154238Y142769848D02*
X16249476Y142769848D01*
X16344715Y142007943D02*
X17106619Y142007943D01*
X17297096Y142388896D02*
X17773286Y142388896D01*
X17201858Y142103181D02*
X17535191Y143103181D01*
X17535191Y143103181D02*
X17868524Y142103181D01*
X18630429Y142103181D02*
X18630429Y143103181D01*
X18630429Y142150800D02*
X18535191Y142103181D01*
X18535191Y142103181D02*
X18344715Y142103181D01*
X18344715Y142103181D02*
X18249477Y142150800D01*
X18249477Y142150800D02*
X18201858Y142198420D01*
X18201858Y142198420D02*
X18154239Y142293658D01*
X18154239Y142293658D02*
X18154239Y142579372D01*
X18154239Y142579372D02*
X18201858Y142674610D01*
X18201858Y142674610D02*
X18249477Y142722229D01*
X18249477Y142722229D02*
X18344715Y142769848D01*
X18344715Y142769848D02*
X18535191Y142769848D01*
X18535191Y142769848D02*
X18630429Y142722229D01*
X19535191Y142103181D02*
X19535191Y142626991D01*
X19535191Y142626991D02*
X19487572Y142722229D01*
X19487572Y142722229D02*
X19392334Y142769848D01*
X19392334Y142769848D02*
X19201858Y142769848D01*
X19201858Y142769848D02*
X19106620Y142722229D01*
X19535191Y142150800D02*
X19439953Y142103181D01*
X19439953Y142103181D02*
X19201858Y142103181D01*
X19201858Y142103181D02*
X19106620Y142150800D01*
X19106620Y142150800D02*
X19059001Y142246039D01*
X19059001Y142246039D02*
X19059001Y142341277D01*
X19059001Y142341277D02*
X19106620Y142436515D01*
X19106620Y142436515D02*
X19201858Y142484134D01*
X19201858Y142484134D02*
X19439953Y142484134D01*
X19439953Y142484134D02*
X19535191Y142531753D01*
X20011382Y142769848D02*
X20011382Y141769848D01*
X20011382Y142722229D02*
X20106620Y142769848D01*
X20106620Y142769848D02*
X20297096Y142769848D01*
X20297096Y142769848D02*
X20392334Y142722229D01*
X20392334Y142722229D02*
X20439953Y142674610D01*
X20439953Y142674610D02*
X20487572Y142579372D01*
X20487572Y142579372D02*
X20487572Y142293658D01*
X20487572Y142293658D02*
X20439953Y142198420D01*
X20439953Y142198420D02*
X20392334Y142150800D01*
X20392334Y142150800D02*
X20297096Y142103181D01*
X20297096Y142103181D02*
X20106620Y142103181D01*
X20106620Y142103181D02*
X20011382Y142150800D01*
X20773287Y142769848D02*
X21154239Y142769848D01*
X20916144Y143103181D02*
X20916144Y142246039D01*
X20916144Y142246039D02*
X20963763Y142150800D01*
X20963763Y142150800D02*
X21059001Y142103181D01*
X21059001Y142103181D02*
X21154239Y142103181D01*
X21868525Y142150800D02*
X21773287Y142103181D01*
X21773287Y142103181D02*
X21582811Y142103181D01*
X21582811Y142103181D02*
X21487573Y142150800D01*
X21487573Y142150800D02*
X21439954Y142246039D01*
X21439954Y142246039D02*
X21439954Y142626991D01*
X21439954Y142626991D02*
X21487573Y142722229D01*
X21487573Y142722229D02*
X21582811Y142769848D01*
X21582811Y142769848D02*
X21773287Y142769848D01*
X21773287Y142769848D02*
X21868525Y142722229D01*
X21868525Y142722229D02*
X21916144Y142626991D01*
X21916144Y142626991D02*
X21916144Y142531753D01*
X21916144Y142531753D02*
X21439954Y142436515D01*
X22773287Y142103181D02*
X22773287Y143103181D01*
X22773287Y142150800D02*
X22678049Y142103181D01*
X22678049Y142103181D02*
X22487573Y142103181D01*
X22487573Y142103181D02*
X22392335Y142150800D01*
X22392335Y142150800D02*
X22344716Y142198420D01*
X22344716Y142198420D02*
X22297097Y142293658D01*
X22297097Y142293658D02*
X22297097Y142579372D01*
X22297097Y142579372D02*
X22344716Y142674610D01*
X22344716Y142674610D02*
X22392335Y142722229D01*
X22392335Y142722229D02*
X22487573Y142769848D01*
X22487573Y142769848D02*
X22678049Y142769848D01*
X22678049Y142769848D02*
X22773287Y142722229D01*
X19468446Y129331981D02*
X19135113Y129808172D01*
X18897018Y129331981D02*
X18897018Y130331981D01*
X18897018Y130331981D02*
X19277970Y130331981D01*
X19277970Y130331981D02*
X19373208Y130284362D01*
X19373208Y130284362D02*
X19420827Y130236743D01*
X19420827Y130236743D02*
X19468446Y130141505D01*
X19468446Y130141505D02*
X19468446Y129998648D01*
X19468446Y129998648D02*
X19420827Y129903410D01*
X19420827Y129903410D02*
X19373208Y129855791D01*
X19373208Y129855791D02*
X19277970Y129808172D01*
X19277970Y129808172D02*
X18897018Y129808172D01*
X20325589Y129998648D02*
X20325589Y129331981D01*
X20087494Y130379600D02*
X19849399Y129665315D01*
X19849399Y129665315D02*
X20468446Y129665315D01*
X15579065Y129331981D02*
X15007637Y129331981D01*
X15293351Y129331981D02*
X15293351Y130331981D01*
X15293351Y130331981D02*
X15198113Y130189124D01*
X15198113Y130189124D02*
X15102875Y130093886D01*
X15102875Y130093886D02*
X15007637Y130046267D01*
X16007637Y129331981D02*
X16007637Y130331981D01*
X16102875Y129712934D02*
X16388589Y129331981D01*
X16388589Y129998648D02*
X16007637Y129617696D01*
X7634619Y65407896D02*
X8444142Y65407896D01*
X8444142Y65407896D02*
X8539380Y65455515D01*
X8539380Y65455515D02*
X8587000Y65503134D01*
X8587000Y65503134D02*
X8634619Y65598372D01*
X8634619Y65598372D02*
X8634619Y65788848D01*
X8634619Y65788848D02*
X8587000Y65884086D01*
X8587000Y65884086D02*
X8539380Y65931705D01*
X8539380Y65931705D02*
X8444142Y65979324D01*
X8444142Y65979324D02*
X7634619Y65979324D01*
X8634619Y66979324D02*
X8634619Y66407896D01*
X8634619Y66693610D02*
X7634619Y66693610D01*
X7634619Y66693610D02*
X7777476Y66598372D01*
X7777476Y66598372D02*
X7872714Y66503134D01*
X7872714Y66503134D02*
X7920333Y66407896D01*
X24603419Y161619134D02*
X24127228Y161285801D01*
X24603419Y161047706D02*
X23603419Y161047706D01*
X23603419Y161047706D02*
X23603419Y161428658D01*
X23603419Y161428658D02*
X23651038Y161523896D01*
X23651038Y161523896D02*
X23698657Y161571515D01*
X23698657Y161571515D02*
X23793895Y161619134D01*
X23793895Y161619134D02*
X23936752Y161619134D01*
X23936752Y161619134D02*
X24031990Y161571515D01*
X24031990Y161571515D02*
X24079609Y161523896D01*
X24079609Y161523896D02*
X24127228Y161428658D01*
X24127228Y161428658D02*
X24127228Y161047706D01*
X23936752Y162476277D02*
X24603419Y162476277D01*
X23555800Y162238182D02*
X24270085Y162000087D01*
X24270085Y162000087D02*
X24270085Y162619134D01*
X23658257Y164460944D02*
X23610638Y164508563D01*
X23610638Y164508563D02*
X23563019Y164603801D01*
X23563019Y164603801D02*
X23563019Y164841896D01*
X23563019Y164841896D02*
X23610638Y164937134D01*
X23610638Y164937134D02*
X23658257Y164984753D01*
X23658257Y164984753D02*
X23753495Y165032372D01*
X23753495Y165032372D02*
X23848733Y165032372D01*
X23848733Y165032372D02*
X23991590Y164984753D01*
X23991590Y164984753D02*
X24563019Y164413325D01*
X24563019Y164413325D02*
X24563019Y165032372D01*
X23563019Y165365706D02*
X23563019Y166032372D01*
X23563019Y166032372D02*
X24563019Y165603801D01*
X23563019Y166603801D02*
X23563019Y166699039D01*
X23563019Y166699039D02*
X23610638Y166794277D01*
X23610638Y166794277D02*
X23658257Y166841896D01*
X23658257Y166841896D02*
X23753495Y166889515D01*
X23753495Y166889515D02*
X23943971Y166937134D01*
X23943971Y166937134D02*
X24182066Y166937134D01*
X24182066Y166937134D02*
X24372542Y166889515D01*
X24372542Y166889515D02*
X24467780Y166841896D01*
X24467780Y166841896D02*
X24515400Y166794277D01*
X24515400Y166794277D02*
X24563019Y166699039D01*
X24563019Y166699039D02*
X24563019Y166603801D01*
X24563019Y166603801D02*
X24515400Y166508563D01*
X24515400Y166508563D02*
X24467780Y166460944D01*
X24467780Y166460944D02*
X24372542Y166413325D01*
X24372542Y166413325D02*
X24182066Y166365706D01*
X24182066Y166365706D02*
X23943971Y166365706D01*
X23943971Y166365706D02*
X23753495Y166413325D01*
X23753495Y166413325D02*
X23658257Y166460944D01*
X23658257Y166460944D02*
X23610638Y166508563D01*
X23610638Y166508563D02*
X23563019Y166603801D01*
X24563019Y167365706D02*
X23563019Y167365706D01*
X24182066Y167460944D02*
X24563019Y167746658D01*
X23896352Y167746658D02*
X24277304Y167365706D01*
X20524208Y124870981D02*
X20524208Y124061458D01*
X20524208Y124061458D02*
X20571827Y123966220D01*
X20571827Y123966220D02*
X20619446Y123918600D01*
X20619446Y123918600D02*
X20714684Y123870981D01*
X20714684Y123870981D02*
X20905160Y123870981D01*
X20905160Y123870981D02*
X21000398Y123918600D01*
X21000398Y123918600D02*
X21048017Y123966220D01*
X21048017Y123966220D02*
X21095636Y124061458D01*
X21095636Y124061458D02*
X21095636Y124870981D01*
X21524208Y124775743D02*
X21571827Y124823362D01*
X21571827Y124823362D02*
X21667065Y124870981D01*
X21667065Y124870981D02*
X21905160Y124870981D01*
X21905160Y124870981D02*
X22000398Y124823362D01*
X22000398Y124823362D02*
X22048017Y124775743D01*
X22048017Y124775743D02*
X22095636Y124680505D01*
X22095636Y124680505D02*
X22095636Y124585267D01*
X22095636Y124585267D02*
X22048017Y124442410D01*
X22048017Y124442410D02*
X21476589Y123870981D01*
X21476589Y123870981D02*
X22095636Y123870981D01*
X13960065Y124870981D02*
X14531493Y124870981D01*
X14245779Y123870981D02*
X14245779Y124870981D01*
X15341017Y123870981D02*
X14864827Y123870981D01*
X14864827Y123870981D02*
X14864827Y124870981D01*
X15864827Y124870981D02*
X15960065Y124870981D01*
X15960065Y124870981D02*
X16055303Y124823362D01*
X16055303Y124823362D02*
X16102922Y124775743D01*
X16102922Y124775743D02*
X16150541Y124680505D01*
X16150541Y124680505D02*
X16198160Y124490029D01*
X16198160Y124490029D02*
X16198160Y124251934D01*
X16198160Y124251934D02*
X16150541Y124061458D01*
X16150541Y124061458D02*
X16102922Y123966220D01*
X16102922Y123966220D02*
X16055303Y123918600D01*
X16055303Y123918600D02*
X15960065Y123870981D01*
X15960065Y123870981D02*
X15864827Y123870981D01*
X15864827Y123870981D02*
X15769589Y123918600D01*
X15769589Y123918600D02*
X15721970Y123966220D01*
X15721970Y123966220D02*
X15674351Y124061458D01*
X15674351Y124061458D02*
X15626732Y124251934D01*
X15626732Y124251934D02*
X15626732Y124490029D01*
X15626732Y124490029D02*
X15674351Y124680505D01*
X15674351Y124680505D02*
X15721970Y124775743D01*
X15721970Y124775743D02*
X15769589Y124823362D01*
X15769589Y124823362D02*
X15864827Y124870981D01*
X16769589Y124442410D02*
X16674351Y124490029D01*
X16674351Y124490029D02*
X16626732Y124537648D01*
X16626732Y124537648D02*
X16579113Y124632886D01*
X16579113Y124632886D02*
X16579113Y124680505D01*
X16579113Y124680505D02*
X16626732Y124775743D01*
X16626732Y124775743D02*
X16674351Y124823362D01*
X16674351Y124823362D02*
X16769589Y124870981D01*
X16769589Y124870981D02*
X16960065Y124870981D01*
X16960065Y124870981D02*
X17055303Y124823362D01*
X17055303Y124823362D02*
X17102922Y124775743D01*
X17102922Y124775743D02*
X17150541Y124680505D01*
X17150541Y124680505D02*
X17150541Y124632886D01*
X17150541Y124632886D02*
X17102922Y124537648D01*
X17102922Y124537648D02*
X17055303Y124490029D01*
X17055303Y124490029D02*
X16960065Y124442410D01*
X16960065Y124442410D02*
X16769589Y124442410D01*
X16769589Y124442410D02*
X16674351Y124394791D01*
X16674351Y124394791D02*
X16626732Y124347172D01*
X16626732Y124347172D02*
X16579113Y124251934D01*
X16579113Y124251934D02*
X16579113Y124061458D01*
X16579113Y124061458D02*
X16626732Y123966220D01*
X16626732Y123966220D02*
X16674351Y123918600D01*
X16674351Y123918600D02*
X16769589Y123870981D01*
X16769589Y123870981D02*
X16960065Y123870981D01*
X16960065Y123870981D02*
X17055303Y123918600D01*
X17055303Y123918600D02*
X17102922Y123966220D01*
X17102922Y123966220D02*
X17150541Y124061458D01*
X17150541Y124061458D02*
X17150541Y124251934D01*
X17150541Y124251934D02*
X17102922Y124347172D01*
X17102922Y124347172D02*
X17055303Y124394791D01*
X17055303Y124394791D02*
X16960065Y124442410D01*
X17531494Y124775743D02*
X17579113Y124823362D01*
X17579113Y124823362D02*
X17674351Y124870981D01*
X17674351Y124870981D02*
X17912446Y124870981D01*
X17912446Y124870981D02*
X18007684Y124823362D01*
X18007684Y124823362D02*
X18055303Y124775743D01*
X18055303Y124775743D02*
X18102922Y124680505D01*
X18102922Y124680505D02*
X18102922Y124585267D01*
X18102922Y124585267D02*
X18055303Y124442410D01*
X18055303Y124442410D02*
X17483875Y123870981D01*
X17483875Y123870981D02*
X18102922Y123870981D01*
X16958208Y118403981D02*
X16958208Y117594458D01*
X16958208Y117594458D02*
X17005827Y117499220D01*
X17005827Y117499220D02*
X17053446Y117451600D01*
X17053446Y117451600D02*
X17148684Y117403981D01*
X17148684Y117403981D02*
X17339160Y117403981D01*
X17339160Y117403981D02*
X17434398Y117451600D01*
X17434398Y117451600D02*
X17482017Y117499220D01*
X17482017Y117499220D02*
X17529636Y117594458D01*
X17529636Y117594458D02*
X17529636Y118403981D01*
X17958208Y118308743D02*
X18005827Y118356362D01*
X18005827Y118356362D02*
X18101065Y118403981D01*
X18101065Y118403981D02*
X18339160Y118403981D01*
X18339160Y118403981D02*
X18434398Y118356362D01*
X18434398Y118356362D02*
X18482017Y118308743D01*
X18482017Y118308743D02*
X18529636Y118213505D01*
X18529636Y118213505D02*
X18529636Y118118267D01*
X18529636Y118118267D02*
X18482017Y117975410D01*
X18482017Y117975410D02*
X17910589Y117403981D01*
X17910589Y117403981D02*
X18529636Y117403981D01*
X5729093Y101791134D02*
X5776713Y101743515D01*
X5776713Y101743515D02*
X5824332Y101600658D01*
X5824332Y101600658D02*
X5824332Y101505420D01*
X5824332Y101505420D02*
X5776713Y101362563D01*
X5776713Y101362563D02*
X5681474Y101267325D01*
X5681474Y101267325D02*
X5586236Y101219706D01*
X5586236Y101219706D02*
X5395760Y101172087D01*
X5395760Y101172087D02*
X5252903Y101172087D01*
X5252903Y101172087D02*
X5062427Y101219706D01*
X5062427Y101219706D02*
X4967189Y101267325D01*
X4967189Y101267325D02*
X4871951Y101362563D01*
X4871951Y101362563D02*
X4824332Y101505420D01*
X4824332Y101505420D02*
X4824332Y101600658D01*
X4824332Y101600658D02*
X4871951Y101743515D01*
X4871951Y101743515D02*
X4919570Y101791134D01*
X5824332Y102743515D02*
X5824332Y102172087D01*
X5824332Y102457801D02*
X4824332Y102457801D01*
X4824332Y102457801D02*
X4967189Y102362563D01*
X4967189Y102362563D02*
X5062427Y102267325D01*
X5062427Y102267325D02*
X5110046Y102172087D01*
X5764332Y104458372D02*
X5764332Y103886944D01*
X5764332Y104172658D02*
X4764332Y104172658D01*
X4764332Y104172658D02*
X4907189Y104077420D01*
X4907189Y104077420D02*
X5002427Y103982182D01*
X5002427Y103982182D02*
X5050046Y103886944D01*
X4764332Y105077420D02*
X4764332Y105172658D01*
X4764332Y105172658D02*
X4811951Y105267896D01*
X4811951Y105267896D02*
X4859570Y105315515D01*
X4859570Y105315515D02*
X4954808Y105363134D01*
X4954808Y105363134D02*
X5145284Y105410753D01*
X5145284Y105410753D02*
X5383379Y105410753D01*
X5383379Y105410753D02*
X5573855Y105363134D01*
X5573855Y105363134D02*
X5669093Y105315515D01*
X5669093Y105315515D02*
X5716713Y105267896D01*
X5716713Y105267896D02*
X5764332Y105172658D01*
X5764332Y105172658D02*
X5764332Y105077420D01*
X5764332Y105077420D02*
X5716713Y104982182D01*
X5716713Y104982182D02*
X5669093Y104934563D01*
X5669093Y104934563D02*
X5573855Y104886944D01*
X5573855Y104886944D02*
X5383379Y104839325D01*
X5383379Y104839325D02*
X5145284Y104839325D01*
X5145284Y104839325D02*
X4954808Y104886944D01*
X4954808Y104886944D02*
X4859570Y104934563D01*
X4859570Y104934563D02*
X4811951Y104982182D01*
X4811951Y104982182D02*
X4764332Y105077420D01*
X5097665Y106267896D02*
X5764332Y106267896D01*
X5097665Y105839325D02*
X5621474Y105839325D01*
X5621474Y105839325D02*
X5716713Y105886944D01*
X5716713Y105886944D02*
X5764332Y105982182D01*
X5764332Y105982182D02*
X5764332Y106125039D01*
X5764332Y106125039D02*
X5716713Y106220277D01*
X5716713Y106220277D02*
X5669093Y106267896D01*
X5240522Y107077420D02*
X5240522Y106744087D01*
X5764332Y106744087D02*
X4764332Y106744087D01*
X4764332Y106744087D02*
X4764332Y107220277D01*
X21818018Y111209981D02*
X21818018Y112209981D01*
X21818018Y112209981D02*
X22056113Y112209981D01*
X22056113Y112209981D02*
X22198970Y112162362D01*
X22198970Y112162362D02*
X22294208Y112067124D01*
X22294208Y112067124D02*
X22341827Y111971886D01*
X22341827Y111971886D02*
X22389446Y111781410D01*
X22389446Y111781410D02*
X22389446Y111638553D01*
X22389446Y111638553D02*
X22341827Y111448077D01*
X22341827Y111448077D02*
X22294208Y111352839D01*
X22294208Y111352839D02*
X22198970Y111257600D01*
X22198970Y111257600D02*
X22056113Y111209981D01*
X22056113Y111209981D02*
X21818018Y111209981D01*
X23246589Y111876648D02*
X23246589Y111209981D01*
X23008494Y112257600D02*
X22770399Y111543315D01*
X22770399Y111543315D02*
X23389446Y111543315D01*
X15714255Y111043981D02*
X15142827Y111043981D01*
X15428541Y111043981D02*
X15428541Y112043981D01*
X15428541Y112043981D02*
X15333303Y111901124D01*
X15333303Y111901124D02*
X15238065Y111805886D01*
X15238065Y111805886D02*
X15142827Y111758267D01*
X16142827Y111043981D02*
X16142827Y112043981D01*
X16142827Y112043981D02*
X16714255Y111043981D01*
X16714255Y111043981D02*
X16714255Y112043981D01*
X17666636Y112043981D02*
X17190446Y112043981D01*
X17190446Y112043981D02*
X17142827Y111567791D01*
X17142827Y111567791D02*
X17190446Y111615410D01*
X17190446Y111615410D02*
X17285684Y111663029D01*
X17285684Y111663029D02*
X17523779Y111663029D01*
X17523779Y111663029D02*
X17619017Y111615410D01*
X17619017Y111615410D02*
X17666636Y111567791D01*
X17666636Y111567791D02*
X17714255Y111472553D01*
X17714255Y111472553D02*
X17714255Y111234458D01*
X17714255Y111234458D02*
X17666636Y111139220D01*
X17666636Y111139220D02*
X17619017Y111091600D01*
X17619017Y111091600D02*
X17523779Y111043981D01*
X17523779Y111043981D02*
X17285684Y111043981D01*
X17285684Y111043981D02*
X17190446Y111091600D01*
X17190446Y111091600D02*
X17142827Y111139220D01*
X18047589Y112043981D02*
X18714255Y112043981D01*
X18714255Y112043981D02*
X18285684Y111043981D01*
X19619017Y111043981D02*
X19047589Y111043981D01*
X19333303Y111043981D02*
X19333303Y112043981D01*
X19333303Y112043981D02*
X19238065Y111901124D01*
X19238065Y111901124D02*
X19142827Y111805886D01*
X19142827Y111805886D02*
X19047589Y111758267D01*
X20571398Y111043981D02*
X19999970Y111043981D01*
X20285684Y111043981D02*
X20285684Y112043981D01*
X20285684Y112043981D02*
X20190446Y111901124D01*
X20190446Y111901124D02*
X20095208Y111805886D01*
X20095208Y111805886D02*
X19999970Y111758267D01*
X13277208Y110955981D02*
X13277208Y111955981D01*
X13848636Y110955981D02*
X13420065Y111527410D01*
X13848636Y111955981D02*
X13277208Y111384553D01*
X22326180Y31916334D02*
X22373800Y31868715D01*
X22373800Y31868715D02*
X22421419Y31725858D01*
X22421419Y31725858D02*
X22421419Y31630620D01*
X22421419Y31630620D02*
X22373800Y31487763D01*
X22373800Y31487763D02*
X22278561Y31392525D01*
X22278561Y31392525D02*
X22183323Y31344906D01*
X22183323Y31344906D02*
X21992847Y31297287D01*
X21992847Y31297287D02*
X21849990Y31297287D01*
X21849990Y31297287D02*
X21659514Y31344906D01*
X21659514Y31344906D02*
X21564276Y31392525D01*
X21564276Y31392525D02*
X21469038Y31487763D01*
X21469038Y31487763D02*
X21421419Y31630620D01*
X21421419Y31630620D02*
X21421419Y31725858D01*
X21421419Y31725858D02*
X21469038Y31868715D01*
X21469038Y31868715D02*
X21516657Y31916334D01*
X22421419Y32868715D02*
X22421419Y32297287D01*
X22421419Y32583001D02*
X21421419Y32583001D01*
X21421419Y32583001D02*
X21564276Y32487763D01*
X21564276Y32487763D02*
X21659514Y32392525D01*
X21659514Y32392525D02*
X21707133Y32297287D01*
X9526219Y179032496D02*
X10335742Y179032496D01*
X10335742Y179032496D02*
X10430980Y179080115D01*
X10430980Y179080115D02*
X10478600Y179127734D01*
X10478600Y179127734D02*
X10526219Y179222972D01*
X10526219Y179222972D02*
X10526219Y179413448D01*
X10526219Y179413448D02*
X10478600Y179508686D01*
X10478600Y179508686D02*
X10430980Y179556305D01*
X10430980Y179556305D02*
X10335742Y179603924D01*
X10335742Y179603924D02*
X9526219Y179603924D01*
X10526219Y180603924D02*
X10526219Y180032496D01*
X10526219Y180318210D02*
X9526219Y180318210D01*
X9526219Y180318210D02*
X9669076Y180222972D01*
X9669076Y180222972D02*
X9764314Y180127734D01*
X9764314Y180127734D02*
X9811933Y180032496D01*
X22806219Y177627734D02*
X22806219Y177151544D01*
X22806219Y177151544D02*
X21806219Y177151544D01*
X22806219Y177961068D02*
X21806219Y177961068D01*
X21806219Y177961068D02*
X22520504Y178294401D01*
X22520504Y178294401D02*
X21806219Y178627734D01*
X21806219Y178627734D02*
X22806219Y178627734D01*
X21806219Y179532496D02*
X21806219Y179342020D01*
X21806219Y179342020D02*
X21853838Y179246782D01*
X21853838Y179246782D02*
X21901457Y179199163D01*
X21901457Y179199163D02*
X22044314Y179103925D01*
X22044314Y179103925D02*
X22234790Y179056306D01*
X22234790Y179056306D02*
X22615742Y179056306D01*
X22615742Y179056306D02*
X22710980Y179103925D01*
X22710980Y179103925D02*
X22758600Y179151544D01*
X22758600Y179151544D02*
X22806219Y179246782D01*
X22806219Y179246782D02*
X22806219Y179437258D01*
X22806219Y179437258D02*
X22758600Y179532496D01*
X22758600Y179532496D02*
X22710980Y179580115D01*
X22710980Y179580115D02*
X22615742Y179627734D01*
X22615742Y179627734D02*
X22377647Y179627734D01*
X22377647Y179627734D02*
X22282409Y179580115D01*
X22282409Y179580115D02*
X22234790Y179532496D01*
X22234790Y179532496D02*
X22187171Y179437258D01*
X22187171Y179437258D02*
X22187171Y179246782D01*
X22187171Y179246782D02*
X22234790Y179151544D01*
X22234790Y179151544D02*
X22282409Y179103925D01*
X22282409Y179103925D02*
X22377647Y179056306D01*
X22806219Y180580115D02*
X22806219Y180008687D01*
X22806219Y180294401D02*
X21806219Y180294401D01*
X21806219Y180294401D02*
X21949076Y180199163D01*
X21949076Y180199163D02*
X22044314Y180103925D01*
X22044314Y180103925D02*
X22091933Y180008687D01*
X21806219Y180913449D02*
X21806219Y181580115D01*
X21806219Y181580115D02*
X22806219Y181151544D01*
X21901457Y181913449D02*
X21853838Y181961068D01*
X21853838Y181961068D02*
X21806219Y182056306D01*
X21806219Y182056306D02*
X21806219Y182294401D01*
X21806219Y182294401D02*
X21853838Y182389639D01*
X21853838Y182389639D02*
X21901457Y182437258D01*
X21901457Y182437258D02*
X21996695Y182484877D01*
X21996695Y182484877D02*
X22091933Y182484877D01*
X22091933Y182484877D02*
X22234790Y182437258D01*
X22234790Y182437258D02*
X22806219Y181865830D01*
X22806219Y181865830D02*
X22806219Y182484877D01*
X4062619Y49442334D02*
X3586428Y49109001D01*
X4062619Y48870906D02*
X3062619Y48870906D01*
X3062619Y48870906D02*
X3062619Y49251858D01*
X3062619Y49251858D02*
X3110238Y49347096D01*
X3110238Y49347096D02*
X3157857Y49394715D01*
X3157857Y49394715D02*
X3253095Y49442334D01*
X3253095Y49442334D02*
X3395952Y49442334D01*
X3395952Y49442334D02*
X3491190Y49394715D01*
X3491190Y49394715D02*
X3538809Y49347096D01*
X3538809Y49347096D02*
X3586428Y49251858D01*
X3586428Y49251858D02*
X3586428Y48870906D01*
X3062619Y49775668D02*
X3062619Y50394715D01*
X3062619Y50394715D02*
X3443571Y50061382D01*
X3443571Y50061382D02*
X3443571Y50204239D01*
X3443571Y50204239D02*
X3491190Y50299477D01*
X3491190Y50299477D02*
X3538809Y50347096D01*
X3538809Y50347096D02*
X3634047Y50394715D01*
X3634047Y50394715D02*
X3872142Y50394715D01*
X3872142Y50394715D02*
X3967380Y50347096D01*
X3967380Y50347096D02*
X4015000Y50299477D01*
X4015000Y50299477D02*
X4062619Y50204239D01*
X4062619Y50204239D02*
X4062619Y49918525D01*
X4062619Y49918525D02*
X4015000Y49823287D01*
X4015000Y49823287D02*
X3967380Y49775668D01*
X9317819Y40546067D02*
X10032104Y40546067D01*
X10032104Y40546067D02*
X10174961Y40498448D01*
X10174961Y40498448D02*
X10270200Y40403210D01*
X10270200Y40403210D02*
X10317819Y40260353D01*
X10317819Y40260353D02*
X10317819Y40165115D01*
X10317819Y41022258D02*
X9317819Y41022258D01*
X9317819Y41022258D02*
X9317819Y41403210D01*
X9317819Y41403210D02*
X9365438Y41498448D01*
X9365438Y41498448D02*
X9413057Y41546067D01*
X9413057Y41546067D02*
X9508295Y41593686D01*
X9508295Y41593686D02*
X9651152Y41593686D01*
X9651152Y41593686D02*
X9746390Y41546067D01*
X9746390Y41546067D02*
X9794009Y41498448D01*
X9794009Y41498448D02*
X9841628Y41403210D01*
X9841628Y41403210D02*
X9841628Y41022258D01*
X9317819Y41927020D02*
X9317819Y42546067D01*
X9317819Y42546067D02*
X9698771Y42212734D01*
X9698771Y42212734D02*
X9698771Y42355591D01*
X9698771Y42355591D02*
X9746390Y42450829D01*
X9746390Y42450829D02*
X9794009Y42498448D01*
X9794009Y42498448D02*
X9889247Y42546067D01*
X9889247Y42546067D02*
X10127342Y42546067D01*
X10127342Y42546067D02*
X10222580Y42498448D01*
X10222580Y42498448D02*
X10270200Y42450829D01*
X10270200Y42450829D02*
X10317819Y42355591D01*
X10317819Y42355591D02*
X10317819Y42069877D01*
X10317819Y42069877D02*
X10270200Y41974639D01*
X10270200Y41974639D02*
X10222580Y41927020D01*
X7262932Y121111134D02*
X6786741Y120777801D01*
X7262932Y120539706D02*
X6262932Y120539706D01*
X6262932Y120539706D02*
X6262932Y120920658D01*
X6262932Y120920658D02*
X6310551Y121015896D01*
X6310551Y121015896D02*
X6358170Y121063515D01*
X6358170Y121063515D02*
X6453408Y121111134D01*
X6453408Y121111134D02*
X6596265Y121111134D01*
X6596265Y121111134D02*
X6691503Y121063515D01*
X6691503Y121063515D02*
X6739122Y121015896D01*
X6739122Y121015896D02*
X6786741Y120920658D01*
X6786741Y120920658D02*
X6786741Y120539706D01*
X6262932Y121444468D02*
X6262932Y122063515D01*
X6262932Y122063515D02*
X6643884Y121730182D01*
X6643884Y121730182D02*
X6643884Y121873039D01*
X6643884Y121873039D02*
X6691503Y121968277D01*
X6691503Y121968277D02*
X6739122Y122015896D01*
X6739122Y122015896D02*
X6834360Y122063515D01*
X6834360Y122063515D02*
X7072455Y122063515D01*
X7072455Y122063515D02*
X7167693Y122015896D01*
X7167693Y122015896D02*
X7215313Y121968277D01*
X7215313Y121968277D02*
X7262932Y121873039D01*
X7262932Y121873039D02*
X7262932Y121587325D01*
X7262932Y121587325D02*
X7215313Y121492087D01*
X7215313Y121492087D02*
X7167693Y121444468D01*
X7262932Y116269372D02*
X7262932Y115697944D01*
X7262932Y115983658D02*
X6262932Y115983658D01*
X6262932Y115983658D02*
X6405789Y115888420D01*
X6405789Y115888420D02*
X6501027Y115793182D01*
X6501027Y115793182D02*
X6548646Y115697944D01*
X6262932Y116888420D02*
X6262932Y116983658D01*
X6262932Y116983658D02*
X6310551Y117078896D01*
X6310551Y117078896D02*
X6358170Y117126515D01*
X6358170Y117126515D02*
X6453408Y117174134D01*
X6453408Y117174134D02*
X6643884Y117221753D01*
X6643884Y117221753D02*
X6881979Y117221753D01*
X6881979Y117221753D02*
X7072455Y117174134D01*
X7072455Y117174134D02*
X7167693Y117126515D01*
X7167693Y117126515D02*
X7215313Y117078896D01*
X7215313Y117078896D02*
X7262932Y116983658D01*
X7262932Y116983658D02*
X7262932Y116888420D01*
X7262932Y116888420D02*
X7215313Y116793182D01*
X7215313Y116793182D02*
X7167693Y116745563D01*
X7167693Y116745563D02*
X7072455Y116697944D01*
X7072455Y116697944D02*
X6881979Y116650325D01*
X6881979Y116650325D02*
X6643884Y116650325D01*
X6643884Y116650325D02*
X6453408Y116697944D01*
X6453408Y116697944D02*
X6358170Y116745563D01*
X6358170Y116745563D02*
X6310551Y116793182D01*
X6310551Y116793182D02*
X6262932Y116888420D01*
X6262932Y117840801D02*
X6262932Y117936039D01*
X6262932Y117936039D02*
X6310551Y118031277D01*
X6310551Y118031277D02*
X6358170Y118078896D01*
X6358170Y118078896D02*
X6453408Y118126515D01*
X6453408Y118126515D02*
X6643884Y118174134D01*
X6643884Y118174134D02*
X6881979Y118174134D01*
X6881979Y118174134D02*
X7072455Y118126515D01*
X7072455Y118126515D02*
X7167693Y118078896D01*
X7167693Y118078896D02*
X7215313Y118031277D01*
X7215313Y118031277D02*
X7262932Y117936039D01*
X7262932Y117936039D02*
X7262932Y117840801D01*
X7262932Y117840801D02*
X7215313Y117745563D01*
X7215313Y117745563D02*
X7167693Y117697944D01*
X7167693Y117697944D02*
X7072455Y117650325D01*
X7072455Y117650325D02*
X6881979Y117602706D01*
X6881979Y117602706D02*
X6643884Y117602706D01*
X6643884Y117602706D02*
X6453408Y117650325D01*
X6453408Y117650325D02*
X6358170Y117697944D01*
X6358170Y117697944D02*
X6310551Y117745563D01*
X6310551Y117745563D02*
X6262932Y117840801D01*
X7262932Y118602706D02*
X6262932Y118602706D01*
X6881979Y118697944D02*
X7262932Y118983658D01*
X6596265Y118983658D02*
X6977217Y118602706D01*
X7262932Y98124134D02*
X6786741Y97790801D01*
X7262932Y97552706D02*
X6262932Y97552706D01*
X6262932Y97552706D02*
X6262932Y97933658D01*
X6262932Y97933658D02*
X6310551Y98028896D01*
X6310551Y98028896D02*
X6358170Y98076515D01*
X6358170Y98076515D02*
X6453408Y98124134D01*
X6453408Y98124134D02*
X6596265Y98124134D01*
X6596265Y98124134D02*
X6691503Y98076515D01*
X6691503Y98076515D02*
X6739122Y98028896D01*
X6739122Y98028896D02*
X6786741Y97933658D01*
X6786741Y97933658D02*
X6786741Y97552706D01*
X6358170Y98505087D02*
X6310551Y98552706D01*
X6310551Y98552706D02*
X6262932Y98647944D01*
X6262932Y98647944D02*
X6262932Y98886039D01*
X6262932Y98886039D02*
X6310551Y98981277D01*
X6310551Y98981277D02*
X6358170Y99028896D01*
X6358170Y99028896D02*
X6453408Y99076515D01*
X6453408Y99076515D02*
X6548646Y99076515D01*
X6548646Y99076515D02*
X6691503Y99028896D01*
X6691503Y99028896D02*
X7262932Y98457468D01*
X7262932Y98457468D02*
X7262932Y99076515D01*
X7262932Y93282372D02*
X7262932Y92710944D01*
X7262932Y92996658D02*
X6262932Y92996658D01*
X6262932Y92996658D02*
X6405789Y92901420D01*
X6405789Y92901420D02*
X6501027Y92806182D01*
X6501027Y92806182D02*
X6548646Y92710944D01*
X6262932Y93901420D02*
X6262932Y93996658D01*
X6262932Y93996658D02*
X6310551Y94091896D01*
X6310551Y94091896D02*
X6358170Y94139515D01*
X6358170Y94139515D02*
X6453408Y94187134D01*
X6453408Y94187134D02*
X6643884Y94234753D01*
X6643884Y94234753D02*
X6881979Y94234753D01*
X6881979Y94234753D02*
X7072455Y94187134D01*
X7072455Y94187134D02*
X7167693Y94139515D01*
X7167693Y94139515D02*
X7215313Y94091896D01*
X7215313Y94091896D02*
X7262932Y93996658D01*
X7262932Y93996658D02*
X7262932Y93901420D01*
X7262932Y93901420D02*
X7215313Y93806182D01*
X7215313Y93806182D02*
X7167693Y93758563D01*
X7167693Y93758563D02*
X7072455Y93710944D01*
X7072455Y93710944D02*
X6881979Y93663325D01*
X6881979Y93663325D02*
X6643884Y93663325D01*
X6643884Y93663325D02*
X6453408Y93710944D01*
X6453408Y93710944D02*
X6358170Y93758563D01*
X6358170Y93758563D02*
X6310551Y93806182D01*
X6310551Y93806182D02*
X6262932Y93901420D01*
X6262932Y94853801D02*
X6262932Y94949039D01*
X6262932Y94949039D02*
X6310551Y95044277D01*
X6310551Y95044277D02*
X6358170Y95091896D01*
X6358170Y95091896D02*
X6453408Y95139515D01*
X6453408Y95139515D02*
X6643884Y95187134D01*
X6643884Y95187134D02*
X6881979Y95187134D01*
X6881979Y95187134D02*
X7072455Y95139515D01*
X7072455Y95139515D02*
X7167693Y95091896D01*
X7167693Y95091896D02*
X7215313Y95044277D01*
X7215313Y95044277D02*
X7262932Y94949039D01*
X7262932Y94949039D02*
X7262932Y94853801D01*
X7262932Y94853801D02*
X7215313Y94758563D01*
X7215313Y94758563D02*
X7167693Y94710944D01*
X7167693Y94710944D02*
X7072455Y94663325D01*
X7072455Y94663325D02*
X6881979Y94615706D01*
X6881979Y94615706D02*
X6643884Y94615706D01*
X6643884Y94615706D02*
X6453408Y94663325D01*
X6453408Y94663325D02*
X6358170Y94710944D01*
X6358170Y94710944D02*
X6310551Y94758563D01*
X6310551Y94758563D02*
X6262932Y94853801D01*
X7262932Y95615706D02*
X6262932Y95615706D01*
X6881979Y95710944D02*
X7262932Y95996658D01*
X6596265Y95996658D02*
X6977217Y95615706D01*
X28090932Y114824706D02*
X27090932Y114824706D01*
X27090932Y114824706D02*
X27090932Y115062801D01*
X27090932Y115062801D02*
X27138551Y115205658D01*
X27138551Y115205658D02*
X27233789Y115300896D01*
X27233789Y115300896D02*
X27329027Y115348515D01*
X27329027Y115348515D02*
X27519503Y115396134D01*
X27519503Y115396134D02*
X27662360Y115396134D01*
X27662360Y115396134D02*
X27852836Y115348515D01*
X27852836Y115348515D02*
X27948074Y115300896D01*
X27948074Y115300896D02*
X28043313Y115205658D01*
X28043313Y115205658D02*
X28090932Y115062801D01*
X28090932Y115062801D02*
X28090932Y114824706D01*
X27090932Y115729468D02*
X27090932Y116348515D01*
X27090932Y116348515D02*
X27471884Y116015182D01*
X27471884Y116015182D02*
X27471884Y116158039D01*
X27471884Y116158039D02*
X27519503Y116253277D01*
X27519503Y116253277D02*
X27567122Y116300896D01*
X27567122Y116300896D02*
X27662360Y116348515D01*
X27662360Y116348515D02*
X27900455Y116348515D01*
X27900455Y116348515D02*
X27995693Y116300896D01*
X27995693Y116300896D02*
X28043313Y116253277D01*
X28043313Y116253277D02*
X28090932Y116158039D01*
X28090932Y116158039D02*
X28090932Y115872325D01*
X28090932Y115872325D02*
X28043313Y115777087D01*
X28043313Y115777087D02*
X27995693Y115729468D01*
X27924932Y118118943D02*
X27924932Y117547515D01*
X27924932Y117833229D02*
X26924932Y117833229D01*
X26924932Y117833229D02*
X27067789Y117737991D01*
X27067789Y117737991D02*
X27163027Y117642753D01*
X27163027Y117642753D02*
X27210646Y117547515D01*
X27924932Y118547515D02*
X26924932Y118547515D01*
X26924932Y118547515D02*
X27924932Y119118943D01*
X27924932Y119118943D02*
X26924932Y119118943D01*
X26924932Y120071324D02*
X26924932Y119595134D01*
X26924932Y119595134D02*
X27401122Y119547515D01*
X27401122Y119547515D02*
X27353503Y119595134D01*
X27353503Y119595134D02*
X27305884Y119690372D01*
X27305884Y119690372D02*
X27305884Y119928467D01*
X27305884Y119928467D02*
X27353503Y120023705D01*
X27353503Y120023705D02*
X27401122Y120071324D01*
X27401122Y120071324D02*
X27496360Y120118943D01*
X27496360Y120118943D02*
X27734455Y120118943D01*
X27734455Y120118943D02*
X27829693Y120071324D01*
X27829693Y120071324D02*
X27877313Y120023705D01*
X27877313Y120023705D02*
X27924932Y119928467D01*
X27924932Y119928467D02*
X27924932Y119690372D01*
X27924932Y119690372D02*
X27877313Y119595134D01*
X27877313Y119595134D02*
X27829693Y119547515D01*
X26924932Y120452277D02*
X26924932Y121118943D01*
X26924932Y121118943D02*
X27924932Y120690372D01*
X27924932Y122023705D02*
X27924932Y121452277D01*
X27924932Y121737991D02*
X26924932Y121737991D01*
X26924932Y121737991D02*
X27067789Y121642753D01*
X27067789Y121642753D02*
X27163027Y121547515D01*
X27163027Y121547515D02*
X27210646Y121452277D01*
X27924932Y122976086D02*
X27924932Y122404658D01*
X27924932Y122690372D02*
X26924932Y122690372D01*
X26924932Y122690372D02*
X27067789Y122595134D01*
X27067789Y122595134D02*
X27163027Y122499896D01*
X27163027Y122499896D02*
X27210646Y122404658D01*
X28090932Y112887896D02*
X27090932Y112887896D01*
X28090932Y113459324D02*
X27519503Y113030753D01*
X27090932Y113459324D02*
X27662360Y112887896D01*
X16254619Y48883534D02*
X15778428Y48550201D01*
X16254619Y48312106D02*
X15254619Y48312106D01*
X15254619Y48312106D02*
X15254619Y48693058D01*
X15254619Y48693058D02*
X15302238Y48788296D01*
X15302238Y48788296D02*
X15349857Y48835915D01*
X15349857Y48835915D02*
X15445095Y48883534D01*
X15445095Y48883534D02*
X15587952Y48883534D01*
X15587952Y48883534D02*
X15683190Y48835915D01*
X15683190Y48835915D02*
X15730809Y48788296D01*
X15730809Y48788296D02*
X15778428Y48693058D01*
X15778428Y48693058D02*
X15778428Y48312106D01*
X15254619Y49788296D02*
X15254619Y49312106D01*
X15254619Y49312106D02*
X15730809Y49264487D01*
X15730809Y49264487D02*
X15683190Y49312106D01*
X15683190Y49312106D02*
X15635571Y49407344D01*
X15635571Y49407344D02*
X15635571Y49645439D01*
X15635571Y49645439D02*
X15683190Y49740677D01*
X15683190Y49740677D02*
X15730809Y49788296D01*
X15730809Y49788296D02*
X15826047Y49835915D01*
X15826047Y49835915D02*
X16064142Y49835915D01*
X16064142Y49835915D02*
X16159380Y49788296D01*
X16159380Y49788296D02*
X16207000Y49740677D01*
X16207000Y49740677D02*
X16254619Y49645439D01*
X16254619Y49645439D02*
X16254619Y49407344D01*
X16254619Y49407344D02*
X16207000Y49312106D01*
X16207000Y49312106D02*
X16159380Y49264487D01*
X24941419Y48731134D02*
X24465228Y48397801D01*
X24941419Y48159706D02*
X23941419Y48159706D01*
X23941419Y48159706D02*
X23941419Y48540658D01*
X23941419Y48540658D02*
X23989038Y48635896D01*
X23989038Y48635896D02*
X24036657Y48683515D01*
X24036657Y48683515D02*
X24131895Y48731134D01*
X24131895Y48731134D02*
X24274752Y48731134D01*
X24274752Y48731134D02*
X24369990Y48683515D01*
X24369990Y48683515D02*
X24417609Y48635896D01*
X24417609Y48635896D02*
X24465228Y48540658D01*
X24465228Y48540658D02*
X24465228Y48159706D01*
X23941419Y49588277D02*
X23941419Y49397801D01*
X23941419Y49397801D02*
X23989038Y49302563D01*
X23989038Y49302563D02*
X24036657Y49254944D01*
X24036657Y49254944D02*
X24179514Y49159706D01*
X24179514Y49159706D02*
X24369990Y49112087D01*
X24369990Y49112087D02*
X24750942Y49112087D01*
X24750942Y49112087D02*
X24846180Y49159706D01*
X24846180Y49159706D02*
X24893800Y49207325D01*
X24893800Y49207325D02*
X24941419Y49302563D01*
X24941419Y49302563D02*
X24941419Y49493039D01*
X24941419Y49493039D02*
X24893800Y49588277D01*
X24893800Y49588277D02*
X24846180Y49635896D01*
X24846180Y49635896D02*
X24750942Y49683515D01*
X24750942Y49683515D02*
X24512847Y49683515D01*
X24512847Y49683515D02*
X24417609Y49635896D01*
X24417609Y49635896D02*
X24369990Y49588277D01*
X24369990Y49588277D02*
X24322371Y49493039D01*
X24322371Y49493039D02*
X24322371Y49302563D01*
X24322371Y49302563D02*
X24369990Y49207325D01*
X24369990Y49207325D02*
X24417609Y49159706D01*
X24417609Y49159706D02*
X24512847Y49112087D01*
X12845819Y161619134D02*
X12369628Y161285801D01*
X12845819Y161047706D02*
X11845819Y161047706D01*
X11845819Y161047706D02*
X11845819Y161428658D01*
X11845819Y161428658D02*
X11893438Y161523896D01*
X11893438Y161523896D02*
X11941057Y161571515D01*
X11941057Y161571515D02*
X12036295Y161619134D01*
X12036295Y161619134D02*
X12179152Y161619134D01*
X12179152Y161619134D02*
X12274390Y161571515D01*
X12274390Y161571515D02*
X12322009Y161523896D01*
X12322009Y161523896D02*
X12369628Y161428658D01*
X12369628Y161428658D02*
X12369628Y161047706D01*
X11941057Y162000087D02*
X11893438Y162047706D01*
X11893438Y162047706D02*
X11845819Y162142944D01*
X11845819Y162142944D02*
X11845819Y162381039D01*
X11845819Y162381039D02*
X11893438Y162476277D01*
X11893438Y162476277D02*
X11941057Y162523896D01*
X11941057Y162523896D02*
X12036295Y162571515D01*
X12036295Y162571515D02*
X12131533Y162571515D01*
X12131533Y162571515D02*
X12274390Y162523896D01*
X12274390Y162523896D02*
X12845819Y161952468D01*
X12845819Y161952468D02*
X12845819Y162571515D01*
X11805419Y165865705D02*
X11805419Y165389515D01*
X11805419Y165389515D02*
X12281609Y165341896D01*
X12281609Y165341896D02*
X12233990Y165389515D01*
X12233990Y165389515D02*
X12186371Y165484753D01*
X12186371Y165484753D02*
X12186371Y165722848D01*
X12186371Y165722848D02*
X12233990Y165818086D01*
X12233990Y165818086D02*
X12281609Y165865705D01*
X12281609Y165865705D02*
X12376847Y165913324D01*
X12376847Y165913324D02*
X12614942Y165913324D01*
X12614942Y165913324D02*
X12710180Y165865705D01*
X12710180Y165865705D02*
X12757800Y165818086D01*
X12757800Y165818086D02*
X12805419Y165722848D01*
X12805419Y165722848D02*
X12805419Y165484753D01*
X12805419Y165484753D02*
X12757800Y165389515D01*
X12757800Y165389515D02*
X12710180Y165341896D01*
X11805419Y166770467D02*
X11805419Y166579991D01*
X11805419Y166579991D02*
X11853038Y166484753D01*
X11853038Y166484753D02*
X11900657Y166437134D01*
X11900657Y166437134D02*
X12043514Y166341896D01*
X12043514Y166341896D02*
X12233990Y166294277D01*
X12233990Y166294277D02*
X12614942Y166294277D01*
X12614942Y166294277D02*
X12710180Y166341896D01*
X12710180Y166341896D02*
X12757800Y166389515D01*
X12757800Y166389515D02*
X12805419Y166484753D01*
X12805419Y166484753D02*
X12805419Y166675229D01*
X12805419Y166675229D02*
X12757800Y166770467D01*
X12757800Y166770467D02*
X12710180Y166818086D01*
X12710180Y166818086D02*
X12614942Y166865705D01*
X12614942Y166865705D02*
X12376847Y166865705D01*
X12376847Y166865705D02*
X12281609Y166818086D01*
X12281609Y166818086D02*
X12233990Y166770467D01*
X12233990Y166770467D02*
X12186371Y166675229D01*
X12186371Y166675229D02*
X12186371Y166484753D01*
X12186371Y166484753D02*
X12233990Y166389515D01*
X12233990Y166389515D02*
X12281609Y166341896D01*
X12281609Y166341896D02*
X12376847Y166294277D01*
X11025559Y130255332D02*
X10977940Y130207712D01*
X10977940Y130207712D02*
X10835083Y130160093D01*
X10835083Y130160093D02*
X10739845Y130160093D01*
X10739845Y130160093D02*
X10596988Y130207712D01*
X10596988Y130207712D02*
X10501750Y130302951D01*
X10501750Y130302951D02*
X10454131Y130398189D01*
X10454131Y130398189D02*
X10406512Y130588665D01*
X10406512Y130588665D02*
X10406512Y130731522D01*
X10406512Y130731522D02*
X10454131Y130921998D01*
X10454131Y130921998D02*
X10501750Y131017236D01*
X10501750Y131017236D02*
X10596988Y131112474D01*
X10596988Y131112474D02*
X10739845Y131160093D01*
X10739845Y131160093D02*
X10835083Y131160093D01*
X10835083Y131160093D02*
X10977940Y131112474D01*
X10977940Y131112474D02*
X11025559Y131064855D01*
X11406512Y131064855D02*
X11454131Y131112474D01*
X11454131Y131112474D02*
X11549369Y131160093D01*
X11549369Y131160093D02*
X11787464Y131160093D01*
X11787464Y131160093D02*
X11882702Y131112474D01*
X11882702Y131112474D02*
X11930321Y131064855D01*
X11930321Y131064855D02*
X11977940Y130969617D01*
X11977940Y130969617D02*
X11977940Y130874379D01*
X11977940Y130874379D02*
X11930321Y130731522D01*
X11930321Y130731522D02*
X11358893Y130160093D01*
X11358893Y130160093D02*
X11977940Y130160093D01*
X6564797Y130160093D02*
X5993369Y130160093D01*
X6279083Y130160093D02*
X6279083Y131160093D01*
X6279083Y131160093D02*
X6183845Y131017236D01*
X6183845Y131017236D02*
X6088607Y130921998D01*
X6088607Y130921998D02*
X5993369Y130874379D01*
X7183845Y131160093D02*
X7279083Y131160093D01*
X7279083Y131160093D02*
X7374321Y131112474D01*
X7374321Y131112474D02*
X7421940Y131064855D01*
X7421940Y131064855D02*
X7469559Y130969617D01*
X7469559Y130969617D02*
X7517178Y130779141D01*
X7517178Y130779141D02*
X7517178Y130541046D01*
X7517178Y130541046D02*
X7469559Y130350570D01*
X7469559Y130350570D02*
X7421940Y130255332D01*
X7421940Y130255332D02*
X7374321Y130207712D01*
X7374321Y130207712D02*
X7279083Y130160093D01*
X7279083Y130160093D02*
X7183845Y130160093D01*
X7183845Y130160093D02*
X7088607Y130207712D01*
X7088607Y130207712D02*
X7040988Y130255332D01*
X7040988Y130255332D02*
X6993369Y130350570D01*
X6993369Y130350570D02*
X6945750Y130541046D01*
X6945750Y130541046D02*
X6945750Y130779141D01*
X6945750Y130779141D02*
X6993369Y130969617D01*
X6993369Y130969617D02*
X7040988Y131064855D01*
X7040988Y131064855D02*
X7088607Y131112474D01*
X7088607Y131112474D02*
X7183845Y131160093D01*
X8374321Y130826760D02*
X8374321Y130160093D01*
X7945750Y130826760D02*
X7945750Y130302951D01*
X7945750Y130302951D02*
X7993369Y130207712D01*
X7993369Y130207712D02*
X8088607Y130160093D01*
X8088607Y130160093D02*
X8231464Y130160093D01*
X8231464Y130160093D02*
X8326702Y130207712D01*
X8326702Y130207712D02*
X8374321Y130255332D01*
X9183845Y130683903D02*
X8850512Y130683903D01*
X8850512Y130160093D02*
X8850512Y131160093D01*
X8850512Y131160093D02*
X9326702Y131160093D01*
X28090932Y91964706D02*
X27090932Y91964706D01*
X27090932Y91964706D02*
X27090932Y92202801D01*
X27090932Y92202801D02*
X27138551Y92345658D01*
X27138551Y92345658D02*
X27233789Y92440896D01*
X27233789Y92440896D02*
X27329027Y92488515D01*
X27329027Y92488515D02*
X27519503Y92536134D01*
X27519503Y92536134D02*
X27662360Y92536134D01*
X27662360Y92536134D02*
X27852836Y92488515D01*
X27852836Y92488515D02*
X27948074Y92440896D01*
X27948074Y92440896D02*
X28043313Y92345658D01*
X28043313Y92345658D02*
X28090932Y92202801D01*
X28090932Y92202801D02*
X28090932Y91964706D01*
X28090932Y93488515D02*
X28090932Y92917087D01*
X28090932Y93202801D02*
X27090932Y93202801D01*
X27090932Y93202801D02*
X27233789Y93107563D01*
X27233789Y93107563D02*
X27329027Y93012325D01*
X27329027Y93012325D02*
X27376646Y92917087D01*
X27924932Y95258943D02*
X27924932Y94687515D01*
X27924932Y94973229D02*
X26924932Y94973229D01*
X26924932Y94973229D02*
X27067789Y94877991D01*
X27067789Y94877991D02*
X27163027Y94782753D01*
X27163027Y94782753D02*
X27210646Y94687515D01*
X27924932Y95687515D02*
X26924932Y95687515D01*
X26924932Y95687515D02*
X27924932Y96258943D01*
X27924932Y96258943D02*
X26924932Y96258943D01*
X26924932Y97211324D02*
X26924932Y96735134D01*
X26924932Y96735134D02*
X27401122Y96687515D01*
X27401122Y96687515D02*
X27353503Y96735134D01*
X27353503Y96735134D02*
X27305884Y96830372D01*
X27305884Y96830372D02*
X27305884Y97068467D01*
X27305884Y97068467D02*
X27353503Y97163705D01*
X27353503Y97163705D02*
X27401122Y97211324D01*
X27401122Y97211324D02*
X27496360Y97258943D01*
X27496360Y97258943D02*
X27734455Y97258943D01*
X27734455Y97258943D02*
X27829693Y97211324D01*
X27829693Y97211324D02*
X27877313Y97163705D01*
X27877313Y97163705D02*
X27924932Y97068467D01*
X27924932Y97068467D02*
X27924932Y96830372D01*
X27924932Y96830372D02*
X27877313Y96735134D01*
X27877313Y96735134D02*
X27829693Y96687515D01*
X26924932Y97592277D02*
X26924932Y98258943D01*
X26924932Y98258943D02*
X27924932Y97830372D01*
X27924932Y99163705D02*
X27924932Y98592277D01*
X27924932Y98877991D02*
X26924932Y98877991D01*
X26924932Y98877991D02*
X27067789Y98782753D01*
X27067789Y98782753D02*
X27163027Y98687515D01*
X27163027Y98687515D02*
X27210646Y98592277D01*
X27924932Y100116086D02*
X27924932Y99544658D01*
X27924932Y99830372D02*
X26924932Y99830372D01*
X26924932Y99830372D02*
X27067789Y99735134D01*
X27067789Y99735134D02*
X27163027Y99639896D01*
X27163027Y99639896D02*
X27210646Y99544658D01*
X28090932Y90027896D02*
X27090932Y90027896D01*
X28090932Y90599324D02*
X27519503Y90170753D01*
X27090932Y90599324D02*
X27662360Y90027896D01*
X16129019Y16066734D02*
X15652828Y15733401D01*
X16129019Y15495306D02*
X15129019Y15495306D01*
X15129019Y15495306D02*
X15129019Y15876258D01*
X15129019Y15876258D02*
X15176638Y15971496D01*
X15176638Y15971496D02*
X15224257Y16019115D01*
X15224257Y16019115D02*
X15319495Y16066734D01*
X15319495Y16066734D02*
X15462352Y16066734D01*
X15462352Y16066734D02*
X15557590Y16019115D01*
X15557590Y16019115D02*
X15605209Y15971496D01*
X15605209Y15971496D02*
X15652828Y15876258D01*
X15652828Y15876258D02*
X15652828Y15495306D01*
X16129019Y17019115D02*
X16129019Y16447687D01*
X16129019Y16733401D02*
X15129019Y16733401D01*
X15129019Y16733401D02*
X15271876Y16638163D01*
X15271876Y16638163D02*
X15367114Y16542925D01*
X15367114Y16542925D02*
X15414733Y16447687D01*
X28721819Y146212467D02*
X29436104Y146212467D01*
X29436104Y146212467D02*
X29578961Y146164848D01*
X29578961Y146164848D02*
X29674200Y146069610D01*
X29674200Y146069610D02*
X29721819Y145926753D01*
X29721819Y145926753D02*
X29721819Y145831515D01*
X28817057Y146641039D02*
X28769438Y146688658D01*
X28769438Y146688658D02*
X28721819Y146783896D01*
X28721819Y146783896D02*
X28721819Y147021991D01*
X28721819Y147021991D02*
X28769438Y147117229D01*
X28769438Y147117229D02*
X28817057Y147164848D01*
X28817057Y147164848D02*
X28912295Y147212467D01*
X28912295Y147212467D02*
X29007533Y147212467D01*
X29007533Y147212467D02*
X29150390Y147164848D01*
X29150390Y147164848D02*
X29721819Y146593420D01*
X29721819Y146593420D02*
X29721819Y147212467D01*
X7122180Y146698724D02*
X7169800Y146651105D01*
X7169800Y146651105D02*
X7217419Y146508248D01*
X7217419Y146508248D02*
X7217419Y146413010D01*
X7217419Y146413010D02*
X7169800Y146270153D01*
X7169800Y146270153D02*
X7074561Y146174915D01*
X7074561Y146174915D02*
X6979323Y146127296D01*
X6979323Y146127296D02*
X6788847Y146079677D01*
X6788847Y146079677D02*
X6645990Y146079677D01*
X6645990Y146079677D02*
X6455514Y146127296D01*
X6455514Y146127296D02*
X6360276Y146174915D01*
X6360276Y146174915D02*
X6265038Y146270153D01*
X6265038Y146270153D02*
X6217419Y146413010D01*
X6217419Y146413010D02*
X6217419Y146508248D01*
X6217419Y146508248D02*
X6265038Y146651105D01*
X6265038Y146651105D02*
X6312657Y146698724D01*
X6217419Y147413010D02*
X6931704Y147413010D01*
X6931704Y147413010D02*
X7074561Y147365391D01*
X7074561Y147365391D02*
X7169800Y147270153D01*
X7169800Y147270153D02*
X7217419Y147127296D01*
X7217419Y147127296D02*
X7217419Y147032058D01*
X7217419Y147889201D02*
X6217419Y147889201D01*
X6217419Y147889201D02*
X6931704Y148222534D01*
X6931704Y148222534D02*
X6217419Y148555867D01*
X6217419Y148555867D02*
X7217419Y148555867D01*
X7122180Y149603486D02*
X7169800Y149555867D01*
X7169800Y149555867D02*
X7217419Y149413010D01*
X7217419Y149413010D02*
X7217419Y149317772D01*
X7217419Y149317772D02*
X7169800Y149174915D01*
X7169800Y149174915D02*
X7074561Y149079677D01*
X7074561Y149079677D02*
X6979323Y149032058D01*
X6979323Y149032058D02*
X6788847Y148984439D01*
X6788847Y148984439D02*
X6645990Y148984439D01*
X6645990Y148984439D02*
X6455514Y149032058D01*
X6455514Y149032058D02*
X6360276Y149079677D01*
X6360276Y149079677D02*
X6265038Y149174915D01*
X6265038Y149174915D02*
X6217419Y149317772D01*
X6217419Y149317772D02*
X6217419Y149413010D01*
X6217419Y149413010D02*
X6265038Y149555867D01*
X6265038Y149555867D02*
X6312657Y149603486D01*
X6217419Y150032058D02*
X7026942Y150032058D01*
X7026942Y150032058D02*
X7122180Y150079677D01*
X7122180Y150079677D02*
X7169800Y150127296D01*
X7169800Y150127296D02*
X7217419Y150222534D01*
X7217419Y150222534D02*
X7217419Y150413010D01*
X7217419Y150413010D02*
X7169800Y150508248D01*
X7169800Y150508248D02*
X7122180Y150555867D01*
X7122180Y150555867D02*
X7026942Y150603486D01*
X7026942Y150603486D02*
X6217419Y150603486D01*
X6836466Y151079677D02*
X6836466Y151841581D01*
X7217419Y152365391D02*
X7217419Y152555867D01*
X7217419Y152555867D02*
X7169800Y152651105D01*
X7169800Y152651105D02*
X7122180Y152698724D01*
X7122180Y152698724D02*
X6979323Y152793962D01*
X6979323Y152793962D02*
X6788847Y152841581D01*
X6788847Y152841581D02*
X6407895Y152841581D01*
X6407895Y152841581D02*
X6312657Y152793962D01*
X6312657Y152793962D02*
X6265038Y152746343D01*
X6265038Y152746343D02*
X6217419Y152651105D01*
X6217419Y152651105D02*
X6217419Y152460629D01*
X6217419Y152460629D02*
X6265038Y152365391D01*
X6265038Y152365391D02*
X6312657Y152317772D01*
X6312657Y152317772D02*
X6407895Y152270153D01*
X6407895Y152270153D02*
X6645990Y152270153D01*
X6645990Y152270153D02*
X6741228Y152317772D01*
X6741228Y152317772D02*
X6788847Y152365391D01*
X6788847Y152365391D02*
X6836466Y152460629D01*
X6836466Y152460629D02*
X6836466Y152651105D01*
X6836466Y152651105D02*
X6788847Y152746343D01*
X6788847Y152746343D02*
X6741228Y152793962D01*
X6741228Y152793962D02*
X6645990Y152841581D01*
X6645990Y153413010D02*
X6598371Y153317772D01*
X6598371Y153317772D02*
X6550752Y153270153D01*
X6550752Y153270153D02*
X6455514Y153222534D01*
X6455514Y153222534D02*
X6407895Y153222534D01*
X6407895Y153222534D02*
X6312657Y153270153D01*
X6312657Y153270153D02*
X6265038Y153317772D01*
X6265038Y153317772D02*
X6217419Y153413010D01*
X6217419Y153413010D02*
X6217419Y153603486D01*
X6217419Y153603486D02*
X6265038Y153698724D01*
X6265038Y153698724D02*
X6312657Y153746343D01*
X6312657Y153746343D02*
X6407895Y153793962D01*
X6407895Y153793962D02*
X6455514Y153793962D01*
X6455514Y153793962D02*
X6550752Y153746343D01*
X6550752Y153746343D02*
X6598371Y153698724D01*
X6598371Y153698724D02*
X6645990Y153603486D01*
X6645990Y153603486D02*
X6645990Y153413010D01*
X6645990Y153413010D02*
X6693609Y153317772D01*
X6693609Y153317772D02*
X6741228Y153270153D01*
X6741228Y153270153D02*
X6836466Y153222534D01*
X6836466Y153222534D02*
X7026942Y153222534D01*
X7026942Y153222534D02*
X7122180Y153270153D01*
X7122180Y153270153D02*
X7169800Y153317772D01*
X7169800Y153317772D02*
X7217419Y153413010D01*
X7217419Y153413010D02*
X7217419Y153603486D01*
X7217419Y153603486D02*
X7169800Y153698724D01*
X7169800Y153698724D02*
X7122180Y153746343D01*
X7122180Y153746343D02*
X7026942Y153793962D01*
X7026942Y153793962D02*
X6836466Y153793962D01*
X6836466Y153793962D02*
X6741228Y153746343D01*
X6741228Y153746343D02*
X6693609Y153698724D01*
X6693609Y153698724D02*
X6645990Y153603486D01*
X6217419Y154127296D02*
X6217419Y154746343D01*
X6217419Y154746343D02*
X6598371Y154413010D01*
X6598371Y154413010D02*
X6598371Y154555867D01*
X6598371Y154555867D02*
X6645990Y154651105D01*
X6645990Y154651105D02*
X6693609Y154698724D01*
X6693609Y154698724D02*
X6788847Y154746343D01*
X6788847Y154746343D02*
X7026942Y154746343D01*
X7026942Y154746343D02*
X7122180Y154698724D01*
X7122180Y154698724D02*
X7169800Y154651105D01*
X7169800Y154651105D02*
X7217419Y154555867D01*
X7217419Y154555867D02*
X7217419Y154270153D01*
X7217419Y154270153D02*
X7169800Y154174915D01*
X7169800Y154174915D02*
X7122180Y154127296D01*
X6217419Y155079677D02*
X6217419Y155698724D01*
X6217419Y155698724D02*
X6598371Y155365391D01*
X6598371Y155365391D02*
X6598371Y155508248D01*
X6598371Y155508248D02*
X6645990Y155603486D01*
X6645990Y155603486D02*
X6693609Y155651105D01*
X6693609Y155651105D02*
X6788847Y155698724D01*
X6788847Y155698724D02*
X7026942Y155698724D01*
X7026942Y155698724D02*
X7122180Y155651105D01*
X7122180Y155651105D02*
X7169800Y155603486D01*
X7169800Y155603486D02*
X7217419Y155508248D01*
X7217419Y155508248D02*
X7217419Y155222534D01*
X7217419Y155222534D02*
X7169800Y155127296D01*
X7169800Y155127296D02*
X7122180Y155079677D01*
X20524208Y102010981D02*
X20524208Y101201458D01*
X20524208Y101201458D02*
X20571827Y101106220D01*
X20571827Y101106220D02*
X20619446Y101058600D01*
X20619446Y101058600D02*
X20714684Y101010981D01*
X20714684Y101010981D02*
X20905160Y101010981D01*
X20905160Y101010981D02*
X21000398Y101058600D01*
X21000398Y101058600D02*
X21048017Y101106220D01*
X21048017Y101106220D02*
X21095636Y101201458D01*
X21095636Y101201458D02*
X21095636Y102010981D01*
X22095636Y101010981D02*
X21524208Y101010981D01*
X21809922Y101010981D02*
X21809922Y102010981D01*
X21809922Y102010981D02*
X21714684Y101868124D01*
X21714684Y101868124D02*
X21619446Y101772886D01*
X21619446Y101772886D02*
X21524208Y101725267D01*
X13960065Y102010981D02*
X14531493Y102010981D01*
X14245779Y101010981D02*
X14245779Y102010981D01*
X15341017Y101010981D02*
X14864827Y101010981D01*
X14864827Y101010981D02*
X14864827Y102010981D01*
X15864827Y102010981D02*
X15960065Y102010981D01*
X15960065Y102010981D02*
X16055303Y101963362D01*
X16055303Y101963362D02*
X16102922Y101915743D01*
X16102922Y101915743D02*
X16150541Y101820505D01*
X16150541Y101820505D02*
X16198160Y101630029D01*
X16198160Y101630029D02*
X16198160Y101391934D01*
X16198160Y101391934D02*
X16150541Y101201458D01*
X16150541Y101201458D02*
X16102922Y101106220D01*
X16102922Y101106220D02*
X16055303Y101058600D01*
X16055303Y101058600D02*
X15960065Y101010981D01*
X15960065Y101010981D02*
X15864827Y101010981D01*
X15864827Y101010981D02*
X15769589Y101058600D01*
X15769589Y101058600D02*
X15721970Y101106220D01*
X15721970Y101106220D02*
X15674351Y101201458D01*
X15674351Y101201458D02*
X15626732Y101391934D01*
X15626732Y101391934D02*
X15626732Y101630029D01*
X15626732Y101630029D02*
X15674351Y101820505D01*
X15674351Y101820505D02*
X15721970Y101915743D01*
X15721970Y101915743D02*
X15769589Y101963362D01*
X15769589Y101963362D02*
X15864827Y102010981D01*
X16769589Y101582410D02*
X16674351Y101630029D01*
X16674351Y101630029D02*
X16626732Y101677648D01*
X16626732Y101677648D02*
X16579113Y101772886D01*
X16579113Y101772886D02*
X16579113Y101820505D01*
X16579113Y101820505D02*
X16626732Y101915743D01*
X16626732Y101915743D02*
X16674351Y101963362D01*
X16674351Y101963362D02*
X16769589Y102010981D01*
X16769589Y102010981D02*
X16960065Y102010981D01*
X16960065Y102010981D02*
X17055303Y101963362D01*
X17055303Y101963362D02*
X17102922Y101915743D01*
X17102922Y101915743D02*
X17150541Y101820505D01*
X17150541Y101820505D02*
X17150541Y101772886D01*
X17150541Y101772886D02*
X17102922Y101677648D01*
X17102922Y101677648D02*
X17055303Y101630029D01*
X17055303Y101630029D02*
X16960065Y101582410D01*
X16960065Y101582410D02*
X16769589Y101582410D01*
X16769589Y101582410D02*
X16674351Y101534791D01*
X16674351Y101534791D02*
X16626732Y101487172D01*
X16626732Y101487172D02*
X16579113Y101391934D01*
X16579113Y101391934D02*
X16579113Y101201458D01*
X16579113Y101201458D02*
X16626732Y101106220D01*
X16626732Y101106220D02*
X16674351Y101058600D01*
X16674351Y101058600D02*
X16769589Y101010981D01*
X16769589Y101010981D02*
X16960065Y101010981D01*
X16960065Y101010981D02*
X17055303Y101058600D01*
X17055303Y101058600D02*
X17102922Y101106220D01*
X17102922Y101106220D02*
X17150541Y101201458D01*
X17150541Y101201458D02*
X17150541Y101391934D01*
X17150541Y101391934D02*
X17102922Y101487172D01*
X17102922Y101487172D02*
X17055303Y101534791D01*
X17055303Y101534791D02*
X16960065Y101582410D01*
X17531494Y101915743D02*
X17579113Y101963362D01*
X17579113Y101963362D02*
X17674351Y102010981D01*
X17674351Y102010981D02*
X17912446Y102010981D01*
X17912446Y102010981D02*
X18007684Y101963362D01*
X18007684Y101963362D02*
X18055303Y101915743D01*
X18055303Y101915743D02*
X18102922Y101820505D01*
X18102922Y101820505D02*
X18102922Y101725267D01*
X18102922Y101725267D02*
X18055303Y101582410D01*
X18055303Y101582410D02*
X17483875Y101010981D01*
X17483875Y101010981D02*
X18102922Y101010981D01*
X16958208Y95543981D02*
X16958208Y94734458D01*
X16958208Y94734458D02*
X17005827Y94639220D01*
X17005827Y94639220D02*
X17053446Y94591600D01*
X17053446Y94591600D02*
X17148684Y94543981D01*
X17148684Y94543981D02*
X17339160Y94543981D01*
X17339160Y94543981D02*
X17434398Y94591600D01*
X17434398Y94591600D02*
X17482017Y94639220D01*
X17482017Y94639220D02*
X17529636Y94734458D01*
X17529636Y94734458D02*
X17529636Y95543981D01*
X18529636Y94543981D02*
X17958208Y94543981D01*
X18243922Y94543981D02*
X18243922Y95543981D01*
X18243922Y95543981D02*
X18148684Y95401124D01*
X18148684Y95401124D02*
X18053446Y95305886D01*
X18053446Y95305886D02*
X17958208Y95258267D01*
X3425019Y5740067D02*
X4139304Y5740067D01*
X4139304Y5740067D02*
X4282161Y5692448D01*
X4282161Y5692448D02*
X4377400Y5597210D01*
X4377400Y5597210D02*
X4425019Y5454353D01*
X4425019Y5454353D02*
X4425019Y5359115D01*
X4425019Y6740067D02*
X4425019Y6168639D01*
X4425019Y6454353D02*
X3425019Y6454353D01*
X3425019Y6454353D02*
X3567876Y6359115D01*
X3567876Y6359115D02*
X3663114Y6263877D01*
X3663114Y6263877D02*
X3710733Y6168639D01*
X22299819Y16269934D02*
X21823628Y15936601D01*
X22299819Y15698506D02*
X21299819Y15698506D01*
X21299819Y15698506D02*
X21299819Y16079458D01*
X21299819Y16079458D02*
X21347438Y16174696D01*
X21347438Y16174696D02*
X21395057Y16222315D01*
X21395057Y16222315D02*
X21490295Y16269934D01*
X21490295Y16269934D02*
X21633152Y16269934D01*
X21633152Y16269934D02*
X21728390Y16222315D01*
X21728390Y16222315D02*
X21776009Y16174696D01*
X21776009Y16174696D02*
X21823628Y16079458D01*
X21823628Y16079458D02*
X21823628Y15698506D01*
X21395057Y16650887D02*
X21347438Y16698506D01*
X21347438Y16698506D02*
X21299819Y16793744D01*
X21299819Y16793744D02*
X21299819Y17031839D01*
X21299819Y17031839D02*
X21347438Y17127077D01*
X21347438Y17127077D02*
X21395057Y17174696D01*
X21395057Y17174696D02*
X21490295Y17222315D01*
X21490295Y17222315D02*
X21585533Y17222315D01*
X21585533Y17222315D02*
X21728390Y17174696D01*
X21728390Y17174696D02*
X22299819Y16603268D01*
X22299819Y16603268D02*
X22299819Y17222315D01*
X17824219Y161568334D02*
X17348028Y161235001D01*
X17824219Y160996906D02*
X16824219Y160996906D01*
X16824219Y160996906D02*
X16824219Y161377858D01*
X16824219Y161377858D02*
X16871838Y161473096D01*
X16871838Y161473096D02*
X16919457Y161520715D01*
X16919457Y161520715D02*
X17014695Y161568334D01*
X17014695Y161568334D02*
X17157552Y161568334D01*
X17157552Y161568334D02*
X17252790Y161520715D01*
X17252790Y161520715D02*
X17300409Y161473096D01*
X17300409Y161473096D02*
X17348028Y161377858D01*
X17348028Y161377858D02*
X17348028Y160996906D01*
X16824219Y161901668D02*
X16824219Y162520715D01*
X16824219Y162520715D02*
X17205171Y162187382D01*
X17205171Y162187382D02*
X17205171Y162330239D01*
X17205171Y162330239D02*
X17252790Y162425477D01*
X17252790Y162425477D02*
X17300409Y162473096D01*
X17300409Y162473096D02*
X17395647Y162520715D01*
X17395647Y162520715D02*
X17633742Y162520715D01*
X17633742Y162520715D02*
X17728980Y162473096D01*
X17728980Y162473096D02*
X17776600Y162425477D01*
X17776600Y162425477D02*
X17824219Y162330239D01*
X17824219Y162330239D02*
X17824219Y162044525D01*
X17824219Y162044525D02*
X17776600Y161949287D01*
X17776600Y161949287D02*
X17728980Y161901668D01*
X17783819Y164981572D02*
X17783819Y164410144D01*
X17783819Y164695858D02*
X16783819Y164695858D01*
X16783819Y164695858D02*
X16926676Y164600620D01*
X16926676Y164600620D02*
X17021914Y164505382D01*
X17021914Y164505382D02*
X17069533Y164410144D01*
X16879057Y165362525D02*
X16831438Y165410144D01*
X16831438Y165410144D02*
X16783819Y165505382D01*
X16783819Y165505382D02*
X16783819Y165743477D01*
X16783819Y165743477D02*
X16831438Y165838715D01*
X16831438Y165838715D02*
X16879057Y165886334D01*
X16879057Y165886334D02*
X16974295Y165933953D01*
X16974295Y165933953D02*
X17069533Y165933953D01*
X17069533Y165933953D02*
X17212390Y165886334D01*
X17212390Y165886334D02*
X17783819Y165314906D01*
X17783819Y165314906D02*
X17783819Y165933953D01*
X16783819Y166553001D02*
X16783819Y166648239D01*
X16783819Y166648239D02*
X16831438Y166743477D01*
X16831438Y166743477D02*
X16879057Y166791096D01*
X16879057Y166791096D02*
X16974295Y166838715D01*
X16974295Y166838715D02*
X17164771Y166886334D01*
X17164771Y166886334D02*
X17402866Y166886334D01*
X17402866Y166886334D02*
X17593342Y166838715D01*
X17593342Y166838715D02*
X17688580Y166791096D01*
X17688580Y166791096D02*
X17736200Y166743477D01*
X17736200Y166743477D02*
X17783819Y166648239D01*
X17783819Y166648239D02*
X17783819Y166553001D01*
X17783819Y166553001D02*
X17736200Y166457763D01*
X17736200Y166457763D02*
X17688580Y166410144D01*
X17688580Y166410144D02*
X17593342Y166362525D01*
X17593342Y166362525D02*
X17402866Y166314906D01*
X17402866Y166314906D02*
X17164771Y166314906D01*
X17164771Y166314906D02*
X16974295Y166362525D01*
X16974295Y166362525D02*
X16879057Y166410144D01*
X16879057Y166410144D02*
X16831438Y166457763D01*
X16831438Y166457763D02*
X16783819Y166553001D01*
X17783819Y167314906D02*
X16783819Y167314906D01*
X17402866Y167410144D02*
X17783819Y167695858D01*
X17117152Y167695858D02*
X17498104Y167314906D01*
X7143266Y27631181D02*
X7143266Y26916896D01*
X7143266Y26916896D02*
X7095647Y26774039D01*
X7095647Y26774039D02*
X7000409Y26678800D01*
X7000409Y26678800D02*
X6857552Y26631181D01*
X6857552Y26631181D02*
X6762314Y26631181D01*
X7619457Y26631181D02*
X7619457Y27631181D01*
X7619457Y27631181D02*
X8000409Y27631181D01*
X8000409Y27631181D02*
X8095647Y27583562D01*
X8095647Y27583562D02*
X8143266Y27535943D01*
X8143266Y27535943D02*
X8190885Y27440705D01*
X8190885Y27440705D02*
X8190885Y27297848D01*
X8190885Y27297848D02*
X8143266Y27202610D01*
X8143266Y27202610D02*
X8095647Y27154991D01*
X8095647Y27154991D02*
X8000409Y27107372D01*
X8000409Y27107372D02*
X7619457Y27107372D01*
X8571838Y27535943D02*
X8619457Y27583562D01*
X8619457Y27583562D02*
X8714695Y27631181D01*
X8714695Y27631181D02*
X8952790Y27631181D01*
X8952790Y27631181D02*
X9048028Y27583562D01*
X9048028Y27583562D02*
X9095647Y27535943D01*
X9095647Y27535943D02*
X9143266Y27440705D01*
X9143266Y27440705D02*
X9143266Y27345467D01*
X9143266Y27345467D02*
X9095647Y27202610D01*
X9095647Y27202610D02*
X8524219Y26631181D01*
X8524219Y26631181D02*
X9143266Y26631181D01*
X19087446Y106471981D02*
X18754113Y106948172D01*
X18516018Y106471981D02*
X18516018Y107471981D01*
X18516018Y107471981D02*
X18896970Y107471981D01*
X18896970Y107471981D02*
X18992208Y107424362D01*
X18992208Y107424362D02*
X19039827Y107376743D01*
X19039827Y107376743D02*
X19087446Y107281505D01*
X19087446Y107281505D02*
X19087446Y107138648D01*
X19087446Y107138648D02*
X19039827Y107043410D01*
X19039827Y107043410D02*
X18992208Y106995791D01*
X18992208Y106995791D02*
X18896970Y106948172D01*
X18896970Y106948172D02*
X18516018Y106948172D01*
X20039827Y106471981D02*
X19468399Y106471981D01*
X19754113Y106471981D02*
X19754113Y107471981D01*
X19754113Y107471981D02*
X19658875Y107329124D01*
X19658875Y107329124D02*
X19563637Y107233886D01*
X19563637Y107233886D02*
X19468399Y107186267D01*
X16214065Y106471981D02*
X15642637Y106471981D01*
X15928351Y106471981D02*
X15928351Y107471981D01*
X15928351Y107471981D02*
X15833113Y107329124D01*
X15833113Y107329124D02*
X15737875Y107233886D01*
X15737875Y107233886D02*
X15642637Y107186267D01*
X16642637Y106471981D02*
X16642637Y107471981D01*
X16737875Y106852934D02*
X17023589Y106471981D01*
X17023589Y107138648D02*
X16642637Y106757696D01*
X7295666Y13635781D02*
X7295666Y12921496D01*
X7295666Y12921496D02*
X7248047Y12778639D01*
X7248047Y12778639D02*
X7152809Y12683400D01*
X7152809Y12683400D02*
X7009952Y12635781D01*
X7009952Y12635781D02*
X6914714Y12635781D01*
X7771857Y12635781D02*
X7771857Y13635781D01*
X7771857Y13635781D02*
X8152809Y13635781D01*
X8152809Y13635781D02*
X8248047Y13588162D01*
X8248047Y13588162D02*
X8295666Y13540543D01*
X8295666Y13540543D02*
X8343285Y13445305D01*
X8343285Y13445305D02*
X8343285Y13302448D01*
X8343285Y13302448D02*
X8295666Y13207210D01*
X8295666Y13207210D02*
X8248047Y13159591D01*
X8248047Y13159591D02*
X8152809Y13111972D01*
X8152809Y13111972D02*
X7771857Y13111972D01*
X9295666Y12635781D02*
X8724238Y12635781D01*
X9009952Y12635781D02*
X9009952Y13635781D01*
X9009952Y13635781D02*
X8914714Y13492924D01*
X8914714Y13492924D02*
X8819476Y13397686D01*
X8819476Y13397686D02*
X8724238Y13350067D01*
D13*
%TO.C,J1*%
X8907113Y78418800D02*
X8907113Y79748800D01*
X10237113Y78418800D02*
X8907113Y78418800D01*
X11507113Y78418800D02*
X26807113Y78418800D01*
X11507113Y78418800D02*
X11507113Y81078800D01*
X26807113Y78418800D02*
X26807113Y81078800D01*
X11507113Y81078800D02*
X26807113Y81078800D01*
%TO.C,R1*%
X7931000Y159955600D02*
X7931000Y160725600D01*
X6561000Y160725600D02*
X9301000Y160725600D01*
X9301000Y160725600D02*
X9301000Y167265600D01*
X6561000Y167265600D02*
X6561000Y160725600D01*
X9301000Y167265600D02*
X6561000Y167265600D01*
X7931000Y168035600D02*
X7931000Y167265600D01*
%TO.C,L1*%
X13310600Y28170000D02*
X13310600Y28590000D01*
X11540600Y28590000D02*
X15080600Y28590000D01*
X15080600Y28590000D02*
X15080600Y35830000D01*
X11540600Y35830000D02*
X11540600Y28590000D01*
X15080600Y35830000D02*
X11540600Y35830000D01*
X13310600Y36250000D02*
X13310600Y35830000D01*
%TO.C,D2*%
X14833113Y86352800D02*
X15483113Y86352800D01*
X15483113Y87472800D02*
X15483113Y85232800D01*
X15483113Y85232800D02*
X19723113Y85232800D01*
X16083113Y87472800D02*
X16083113Y85232800D01*
X16203113Y87472800D02*
X16203113Y85232800D01*
X16323113Y87472800D02*
X16323113Y85232800D01*
X19723113Y87472800D02*
X15483113Y87472800D01*
X19723113Y85232800D02*
X19723113Y87472800D01*
X20373113Y86352800D02*
X19723113Y86352800D01*
%TO.C,R4*%
X9602200Y55884200D02*
X9602200Y55114200D01*
X10972200Y55114200D02*
X8232200Y55114200D01*
X8232200Y55114200D02*
X8232200Y48574200D01*
X10972200Y48574200D02*
X10972200Y55114200D01*
X8232200Y48574200D02*
X10972200Y48574200D01*
X9602200Y47804200D02*
X9602200Y48574200D01*
%TO.C,J1*%
X4467400Y138434000D02*
X4467400Y139764000D01*
X5797400Y138434000D02*
X4467400Y138434000D01*
X7067400Y138434000D02*
X27447400Y138434000D01*
X7067400Y138434000D02*
X7067400Y141094000D01*
X27447400Y138434000D02*
X27447400Y141094000D01*
X7067400Y141094000D02*
X27447400Y141094000D01*
%TO.C,R4*%
X14460113Y128489800D02*
X21000113Y128489800D01*
X14460113Y128159800D02*
X14460113Y128489800D01*
X14460113Y126079800D02*
X14460113Y125749800D01*
X14460113Y125749800D02*
X21000113Y125749800D01*
X21000113Y128489800D02*
X21000113Y128159800D01*
X21000113Y125749800D02*
X21000113Y126079800D01*
%TO.C,U1*%
X9442200Y71309000D02*
X9442200Y60909000D01*
X9442200Y60909000D02*
X19942200Y60909000D01*
X12442200Y71249000D02*
X12442200Y60969000D01*
X12442200Y60969000D02*
X16942200Y60969000D01*
X13692200Y71249000D02*
X12442200Y71249000D01*
X16942200Y71249000D02*
X15692200Y71249000D01*
X16942200Y60969000D02*
X16942200Y71249000D01*
X19942200Y71309000D02*
X9442200Y71309000D01*
X19942200Y60909000D02*
X19942200Y71309000D01*
X13692200Y71249000D02*
G75*
G03*
X15692200Y71249000I1000000J0D01*
G01*
%TO.C,R4*%
X26371400Y160184200D02*
X26371400Y160954200D01*
X25001400Y160954200D02*
X27741400Y160954200D01*
X27741400Y160954200D02*
X27741400Y167494200D01*
X25001400Y167494200D02*
X25001400Y160954200D01*
X27741400Y167494200D02*
X25001400Y167494200D01*
X26371400Y168264200D02*
X26371400Y167494200D01*
%TO.C,U2*%
X22970113Y112658800D02*
X22970113Y123058800D01*
X22970113Y123058800D02*
X12470113Y123058800D01*
X19970113Y112718800D02*
X19970113Y122998800D01*
X19970113Y122998800D02*
X15470113Y122998800D01*
X18720113Y112718800D02*
X19970113Y112718800D01*
X15470113Y112718800D02*
X16720113Y112718800D01*
X15470113Y122998800D02*
X15470113Y112718800D01*
X12470113Y112658800D02*
X22970113Y112658800D01*
X12470113Y123058800D02*
X12470113Y112658800D01*
X18720113Y112718800D02*
G75*
G03*
X16720113Y112718800I-1000000J0D01*
G01*
%TO.C,C1*%
X11854001Y102530800D02*
X11354001Y102530800D01*
X11604001Y102280800D02*
X11604001Y102780800D01*
X9049226Y101425800D02*
X9049226Y102965800D01*
X9049226Y105045800D02*
X9049226Y106585800D01*
X9009226Y101425800D02*
X9009226Y102965800D01*
X9009226Y105045800D02*
X9009226Y106585800D01*
X8969226Y101426800D02*
X8969226Y102965800D01*
X8969226Y105045800D02*
X8969226Y106584800D01*
X8929226Y101427800D02*
X8929226Y102965800D01*
X8929226Y105045800D02*
X8929226Y106583800D01*
X8889226Y101429800D02*
X8889226Y102965800D01*
X8889226Y105045800D02*
X8889226Y106581800D01*
X8849226Y101432800D02*
X8849226Y102965800D01*
X8849226Y105045800D02*
X8849226Y106578800D01*
X8809226Y101436800D02*
X8809226Y102965800D01*
X8809226Y105045800D02*
X8809226Y106574800D01*
X8769226Y101440800D02*
X8769226Y102965800D01*
X8769226Y105045800D02*
X8769226Y106570800D01*
X8729226Y101444800D02*
X8729226Y102965800D01*
X8729226Y105045800D02*
X8729226Y106566800D01*
X8689226Y101449800D02*
X8689226Y102965800D01*
X8689226Y105045800D02*
X8689226Y106561800D01*
X8649226Y101455800D02*
X8649226Y102965800D01*
X8649226Y105045800D02*
X8649226Y106555800D01*
X8609226Y101462800D02*
X8609226Y102965800D01*
X8609226Y105045800D02*
X8609226Y106548800D01*
X8569226Y101469800D02*
X8569226Y102965800D01*
X8569226Y105045800D02*
X8569226Y106541800D01*
X8529226Y101477800D02*
X8529226Y102965800D01*
X8529226Y105045800D02*
X8529226Y106533800D01*
X8489226Y101485800D02*
X8489226Y102965800D01*
X8489226Y105045800D02*
X8489226Y106525800D01*
X8449226Y101494800D02*
X8449226Y102965800D01*
X8449226Y105045800D02*
X8449226Y106516800D01*
X8409226Y101504800D02*
X8409226Y102965800D01*
X8409226Y105045800D02*
X8409226Y106506800D01*
X8369226Y101514800D02*
X8369226Y102965800D01*
X8369226Y105045800D02*
X8369226Y106496800D01*
X8328226Y101525800D02*
X8328226Y102965800D01*
X8328226Y105045800D02*
X8328226Y106485800D01*
X8288226Y101537800D02*
X8288226Y102965800D01*
X8288226Y105045800D02*
X8288226Y106473800D01*
X8248226Y101550800D02*
X8248226Y102965800D01*
X8248226Y105045800D02*
X8248226Y106460800D01*
X8208226Y101563800D02*
X8208226Y102965800D01*
X8208226Y105045800D02*
X8208226Y106447800D01*
X8168226Y101577800D02*
X8168226Y102965800D01*
X8168226Y105045800D02*
X8168226Y106433800D01*
X8128226Y101591800D02*
X8128226Y102965800D01*
X8128226Y105045800D02*
X8128226Y106419800D01*
X8088226Y101607800D02*
X8088226Y102965800D01*
X8088226Y105045800D02*
X8088226Y106403800D01*
X8048226Y101623800D02*
X8048226Y102965800D01*
X8048226Y105045800D02*
X8048226Y106387800D01*
X8008226Y101640800D02*
X8008226Y102965800D01*
X8008226Y105045800D02*
X8008226Y106370800D01*
X7968226Y101657800D02*
X7968226Y102965800D01*
X7968226Y105045800D02*
X7968226Y106353800D01*
X7928226Y101676800D02*
X7928226Y102965800D01*
X7928226Y105045800D02*
X7928226Y106334800D01*
X7888226Y101695800D02*
X7888226Y102965800D01*
X7888226Y105045800D02*
X7888226Y106315800D01*
X7848226Y101715800D02*
X7848226Y102965800D01*
X7848226Y105045800D02*
X7848226Y106295800D01*
X7808226Y101737800D02*
X7808226Y102965800D01*
X7808226Y105045800D02*
X7808226Y106273800D01*
X7768226Y101758800D02*
X7768226Y102965800D01*
X7768226Y105045800D02*
X7768226Y106252800D01*
X7728226Y101781800D02*
X7728226Y102965800D01*
X7728226Y105045800D02*
X7728226Y106229800D01*
X7688226Y101805800D02*
X7688226Y102965800D01*
X7688226Y105045800D02*
X7688226Y106205800D01*
X7648226Y101830800D02*
X7648226Y102965800D01*
X7648226Y105045800D02*
X7648226Y106180800D01*
X7608226Y101856800D02*
X7608226Y102965800D01*
X7608226Y105045800D02*
X7608226Y106154800D01*
X7568226Y101883800D02*
X7568226Y102965800D01*
X7568226Y105045800D02*
X7568226Y106127800D01*
X7528226Y101910800D02*
X7528226Y102965800D01*
X7528226Y105045800D02*
X7528226Y106100800D01*
X7488226Y101940800D02*
X7488226Y102965800D01*
X7488226Y105045800D02*
X7488226Y106070800D01*
X7448226Y101970800D02*
X7448226Y102965800D01*
X7448226Y105045800D02*
X7448226Y106040800D01*
X7408226Y102001800D02*
X7408226Y102965800D01*
X7408226Y105045800D02*
X7408226Y106009800D01*
X7368226Y102034800D02*
X7368226Y102965800D01*
X7368226Y105045800D02*
X7368226Y105976800D01*
X7328226Y102068800D02*
X7328226Y102965800D01*
X7328226Y105045800D02*
X7328226Y105942800D01*
X7288226Y102104800D02*
X7288226Y102965800D01*
X7288226Y105045800D02*
X7288226Y105906800D01*
X7248226Y102141800D02*
X7248226Y102965800D01*
X7248226Y105045800D02*
X7248226Y105869800D01*
X7208226Y102179800D02*
X7208226Y102965800D01*
X7208226Y105045800D02*
X7208226Y105831800D01*
X7168226Y102220800D02*
X7168226Y102965800D01*
X7168226Y105045800D02*
X7168226Y105790800D01*
X7128226Y102262800D02*
X7128226Y102965800D01*
X7128226Y105045800D02*
X7128226Y105748800D01*
X7088226Y102306800D02*
X7088226Y102965800D01*
X7088226Y105045800D02*
X7088226Y105704800D01*
X7048226Y102352800D02*
X7048226Y102965800D01*
X7048226Y105045800D02*
X7048226Y105658800D01*
X7008226Y102400800D02*
X7008226Y105610800D01*
X6968226Y102451800D02*
X6968226Y105559800D01*
X6928226Y102505800D02*
X6928226Y105505800D01*
X6888226Y102562800D02*
X6888226Y105448800D01*
X6848226Y102622800D02*
X6848226Y105388800D01*
X6808226Y102686800D02*
X6808226Y105324800D01*
X6768226Y102754800D02*
X6768226Y105256800D01*
X6728226Y102827800D02*
X6728226Y105183800D01*
X6688226Y102907800D02*
X6688226Y105103800D01*
X6648226Y102994800D02*
X6648226Y105016800D01*
X6608226Y103090800D02*
X6608226Y104920800D01*
X6568226Y103200800D02*
X6568226Y104810800D01*
X6528226Y103328800D02*
X6528226Y104682800D01*
X6488226Y103487800D02*
X6488226Y104523800D01*
X6448226Y103721800D02*
X6448226Y104289800D01*
X11669226Y104005800D02*
G75*
G03*
X6429226Y104005800I-2620000J0D01*
G01*
X6429226Y104005800D02*
G75*
G03*
X11669226Y104005800I2620000J0D01*
G01*
%TO.C,D4*%
X14960113Y109212800D02*
X15610113Y109212800D01*
X15610113Y110332800D02*
X15610113Y108092800D01*
X15610113Y108092800D02*
X19850113Y108092800D01*
X16210113Y110332800D02*
X16210113Y108092800D01*
X16330113Y110332800D02*
X16330113Y108092800D01*
X16450113Y110332800D02*
X16450113Y108092800D01*
X19850113Y110332800D02*
X15610113Y110332800D01*
X19850113Y108092800D02*
X19850113Y110332800D01*
X20500113Y109212800D02*
X19850113Y109212800D01*
%TO.C,C1*%
X15770600Y33453000D02*
X15770600Y30713000D01*
X15770600Y33453000D02*
X21010600Y33453000D01*
X15770600Y30713000D02*
X21010600Y30713000D01*
X21010600Y33453000D02*
X21010600Y30713000D01*
%TO.C,U1*%
X11011400Y174544400D02*
X21411400Y174544400D01*
X21411400Y174544400D02*
X21411400Y185044400D01*
X11071400Y177544400D02*
X21351400Y177544400D01*
X21351400Y177544400D02*
X21351400Y182044400D01*
X11071400Y178794400D02*
X11071400Y177544400D01*
X11071400Y182044400D02*
X11071400Y180794400D01*
X21351400Y182044400D02*
X11071400Y182044400D01*
X11011400Y185044400D02*
X11011400Y174544400D01*
X21411400Y185044400D02*
X11011400Y185044400D01*
X11071400Y178794400D02*
G75*
G03*
X11071400Y180794400I0J1000000D01*
G01*
%TO.C,R3*%
X5944600Y47804200D02*
X5944600Y48574200D01*
X4574600Y48574200D02*
X7314600Y48574200D01*
X7314600Y48574200D02*
X7314600Y55114200D01*
X4574600Y55114200D02*
X4574600Y48574200D01*
X7314600Y55114200D02*
X4574600Y55114200D01*
X5944600Y55884200D02*
X5944600Y55114200D01*
%TO.C,JP3*%
X10863000Y40049400D02*
X10863000Y41379400D01*
X12193000Y40049400D02*
X10863000Y40049400D01*
X13463000Y40049400D02*
X18603000Y40049400D01*
X13463000Y40049400D02*
X13463000Y42709400D01*
X18603000Y40049400D02*
X18603000Y42709400D01*
X13463000Y42709400D02*
X18603000Y42709400D01*
%TO.C,R3*%
X10718113Y121245800D02*
X10718113Y114705800D01*
X10388113Y121245800D02*
X10718113Y121245800D01*
X8308113Y121245800D02*
X7978113Y121245800D01*
X7978113Y121245800D02*
X7978113Y114705800D01*
X10718113Y114705800D02*
X10388113Y114705800D01*
X7978113Y114705800D02*
X8308113Y114705800D01*
%TO.C,R2*%
X10718113Y98258800D02*
X10718113Y91718800D01*
X10388113Y98258800D02*
X10718113Y98258800D01*
X8308113Y98258800D02*
X7978113Y98258800D01*
X7978113Y98258800D02*
X7978113Y91718800D01*
X10718113Y91718800D02*
X10388113Y91718800D01*
X7978113Y91718800D02*
X8308113Y91718800D01*
%TO.C,D3*%
X25350113Y114570800D02*
X25350113Y115220800D01*
X24230113Y115220800D02*
X26470113Y115220800D01*
X26470113Y115220800D02*
X26470113Y119460800D01*
X24230113Y115820800D02*
X26470113Y115820800D01*
X24230113Y115940800D02*
X26470113Y115940800D01*
X24230113Y116060800D02*
X26470113Y116060800D01*
X24230113Y119460800D02*
X24230113Y115220800D01*
X26470113Y119460800D02*
X24230113Y119460800D01*
X25350113Y120110800D02*
X25350113Y119460800D01*
%TO.C,R5*%
X18289000Y46940600D02*
X18289000Y47710600D01*
X16919000Y47710600D02*
X19659000Y47710600D01*
X19659000Y47710600D02*
X19659000Y54250600D01*
X16919000Y54250600D02*
X16919000Y47710600D01*
X19659000Y54250600D02*
X16919000Y54250600D01*
X18289000Y55020600D02*
X18289000Y54250600D01*
%TO.C,R6*%
X22048200Y54919000D02*
X22048200Y54149000D01*
X23418200Y54149000D02*
X20678200Y54149000D01*
X20678200Y54149000D02*
X20678200Y47609000D01*
X23418200Y47609000D02*
X23418200Y54149000D01*
X20678200Y47609000D02*
X23418200Y47609000D01*
X22048200Y46839000D02*
X22048200Y47609000D01*
%TO.C,R2*%
X14687400Y160209600D02*
X14687400Y160979600D01*
X13317400Y160979600D02*
X16057400Y160979600D01*
X16057400Y160979600D02*
X16057400Y167519600D01*
X13317400Y167519600D02*
X13317400Y160979600D01*
X16057400Y167519600D02*
X13317400Y167519600D01*
X14687400Y168289600D02*
X14687400Y167519600D01*
%TO.C,C2*%
X11854001Y125390800D02*
X11354001Y125390800D01*
X11604001Y125140800D02*
X11604001Y125640800D01*
X9049226Y124285800D02*
X9049226Y125825800D01*
X9049226Y127905800D02*
X9049226Y129445800D01*
X9009226Y124285800D02*
X9009226Y125825800D01*
X9009226Y127905800D02*
X9009226Y129445800D01*
X8969226Y124286800D02*
X8969226Y125825800D01*
X8969226Y127905800D02*
X8969226Y129444800D01*
X8929226Y124287800D02*
X8929226Y125825800D01*
X8929226Y127905800D02*
X8929226Y129443800D01*
X8889226Y124289800D02*
X8889226Y125825800D01*
X8889226Y127905800D02*
X8889226Y129441800D01*
X8849226Y124292800D02*
X8849226Y125825800D01*
X8849226Y127905800D02*
X8849226Y129438800D01*
X8809226Y124296800D02*
X8809226Y125825800D01*
X8809226Y127905800D02*
X8809226Y129434800D01*
X8769226Y124300800D02*
X8769226Y125825800D01*
X8769226Y127905800D02*
X8769226Y129430800D01*
X8729226Y124304800D02*
X8729226Y125825800D01*
X8729226Y127905800D02*
X8729226Y129426800D01*
X8689226Y124309800D02*
X8689226Y125825800D01*
X8689226Y127905800D02*
X8689226Y129421800D01*
X8649226Y124315800D02*
X8649226Y125825800D01*
X8649226Y127905800D02*
X8649226Y129415800D01*
X8609226Y124322800D02*
X8609226Y125825800D01*
X8609226Y127905800D02*
X8609226Y129408800D01*
X8569226Y124329800D02*
X8569226Y125825800D01*
X8569226Y127905800D02*
X8569226Y129401800D01*
X8529226Y124337800D02*
X8529226Y125825800D01*
X8529226Y127905800D02*
X8529226Y129393800D01*
X8489226Y124345800D02*
X8489226Y125825800D01*
X8489226Y127905800D02*
X8489226Y129385800D01*
X8449226Y124354800D02*
X8449226Y125825800D01*
X8449226Y127905800D02*
X8449226Y129376800D01*
X8409226Y124364800D02*
X8409226Y125825800D01*
X8409226Y127905800D02*
X8409226Y129366800D01*
X8369226Y124374800D02*
X8369226Y125825800D01*
X8369226Y127905800D02*
X8369226Y129356800D01*
X8328226Y124385800D02*
X8328226Y125825800D01*
X8328226Y127905800D02*
X8328226Y129345800D01*
X8288226Y124397800D02*
X8288226Y125825800D01*
X8288226Y127905800D02*
X8288226Y129333800D01*
X8248226Y124410800D02*
X8248226Y125825800D01*
X8248226Y127905800D02*
X8248226Y129320800D01*
X8208226Y124423800D02*
X8208226Y125825800D01*
X8208226Y127905800D02*
X8208226Y129307800D01*
X8168226Y124437800D02*
X8168226Y125825800D01*
X8168226Y127905800D02*
X8168226Y129293800D01*
X8128226Y124451800D02*
X8128226Y125825800D01*
X8128226Y127905800D02*
X8128226Y129279800D01*
X8088226Y124467800D02*
X8088226Y125825800D01*
X8088226Y127905800D02*
X8088226Y129263800D01*
X8048226Y124483800D02*
X8048226Y125825800D01*
X8048226Y127905800D02*
X8048226Y129247800D01*
X8008226Y124500800D02*
X8008226Y125825800D01*
X8008226Y127905800D02*
X8008226Y129230800D01*
X7968226Y124517800D02*
X7968226Y125825800D01*
X7968226Y127905800D02*
X7968226Y129213800D01*
X7928226Y124536800D02*
X7928226Y125825800D01*
X7928226Y127905800D02*
X7928226Y129194800D01*
X7888226Y124555800D02*
X7888226Y125825800D01*
X7888226Y127905800D02*
X7888226Y129175800D01*
X7848226Y124575800D02*
X7848226Y125825800D01*
X7848226Y127905800D02*
X7848226Y129155800D01*
X7808226Y124597800D02*
X7808226Y125825800D01*
X7808226Y127905800D02*
X7808226Y129133800D01*
X7768226Y124618800D02*
X7768226Y125825800D01*
X7768226Y127905800D02*
X7768226Y129112800D01*
X7728226Y124641800D02*
X7728226Y125825800D01*
X7728226Y127905800D02*
X7728226Y129089800D01*
X7688226Y124665800D02*
X7688226Y125825800D01*
X7688226Y127905800D02*
X7688226Y129065800D01*
X7648226Y124690800D02*
X7648226Y125825800D01*
X7648226Y127905800D02*
X7648226Y129040800D01*
X7608226Y124716800D02*
X7608226Y125825800D01*
X7608226Y127905800D02*
X7608226Y129014800D01*
X7568226Y124743800D02*
X7568226Y125825800D01*
X7568226Y127905800D02*
X7568226Y128987800D01*
X7528226Y124770800D02*
X7528226Y125825800D01*
X7528226Y127905800D02*
X7528226Y128960800D01*
X7488226Y124800800D02*
X7488226Y125825800D01*
X7488226Y127905800D02*
X7488226Y128930800D01*
X7448226Y124830800D02*
X7448226Y125825800D01*
X7448226Y127905800D02*
X7448226Y128900800D01*
X7408226Y124861800D02*
X7408226Y125825800D01*
X7408226Y127905800D02*
X7408226Y128869800D01*
X7368226Y124894800D02*
X7368226Y125825800D01*
X7368226Y127905800D02*
X7368226Y128836800D01*
X7328226Y124928800D02*
X7328226Y125825800D01*
X7328226Y127905800D02*
X7328226Y128802800D01*
X7288226Y124964800D02*
X7288226Y125825800D01*
X7288226Y127905800D02*
X7288226Y128766800D01*
X7248226Y125001800D02*
X7248226Y125825800D01*
X7248226Y127905800D02*
X7248226Y128729800D01*
X7208226Y125039800D02*
X7208226Y125825800D01*
X7208226Y127905800D02*
X7208226Y128691800D01*
X7168226Y125080800D02*
X7168226Y125825800D01*
X7168226Y127905800D02*
X7168226Y128650800D01*
X7128226Y125122800D02*
X7128226Y125825800D01*
X7128226Y127905800D02*
X7128226Y128608800D01*
X7088226Y125166800D02*
X7088226Y125825800D01*
X7088226Y127905800D02*
X7088226Y128564800D01*
X7048226Y125212800D02*
X7048226Y125825800D01*
X7048226Y127905800D02*
X7048226Y128518800D01*
X7008226Y125260800D02*
X7008226Y128470800D01*
X6968226Y125311800D02*
X6968226Y128419800D01*
X6928226Y125365800D02*
X6928226Y128365800D01*
X6888226Y125422800D02*
X6888226Y128308800D01*
X6848226Y125482800D02*
X6848226Y128248800D01*
X6808226Y125546800D02*
X6808226Y128184800D01*
X6768226Y125614800D02*
X6768226Y128116800D01*
X6728226Y125687800D02*
X6728226Y128043800D01*
X6688226Y125767800D02*
X6688226Y127963800D01*
X6648226Y125854800D02*
X6648226Y127876800D01*
X6608226Y125950800D02*
X6608226Y127780800D01*
X6568226Y126060800D02*
X6568226Y127670800D01*
X6528226Y126188800D02*
X6528226Y127542800D01*
X6488226Y126347800D02*
X6488226Y127383800D01*
X6448226Y126581800D02*
X6448226Y127149800D01*
X11669226Y126865800D02*
G75*
G03*
X6429226Y126865800I-2620000J0D01*
G01*
X6429226Y126865800D02*
G75*
G03*
X11669226Y126865800I2620000J0D01*
G01*
%TO.C,D1*%
X25350113Y91710800D02*
X25350113Y92360800D01*
X24230113Y92360800D02*
X26470113Y92360800D01*
X26470113Y92360800D02*
X26470113Y96600800D01*
X24230113Y92960800D02*
X26470113Y92960800D01*
X24230113Y93080800D02*
X26470113Y93080800D01*
X24230113Y93200800D02*
X26470113Y93200800D01*
X24230113Y96600800D02*
X24230113Y92360800D01*
X26470113Y96600800D02*
X24230113Y96600800D01*
X25350113Y97250800D02*
X25350113Y96600800D01*
%TO.C,R1*%
X13361400Y14073000D02*
X13361400Y14843000D01*
X11991400Y14843000D02*
X14731400Y14843000D01*
X14731400Y14843000D02*
X14731400Y21383000D01*
X11991400Y21383000D02*
X11991400Y14843000D01*
X14731400Y21383000D02*
X11991400Y21383000D01*
X13361400Y22153000D02*
X13361400Y21383000D01*
%TO.C,J2*%
X8180000Y145930000D02*
X8180000Y147200000D01*
X9450000Y145930000D02*
X8180000Y145930000D01*
X11610000Y148242929D02*
X11610000Y148640000D01*
X12370000Y148242929D02*
X12370000Y148640000D01*
X14150000Y148242929D02*
X14150000Y148640000D01*
X14910000Y148242929D02*
X14910000Y148640000D01*
X16690000Y148242929D02*
X16690000Y148640000D01*
X17450000Y148242929D02*
X17450000Y148640000D01*
X19230000Y148242929D02*
X19230000Y148640000D01*
X19990000Y148242929D02*
X19990000Y148640000D01*
X21770000Y148242929D02*
X21770000Y148640000D01*
X22530000Y148242929D02*
X22530000Y148640000D01*
X24310000Y148242929D02*
X24310000Y148640000D01*
X25070000Y148242929D02*
X25070000Y148640000D01*
X9070000Y148310000D02*
X9070000Y148640000D01*
X9830000Y148310000D02*
X9830000Y148640000D01*
X8120000Y148640000D02*
X26020000Y148640000D01*
X10720000Y148640000D02*
X10720000Y151300000D01*
X13260000Y148640000D02*
X13260000Y151300000D01*
X15800000Y148640000D02*
X15800000Y151300000D01*
X18340000Y148640000D02*
X18340000Y151300000D01*
X20880000Y148640000D02*
X20880000Y151300000D01*
X23420000Y148640000D02*
X23420000Y151300000D01*
X26020000Y148640000D02*
X26020000Y151300000D01*
X8120000Y151300000D02*
X8120000Y148640000D01*
X9070000Y151300000D02*
X9070000Y157300000D01*
X9130000Y151300000D02*
X9130000Y157300000D01*
X9250000Y151300000D02*
X9250000Y157300000D01*
X9370000Y151300000D02*
X9370000Y157300000D01*
X9490000Y151300000D02*
X9490000Y157300000D01*
X9610000Y151300000D02*
X9610000Y157300000D01*
X9730000Y151300000D02*
X9730000Y157300000D01*
X11610000Y151300000D02*
X11610000Y157300000D01*
X14150000Y151300000D02*
X14150000Y157300000D01*
X16690000Y151300000D02*
X16690000Y157300000D01*
X19230000Y151300000D02*
X19230000Y157300000D01*
X21770000Y151300000D02*
X21770000Y157300000D01*
X24310000Y151300000D02*
X24310000Y157300000D01*
X26020000Y151300000D02*
X8120000Y151300000D01*
X9070000Y157300000D02*
X9830000Y157300000D01*
X9830000Y157300000D02*
X9830000Y151300000D01*
X11610000Y157300000D02*
X12370000Y157300000D01*
X12370000Y157300000D02*
X12370000Y151300000D01*
X14150000Y157300000D02*
X14910000Y157300000D01*
X14910000Y157300000D02*
X14910000Y151300000D01*
X16690000Y157300000D02*
X17450000Y157300000D01*
X17450000Y157300000D02*
X17450000Y151300000D01*
X19230000Y157300000D02*
X19990000Y157300000D01*
X19990000Y157300000D02*
X19990000Y151300000D01*
X21770000Y157300000D02*
X22530000Y157300000D01*
X22530000Y157300000D02*
X22530000Y151300000D01*
X24310000Y157300000D02*
X25070000Y157300000D01*
X25070000Y157300000D02*
X25070000Y151300000D01*
%TO.C,U1*%
X22970113Y89798800D02*
X22970113Y100198800D01*
X22970113Y100198800D02*
X12470113Y100198800D01*
X19970113Y89858800D02*
X19970113Y100138800D01*
X19970113Y100138800D02*
X15470113Y100138800D01*
X18720113Y89858800D02*
X19970113Y89858800D01*
X15470113Y89858800D02*
X16720113Y89858800D01*
X15470113Y100138800D02*
X15470113Y89858800D01*
X12470113Y89798800D02*
X22970113Y89798800D01*
X12470113Y100198800D02*
X12470113Y89798800D01*
X18720113Y89858800D02*
G75*
G03*
X16720113Y89858800I-1000000J0D01*
G01*
%TO.C,J1*%
X4970200Y4743400D02*
X4970200Y6073400D01*
X6300200Y4743400D02*
X4970200Y4743400D01*
X7570200Y4743400D02*
X20330200Y4743400D01*
X7570200Y4743400D02*
X7570200Y7403400D01*
X20330200Y4743400D02*
X20330200Y7403400D01*
X7570200Y7403400D02*
X20330200Y7403400D01*
%TO.C,R2*%
X19406600Y13971400D02*
X19406600Y14741400D01*
X18036600Y14741400D02*
X20776600Y14741400D01*
X20776600Y14741400D02*
X20776600Y21281400D01*
X18036600Y21281400D02*
X18036600Y14741400D01*
X20776600Y21281400D02*
X18036600Y21281400D01*
X19406600Y22051400D02*
X19406600Y21281400D01*
%TO.C,R3*%
X19665800Y160158800D02*
X19665800Y160928800D01*
X18295800Y160928800D02*
X21035800Y160928800D01*
X21035800Y160928800D02*
X21035800Y167468800D01*
X18295800Y167468800D02*
X18295800Y160928800D01*
X21035800Y167468800D02*
X18295800Y167468800D01*
X19665800Y168238800D02*
X19665800Y167468800D01*
%TO.C,JP2*%
X9306600Y28086000D02*
X7976600Y28086000D01*
X9306600Y29416000D02*
X9306600Y28086000D01*
X9306600Y30686000D02*
X9306600Y35826000D01*
X9306600Y30686000D02*
X6646600Y30686000D01*
X9306600Y35826000D02*
X6646600Y35826000D01*
X6646600Y30686000D02*
X6646600Y35826000D01*
%TO.C,R1*%
X14460113Y105756800D02*
X21000113Y105756800D01*
X14460113Y105426800D02*
X14460113Y105756800D01*
X14460113Y103346800D02*
X14460113Y103016800D01*
X14460113Y103016800D02*
X21000113Y103016800D01*
X21000113Y105756800D02*
X21000113Y105426800D01*
X21000113Y103016800D02*
X21000113Y103346800D01*
%TO.C,JP1*%
X9459000Y14090600D02*
X8129000Y14090600D01*
X9459000Y15420600D02*
X9459000Y14090600D01*
X9459000Y16690600D02*
X9459000Y21830600D01*
X9459000Y16690600D02*
X6799000Y16690600D01*
X9459000Y21830600D02*
X6799000Y21830600D01*
X6799000Y16690600D02*
X6799000Y21830600D01*
%TD*%
M02*
