%TF.GenerationSoftware,KiCad,Pcbnew,7.0.11*%
%TF.CreationDate,2026-02-25T18:30:34-03:00*%
%TF.ProjectId,Placas,506c6163-6173-42e6-9b69-6361645f7063,rev?*%
%TF.SameCoordinates,PX59faab0PYbc28f20*%
%TF.FileFunction,Copper,L1,Top*%
%TF.FilePolarity,Positive*%
%FSLAX46Y46*%
G04 Gerber Fmt 4.6, Leading zero omitted, Abs format (unit mm)*
G04 Created by KiCad (PCBNEW 7.0.11) date 2026-02-25 18:30:34*
%MOMM*%
%LPD*%
G01*
G04 APERTURE LIST*
%TA.AperFunction,ComponentPad*%
%ADD10R,1.700000X2.500000*%
%TD*%
%TA.AperFunction,ComponentPad*%
%ADD11O,1.700000X2.500000*%
%TD*%
%TA.AperFunction,ComponentPad*%
%ADD12C,2.500000*%
%TD*%
%TA.AperFunction,ComponentPad*%
%ADD13O,2.250000X2.250000*%
%TD*%
%TA.AperFunction,ComponentPad*%
%ADD14O,2.500000X2.500000*%
%TD*%
%TA.AperFunction,ComponentPad*%
%ADD15O,2.600000X1.600000*%
%TD*%
%TA.AperFunction,ComponentPad*%
%ADD16R,2.500000X1.600000*%
%TD*%
%TA.AperFunction,ComponentPad*%
%ADD17O,2.500000X1.600000*%
%TD*%
%TA.AperFunction,ComponentPad*%
%ADD18O,1.200000X2.500000*%
%TD*%
%TA.AperFunction,ComponentPad*%
%ADD19O,1.600000X3.000000*%
%TD*%
%TA.AperFunction,ComponentPad*%
%ADD20O,1.600000X2.600000*%
%TD*%
%TA.AperFunction,ComponentPad*%
%ADD21O,1.700000X3.000000*%
%TD*%
%TA.AperFunction,ComponentPad*%
%ADD22O,3.000000X1.700000*%
%TD*%
%TA.AperFunction,ViaPad*%
%ADD23C,2.250000*%
%TD*%
%TA.AperFunction,ViaPad*%
%ADD24C,1.750000*%
%TD*%
%TA.AperFunction,Conductor*%
%ADD25C,0.750000*%
%TD*%
G04 APERTURE END LIST*
D10*
%TO.P,J1,1,Pin_1*%
%TO.N,+12V*%
X10237113Y79748800D03*
D11*
%TO.P,J1,2,Pin_2*%
%TO.N,N/C*%
X12777113Y79748800D03*
%TO.P,J1,3,Pin_3*%
X15317113Y79748800D03*
%TO.P,J1,4,Pin_4*%
%TO.N,GND*%
X17857113Y79748800D03*
%TO.P,J1,5,Pin_5*%
%TO.N,N/C*%
X20397113Y79748800D03*
%TO.P,J1,6,Pin_6*%
X22937113Y79748800D03*
%TO.P,J1,7,Pin_7*%
%TO.N,-12V*%
X25477113Y79748800D03*
%TD*%
D12*
%TO.P,R1,1*%
%TO.N,N/C*%
X7931000Y158915600D03*
%TO.P,R1,2*%
X7931000Y169075600D03*
%TD*%
%TO.P,L1,1,1*%
%TO.N,Net-(JP1-B)*%
X13310600Y27130000D03*
%TO.P,L1,2,2*%
%TO.N,Net-(JP2-B)*%
X13310600Y37290000D03*
%TD*%
D13*
%TO.P,D2,1,K*%
%TO.N,N/C*%
X13793113Y86352800D03*
%TO.P,D2,2,A*%
X21413113Y86352800D03*
%TD*%
D12*
%TO.P,R4,1*%
%TO.N,Net-(U1A--)*%
X9602200Y56924200D03*
%TO.P,R4,2*%
%TO.N,VRLCr_A*%
X9602200Y46764200D03*
%TD*%
D11*
%TO.P,J1,1,Pin_1*%
%TO.N,N/C*%
X5797400Y139764000D03*
%TO.P,J1,2,Pin_2*%
X8337400Y139764000D03*
%TO.P,J1,3,Pin_3*%
X10877400Y139764000D03*
%TO.P,J1,4,Pin_4*%
X13417400Y139764000D03*
%TO.P,J1,5,Pin_5*%
%TO.N,GND*%
X15957400Y139764000D03*
%TO.P,J1,6,Pin_6*%
%TO.N,+12V*%
X18497400Y139764000D03*
%TO.P,J1,7,Pin_7*%
%TO.N,-12V*%
X21037400Y139764000D03*
%TO.P,J1,8,Pin_8*%
%TO.N,N/C*%
X23577400Y139764000D03*
%TO.P,J1,9,Pin_9*%
%TO.N,-VRLCr*%
X26117400Y139764000D03*
%TD*%
D14*
%TO.P,R4,1*%
%TO.N,N/C*%
X13920113Y127119800D03*
%TO.P,R4,2*%
X21540113Y127119800D03*
%TD*%
D15*
%TO.P,U1,1*%
%TO.N,VRLCr_A*%
X10882200Y69919000D03*
%TO.P,U1,2,-*%
%TO.N,Net-(U1A--)*%
X10882200Y67379000D03*
%TO.P,U1,3,+*%
%TO.N,GND*%
X10882200Y64839000D03*
%TO.P,U1,4,V-*%
%TO.N,-12V*%
X10882200Y62299000D03*
%TO.P,U1,5,+*%
%TO.N,GND*%
X18502200Y62299000D03*
%TO.P,U1,6,-*%
%TO.N,Net-(U1B--)*%
X18502200Y64839000D03*
%TO.P,U1,7*%
%TO.N,Vr_A*%
X18502200Y67379000D03*
%TO.P,U1,8,V+*%
%TO.N,+12V*%
X18502200Y69919000D03*
%TD*%
D12*
%TO.P,R4,1*%
%TO.N,Net-(U1A--)*%
X26371400Y159144200D03*
%TO.P,R4,2*%
%TO.N,-VRLCr*%
X26371400Y169304200D03*
%TD*%
D16*
%TO.P,U2,1*%
%TO.N,N/C*%
X21530113Y114048800D03*
D17*
%TO.P,U2,2,-*%
X21530113Y116588800D03*
%TO.P,U2,3,+*%
X21530113Y119128800D03*
%TO.P,U2,4,V-*%
%TO.N,-12V*%
X21530113Y121668800D03*
%TO.P,U2,5,+*%
%TO.N,N/C*%
X13910113Y121668800D03*
%TO.P,U2,6,-*%
X13910113Y119128800D03*
%TO.P,U2,7*%
X13910113Y116588800D03*
%TO.P,U2,8,V+*%
%TO.N,+12V*%
X13910113Y114048800D03*
%TD*%
D18*
%TO.P,C1,1*%
%TO.N,N/C*%
X10049226Y104005800D03*
%TO.P,C1,2*%
%TO.N,GND*%
X8049226Y104005800D03*
%TD*%
D13*
%TO.P,D4,1,K*%
%TO.N,N/C*%
X13920113Y109212800D03*
%TO.P,D4,2,A*%
X21540113Y109212800D03*
%TD*%
D19*
%TO.P,C1,1*%
%TO.N,Net-(JP2-B)*%
X17140600Y32083000D03*
%TO.P,C1,2*%
%TO.N,-Vr*%
X19640600Y32083000D03*
%TD*%
D20*
%TO.P,U1,1*%
%TO.N,-VRLCr*%
X12401400Y175984400D03*
%TO.P,U1,2,-*%
%TO.N,Net-(U1A--)*%
X14941400Y175984400D03*
%TO.P,U1,3,+*%
%TO.N,GND*%
X17481400Y175984400D03*
%TO.P,U1,4,V-*%
%TO.N,-12V*%
X20021400Y175984400D03*
%TO.P,U1,5,+*%
%TO.N,N/C*%
X20021400Y183604400D03*
%TO.P,U1,6,-*%
X17481400Y183604400D03*
%TO.P,U1,7*%
X14941400Y183604400D03*
%TO.P,U1,8,V+*%
%TO.N,+12V*%
X12401400Y183604400D03*
%TD*%
D12*
%TO.P,R3,1*%
%TO.N,-VRLCr*%
X5944600Y46764200D03*
%TO.P,R3,2*%
%TO.N,Net-(U1A--)*%
X5944600Y56924200D03*
%TD*%
D21*
%TO.P,JP3,1,A*%
%TO.N,unconnected-(JP3-A-Pad1)*%
X12193000Y41379400D03*
%TO.P,JP3,2,C*%
%TO.N,Net-(JP2-B)*%
X14733000Y41379400D03*
%TO.P,JP3,3,B*%
%TO.N,-Vr*%
X17273000Y41379400D03*
%TD*%
D14*
%TO.P,R3,1*%
%TO.N,N/C*%
X9348113Y121785800D03*
%TO.P,R3,2*%
%TO.N,GND*%
X9348113Y114165800D03*
%TD*%
%TO.P,R2,1*%
%TO.N,N/C*%
X9348113Y98798800D03*
%TO.P,R2,2*%
%TO.N,GND*%
X9348113Y91178800D03*
%TD*%
D13*
%TO.P,D3,1,K*%
%TO.N,N/C*%
X25350113Y113530800D03*
%TO.P,D3,2,A*%
X25350113Y121150800D03*
%TD*%
D12*
%TO.P,R5,1*%
%TO.N,-Vr*%
X18289000Y45900600D03*
%TO.P,R5,2*%
%TO.N,Net-(U1B--)*%
X18289000Y56060600D03*
%TD*%
%TO.P,R6,1*%
%TO.N,Net-(U1B--)*%
X22048200Y55959000D03*
%TO.P,R6,2*%
%TO.N,Vr_A*%
X22048200Y45799000D03*
%TD*%
%TO.P,R2,1*%
%TO.N,N/C*%
X14687400Y159169600D03*
%TO.P,R2,2*%
%TO.N,Net-(U1A--)*%
X14687400Y169329600D03*
%TD*%
D18*
%TO.P,C2,1*%
%TO.N,N/C*%
X10049226Y126865800D03*
%TO.P,C2,2*%
%TO.N,GND*%
X8049226Y126865800D03*
%TD*%
D13*
%TO.P,D1,1,K*%
%TO.N,N/C*%
X25350113Y90670800D03*
%TO.P,D1,2,A*%
X25350113Y98290800D03*
%TD*%
D12*
%TO.P,R1,1*%
%TO.N,-VRLCr*%
X13361400Y13033000D03*
%TO.P,R1,2*%
%TO.N,Net-(JP1-B)*%
X13361400Y23193000D03*
%TD*%
D11*
%TO.P,J2,1,Pin_1*%
%TO.N,N/C*%
X9450000Y147200000D03*
%TO.P,J2,2,Pin_2*%
X11990000Y147200000D03*
%TO.P,J2,3,Pin_3*%
%TO.N,GND*%
X14530000Y147200000D03*
%TO.P,J2,4,Pin_4*%
%TO.N,N/C*%
X17070000Y147200000D03*
%TO.P,J2,5,Pin_5*%
X19610000Y147200000D03*
%TO.P,J2,6,Pin_6*%
X22150000Y147200000D03*
%TO.P,J2,7,Pin_7*%
X24690000Y147200000D03*
%TD*%
D16*
%TO.P,U1,1*%
%TO.N,N/C*%
X21530113Y91188800D03*
D17*
%TO.P,U1,2,-*%
X21530113Y93728800D03*
%TO.P,U1,3,+*%
X21530113Y96268800D03*
%TO.P,U1,4,V-*%
%TO.N,-12V*%
X21530113Y98808800D03*
%TO.P,U1,5,+*%
%TO.N,N/C*%
X13910113Y98808800D03*
%TO.P,U1,6,-*%
X13910113Y96268800D03*
%TO.P,U1,7*%
X13910113Y93728800D03*
%TO.P,U1,8,V+*%
%TO.N,+12V*%
X13910113Y91188800D03*
%TD*%
D21*
%TO.P,J1,1,Pin_1*%
%TO.N,-VRLCr*%
X6300200Y6073400D03*
%TO.P,J1,2,Pin_2*%
%TO.N,Vr_A*%
X8840200Y6073400D03*
%TO.P,J1,3,Pin_3*%
%TO.N,GND*%
X11380200Y6073400D03*
%TO.P,J1,4,Pin_4*%
%TO.N,-12V*%
X13920200Y6073400D03*
%TO.P,J1,5,Pin_5*%
%TO.N,VRLCr_A*%
X16460200Y6073400D03*
%TO.P,J1,6,Pin_6*%
%TO.N,+12V*%
X19000200Y6073400D03*
%TD*%
D12*
%TO.P,R2,1*%
%TO.N,GND*%
X19406600Y12931400D03*
%TO.P,R2,2*%
%TO.N,-Vr*%
X19406600Y23091400D03*
%TD*%
%TO.P,R3,1*%
%TO.N,N/C*%
X19665800Y159118800D03*
%TO.P,R3,2*%
%TO.N,Net-(U1A--)*%
X19665800Y169278800D03*
%TD*%
D22*
%TO.P,JP2,1,A*%
%TO.N,unconnected-(JP2-A-Pad1)*%
X7976600Y29416000D03*
%TO.P,JP2,2,C*%
%TO.N,Net-(JP1-B)*%
X7976600Y31956000D03*
%TO.P,JP2,3,B*%
%TO.N,Net-(JP2-B)*%
X7976600Y34496000D03*
%TD*%
D14*
%TO.P,R1,1*%
%TO.N,N/C*%
X13920113Y104386800D03*
%TO.P,R1,2*%
X21540113Y104386800D03*
%TD*%
D22*
%TO.P,JP1,1,A*%
%TO.N,unconnected-(JP1-A-Pad1)*%
X8129000Y15420600D03*
%TO.P,JP1,2,C*%
%TO.N,-VRLCr*%
X8129000Y17960600D03*
%TO.P,JP1,3,B*%
%TO.N,Net-(JP1-B)*%
X8129000Y20500600D03*
%TD*%
D23*
%TO.N,GND*%
X7366913Y86972400D03*
D24*
X7875000Y59921400D03*
D23*
X27864713Y108882600D03*
X7773313Y108460800D03*
D24*
X16968200Y59311800D03*
D23*
X6046113Y113784800D03*
%TD*%
D25*
%TO.N,GND*%
X4420513Y112575600D02*
X4420513Y87785200D01*
X5233313Y86972400D02*
X7366913Y86972400D01*
X5629713Y113784800D02*
X4420513Y112575600D01*
X25969713Y106987600D02*
X26752113Y107770000D01*
X26752113Y107770000D02*
X27864713Y108882600D01*
X6046113Y113784800D02*
X5629713Y113784800D01*
X7925800Y59870600D02*
X7875000Y59921400D01*
X7773313Y108460800D02*
X9652913Y108460800D01*
X4420513Y87785200D02*
X5233313Y86972400D01*
X11126113Y106987600D02*
X25969713Y106987600D01*
X16968200Y59311800D02*
X16409400Y59870600D01*
X16409400Y59870600D02*
X15088600Y59870600D01*
X9652913Y108460800D02*
X11126113Y106987600D01*
X15088600Y59870600D02*
X7925800Y59870600D01*
%TD*%
M02*
